<?xml version="1.0" encoding="UTF-8"?>
<svg id="Layer_1" data-name="Layer 1" xmlns="http://www.w3.org/2000/svg" viewBox="0 0 700 400">
  <defs>
    <style>
      .cls-1, .cls-2, .cls-3, .cls-4, .cls-5, .cls-6, .cls-7, .cls-8, .cls-9, .cls-10, .cls-11, .cls-12, .cls-13, .cls-14, .cls-15, .cls-16, .cls-17 {
        fill-rule: evenodd;
      }

      .cls-1, .cls-18 {
        fill: #1a1a1a;
      }

      .cls-2 {
        fill: #0f8140;
      }

      .cls-3 {
        fill: #d22026;
      }

      .cls-19, .cls-6 {
        fill: #fff;
      }

      .cls-4 {
        fill: #f4e3d7;
      }

      .cls-5, .cls-20 {
        fill: #172e50;
      }

      .cls-7 {
        fill: #fab280;
      }

      .cls-21 {
        letter-spacing: 0em;
      }

      .cls-22 {
        letter-spacing: 0em;
      }

      .cls-8 {
        fill: #989898;
      }

      .cls-9, .cls-23 {
        fill: #676767;
      }

      .cls-24 {
        fill: #333;
      }

      .cls-25 {
        fill: #818181;
      }

      .cls-10, .cls-26 {
        fill: #010101;
      }

      .cls-27, .cls-15 {
        fill: #fff7d5;
      }

      .cls-28 {
        fill: #038181;
      }

      .cls-11 {
        fill: #511211;
      }

      .cls-29 {
        fill: #f89957;
      }

      .cls-30 {
        letter-spacing: -.02em;
      }

      .cls-12 {
        fill: #d8f0fa;
      }

      .cls-31, .cls-16 {
        fill: #fea;
      }

      .cls-13 {
        fill: #fee5d5;
      }

      .cls-14 {
        fill: #b4b4b4;
      }

      .cls-32 {
        fill: #231f20;
        font-family: MyriadPro-Regular, 'Myriad Pro';
        font-size: 14px;
      }

      .cls-33 {
        fill: #d25727;
      }

      .cls-17 {
        fill: #ccc;
      }
    </style>
  </defs>
  <g id="layer1">
    <g id="g3784">
      <path id="path3732" class="cls-13" d="m410.06,170.06h61.32v229.94h-61.32v-229.94Z"/>
      <path id="path3734" class="cls-4" d="m426.92,102.61h137.96v67.45h-137.96v-67.45Z"/>
      <path id="path3694" class="cls-13" d="m466.77,102.61h98.11v52.12h-98.11v-52.12Z"/>
      <path id="path3700" class="cls-7" d="m426.92,113.34h137.96v7.66h-137.96v-7.66Z"/>
      <path id="rect3366" class="cls-13" d="m439.18,170.06h153.29v229.94h-153.29v-229.94Z"/>
      <path id="rect3368" class="cls-13" d="m455.28,154.73h121.1v245.27h-121.1v-245.27Z"/>
      <path id="path3645" class="cls-7" d="m447.61,327.19h136.43v3.83h-136.43v-3.83Z"/>
      <path id="path3647" class="cls-7" d="m447.61,311.86h136.43v3.83h-136.43v-3.83Z"/>
      <path id="path3649" class="cls-7" d="m447.61,296.53h136.43v3.83h-136.43v-3.83Z"/>
      <path id="path3651" class="cls-7" d="m447.61,281.2h136.43v3.83h-136.43v-3.83Z"/>
      <path id="path3653" class="cls-7" d="m447.61,265.87h136.43v3.83h-136.43v-3.83Z"/>
      <path id="path3655" class="cls-7" d="m447.61,250.54h136.43v3.83h-136.43v-3.83Z"/>
      <path id="path3641" class="cls-7" d="m447.61,357.84h136.43v7.66h-136.43v-7.66Z"/>
      <path id="path3643" class="cls-7" d="m447.61,342.52h136.43v3.83h-136.43v-3.83Z"/>
      <path id="path3372" class="cls-5" d="m493.6,162.4h44.45v237.6h-44.45v-237.6Z"/>
      <path id="path3659" class="cls-7" d="m447.61,235.21h136.43v3.83h-136.43v-3.83Z"/>
      <path id="path3665" class="cls-7" d="m447.61,173.89h136.43v3.83h-136.43v-3.83Z"/>
      <path id="path3374" class="cls-13" d="m511.99,162.4h7.66v237.6h-7.66v-237.6Z"/>
      <path id="path3376" class="cls-7" d="m447.61,377.01h136.43v7.66h-136.43v-7.66Z"/>
      <path id="path3378" class="cls-13" d="m493.6,357.84h44.45v3.83h-44.45v-3.83Z"/>
      <path id="path3398" class="cls-13" d="m493.6,342.52h44.45v3.83h-44.45v-3.83Z"/>
      <path id="path3400" class="cls-13" d="m493.6,327.19h44.45v3.83h-44.45v-3.83Z"/>
      <path id="path3402" class="cls-13" d="m493.6,311.86h44.45v3.83h-44.45v-3.83Z"/>
      <path id="path3404" class="cls-13" d="m493.6,296.53h44.45v3.83h-44.45v-3.83Z"/>
      <path id="path3406" class="cls-13" d="m493.6,281.2h44.45v3.83h-44.45v-3.83Z"/>
      <path id="path3408" class="cls-13" d="m493.6,265.87h44.45v3.83h-44.45v-3.83Z"/>
      <path id="path3410" class="cls-13" d="m493.6,250.54h44.45v3.83h-44.45v-3.83Z"/>
      <path id="path3412" class="cls-13" d="m493.6,235.21h44.45v3.83h-44.45v-3.83Z"/>
      <path id="path3420" class="cls-13" d="m493.6,173.89h44.45v3.83h-44.45v-3.83Z"/>
      <path id="rect3424" class="cls-20" d="m462.94,365.51h7.66v11.5h-7.66v-11.5Z"/>
      <path id="path3427" class="cls-20" d="m478.27,365.51h7.66v11.5h-7.66v-11.5Z"/>
      <path id="path3429" class="cls-20" d="m462.94,346.35h7.66v11.5h-7.66v-11.5Z"/>
      <path id="path3431" class="cls-20" d="m478.27,346.35h7.66v11.5h-7.66v-11.5Z"/>
      <path id="path3433" class="cls-20" d="m462.94,331.02h7.66v11.5h-7.66v-11.5Z"/>
      <path id="path3435" class="cls-20" d="m478.27,331.02h7.66v11.5h-7.66v-11.5Z"/>
      <path id="path3473" class="cls-20" d="m462.94,315.69h7.66v11.5h-7.66v-11.5Z"/>
      <path id="path3475" class="cls-20" d="m478.27,315.69h7.66v11.5h-7.66v-11.5Z"/>
      <path id="path3477" class="cls-20" d="m462.94,300.36h7.66v11.5h-7.66v-11.5Z"/>
      <path id="path3479" class="cls-20" d="m478.27,300.36h7.66v11.5h-7.66v-11.5Z"/>
      <path id="path3481" class="cls-20" d="m462.94,285.03h7.66v11.5h-7.66v-11.5Z"/>
      <path id="path3483" class="cls-20" d="m478.27,285.03h7.66v11.5h-7.66v-11.5Z"/>
      <path id="path3485" class="cls-20" d="m462.94,269.7h7.66v11.5h-7.66v-11.5Z"/>
      <path id="path3487" class="cls-20" d="m478.27,269.7h7.66v11.5h-7.66v-11.5Z"/>
      <path id="path3489" class="cls-20" d="m462.94,254.37h7.66v11.5h-7.66v-11.5Z"/>
      <path id="path3491" class="cls-20" d="m478.27,254.37h7.66v11.5h-7.66v-11.5Z"/>
      <path id="path3493" class="cls-20" d="m462.94,239.04h7.66v11.5h-7.66v-11.5Z"/>
      <path id="path3495" class="cls-20" d="m478.27,239.04h7.66v11.5h-7.66v-11.5Z"/>
      <path id="path3497" class="cls-20" d="m462.94,223.71h7.66v11.5h-7.66v-11.5Z"/>
      <path id="path3499" class="cls-20" d="m478.27,223.71h7.66v11.5h-7.66v-11.5Z"/>
      <path id="path3501" class="cls-20" d="m462.94,208.39h7.66v11.5h-7.66v-11.5Z"/>
      <path id="path3503" class="cls-20" d="m478.27,208.39h7.66v11.5h-7.66v-11.5Z"/>
      <path id="path3505" class="cls-20" d="m462.94,193.06h7.66v11.5h-7.66v-11.5Z"/>
      <path id="path3507" class="cls-20" d="m478.27,193.06h7.66v11.5h-7.66v-11.5Z"/>
      <path id="path3509" class="cls-20" d="m462.94,177.73h7.66v11.5h-7.66v-11.5Z"/>
      <path id="path3511" class="cls-20" d="m478.27,177.73h7.66v11.5h-7.66v-11.5Z"/>
      <path id="path3513" class="cls-20" d="m462.94,162.4h7.66v11.5h-7.66v-11.5Z"/>
      <path id="path3515" class="cls-20" d="m478.27,162.4h7.66v11.5h-7.66v-11.5Z"/>
      <path id="path3529" class="cls-20" d="m545.72,365.51h7.66v11.5h-7.66v-11.5Z"/>
      <path id="path3531" class="cls-20" d="m561.05,365.51h7.66v11.5h-7.66v-11.5Z"/>
      <path id="path3533" class="cls-20" d="m545.72,346.35h7.66v11.5h-7.66v-11.5Z"/>
      <path id="path3535" class="cls-20" d="m561.05,346.35h7.66v11.5h-7.66v-11.5Z"/>
      <path id="path3537" class="cls-20" d="m545.72,331.02h7.66v11.5h-7.66v-11.5Z"/>
      <path id="path3539" class="cls-20" d="m561.05,331.02h7.66v11.5h-7.66v-11.5Z"/>
      <path id="path3541" class="cls-20" d="m545.72,315.69h7.66v11.5h-7.66v-11.5Z"/>
      <path id="path3543" class="cls-20" d="m561.05,315.69h7.66v11.5h-7.66v-11.5Z"/>
      <path id="path3545" class="cls-20" d="m545.72,300.36h7.66v11.5h-7.66v-11.5Z"/>
      <path id="path3547" class="cls-20" d="m561.05,300.36h7.66v11.5h-7.66v-11.5Z"/>
      <path id="path3549" class="cls-20" d="m545.72,285.03h7.66v11.5h-7.66v-11.5Z"/>
      <path id="path3551" class="cls-20" d="m561.05,285.03h7.66v11.5h-7.66v-11.5Z"/>
      <path id="path3553" class="cls-20" d="m545.72,269.7h7.66v11.5h-7.66v-11.5Z"/>
      <path id="path3555" class="cls-20" d="m561.05,269.7h7.66v11.5h-7.66v-11.5Z"/>
      <path id="path3557" class="cls-20" d="m545.72,254.37h7.66v11.5h-7.66v-11.5Z"/>
      <path id="path3559" class="cls-20" d="m561.05,254.37h7.66v11.5h-7.66v-11.5Z"/>
      <path id="path3561" class="cls-20" d="m545.72,239.04h7.66v11.5h-7.66v-11.5Z"/>
      <path id="path3563" class="cls-20" d="m561.05,239.04h7.66v11.5h-7.66v-11.5Z"/>
      <path id="path3565" class="cls-20" d="m545.72,223.71h7.66v11.5h-7.66v-11.5Z"/>
      <path id="path3567" class="cls-20" d="m561.05,223.71h7.66v11.5h-7.66v-11.5Z"/>
      <path id="path3569" class="cls-20" d="m545.72,208.39h7.66v11.5h-7.66v-11.5Z"/>
      <path id="path3571" class="cls-20" d="m561.05,208.39h7.66v11.5h-7.66v-11.5Z"/>
      <path id="path3573" class="cls-20" d="m545.72,193.06h7.66v11.5h-7.66v-11.5Z"/>
      <path id="path3575" class="cls-20" d="m561.05,193.06h7.66v11.5h-7.66v-11.5Z"/>
      <path id="path3577" class="cls-20" d="m545.72,177.73h7.66v11.5h-7.66v-11.5Z"/>
      <path id="path3579" class="cls-20" d="m561.05,177.73h7.66v11.5h-7.66v-11.5Z"/>
      <path id="path3581" class="cls-20" d="m545.72,162.4h7.66v11.5h-7.66v-11.5Z"/>
      <path id="path3583" class="cls-20" d="m561.05,162.4h7.66v11.5h-7.66v-11.5Z"/>
      <path id="path3585" class="cls-20" d="m447.61,365.51h7.66v11.5h-7.66v-11.5Z"/>
      <path id="path3587" class="cls-20" d="m447.61,346.35h7.66v11.5h-7.66v-11.5Z"/>
      <path id="path3589" class="cls-20" d="m447.61,331.02h7.66v11.5h-7.66v-11.5Z"/>
      <path id="path3591" class="cls-20" d="m447.61,315.69h7.66v11.5h-7.66v-11.5Z"/>
      <path id="path3593" class="cls-20" d="m447.61,300.36h7.66v11.5h-7.66v-11.5Z"/>
      <path id="path3595" class="cls-20" d="m447.61,285.03h7.66v11.5h-7.66v-11.5Z"/>
      <path id="path3597" class="cls-20" d="m447.61,269.7h7.66v11.5h-7.66v-11.5Z"/>
      <path id="path3599" class="cls-20" d="m447.61,254.37h7.66v11.5h-7.66v-11.5Z"/>
      <path id="path3601" class="cls-20" d="m447.61,239.04h7.66v11.5h-7.66v-11.5Z"/>
      <path id="path3603" class="cls-20" d="m447.61,223.71h7.66v11.5h-7.66v-11.5Z"/>
      <path id="path3605" class="cls-20" d="m447.61,208.39h7.66v11.5h-7.66v-11.5Z"/>
      <path id="path3607" class="cls-20" d="m447.61,193.06h7.66v11.5h-7.66v-11.5Z"/>
      <path id="path3609" class="cls-20" d="m447.61,177.73h7.66v11.5h-7.66v-11.5Z"/>
      <path id="path3613" class="cls-20" d="m576.38,365.51h7.66v11.5h-7.66v-11.5Z"/>
      <path id="path3615" class="cls-20" d="m576.38,346.35h7.66v11.5h-7.66v-11.5Z"/>
      <path id="path3617" class="cls-20" d="m576.38,331.02h7.66v11.5h-7.66v-11.5Z"/>
      <path id="path3619" class="cls-20" d="m576.38,315.69h7.66v11.5h-7.66v-11.5Z"/>
      <path id="path3621" class="cls-20" d="m576.38,300.36h7.66v11.5h-7.66v-11.5Z"/>
      <path id="path3623" class="cls-20" d="m576.38,285.03h7.66v11.5h-7.66v-11.5Z"/>
      <path id="path3625" class="cls-20" d="m576.38,269.7h7.66v11.5h-7.66v-11.5Z"/>
      <path id="path3627" class="cls-20" d="m576.38,254.37h7.66v11.5h-7.66v-11.5Z"/>
      <path id="path3629" class="cls-20" d="m576.38,239.04h7.66v11.5h-7.66v-11.5Z"/>
      <path id="path3631" class="cls-20" d="m576.38,223.71h7.66v11.5h-7.66v-11.5Z"/>
      <path id="path3633" class="cls-20" d="m576.38,208.39h7.66v11.5h-7.66v-11.5Z"/>
      <path id="path3635" class="cls-20" d="m576.38,193.06h7.66v11.5h-7.66v-11.5Z"/>
      <path id="path3637" class="cls-20" d="m576.38,177.73h7.66v11.5h-7.66v-11.5Z"/>
      <path id="path3657" class="cls-7" d="m447.61,219.88h136.43v3.83h-136.43v-3.83Z"/>
      <path id="path3414" class="cls-13" d="m493.6,219.88h44.45v3.83h-44.45v-3.83Z"/>
      <path id="path3661" class="cls-7" d="m447.61,204.55h136.43v3.83h-136.43v-3.83Z"/>
      <path id="path3416" class="cls-13" d="m493.6,204.55h44.45v3.83h-44.45v-3.83Z"/>
      <path id="path3663" class="cls-7" d="m447.61,189.22h136.43v3.83h-136.43v-3.83Z"/>
      <path id="path3418" class="cls-13" d="m493.6,189.22h44.45v3.83h-44.45v-3.83Z"/>
      <path id="rect3667" class="cls-18" d="m493.6,384.67h45.22v15.33h-45.22v-15.33Z"/>
      <path id="path3670" class="cls-18" d="m545.72,384.67h38.32v15.33h-38.32v-15.33Z"/>
      <path id="path3672" class="cls-18" d="m447.61,384.67h38.32v15.33h-38.32v-15.33Z"/>
      <path id="path3702" class="cls-7" d="m426.92,136.34h137.96v7.66h-137.96v-7.66Z"/>
      <path id="path3674" class="cls-19" d="m470.61,154.73c0-24.97,20.25-45.22,45.22-45.22h0c24.97,0,45.22,20.25,45.22,45.22h-90.44Z"/>
      <path id="path3676" class="cls-20" d="m478.27,154.73c0-20.74,16.81-37.56,37.56-37.56h0c20.74,0,37.56,16.81,37.56,37.56h-75.11Z"/>
      <path id="path3687" class="cls-28" d="m515.83,124.84c-16.51,0-29.89,13.38-29.89,29.89h.77c0-16.09,13.04-29.13,29.13-29.13h0c16.09,0,29.13,13.04,29.13,29.13h.77c0-16.51-13.38-29.89-29.89-29.89h0Z"/>
      <path id="path3692" class="cls-28" d="m515.83,132.5c-12.28,0-22.23,9.95-22.23,22.23h.57c0-11.96,9.7-21.66,21.66-21.66s21.66,9.7,21.66,21.66h.57c0-12.28-9.95-22.23-22.23-22.23h0Z"/>
      <path id="path3680" class="cls-19" d="m515.83,119.06l-1.94,30.3-16.83-25.27,13.47,27.21-27.21-13.47,25.27,16.83-.89.06h16.28l-.89-.06,25.27-16.83-27.21,13.47,13.47-27.21-16.83,25.27-1.94-30.3Z"/>
      <path id="path3696" class="cls-6" d="m571.01,109.51h3.07v45.22h-3.07v-45.22Z"/>
      <path id="path3698" class="cls-2" d="m564.88,112.58h6.13v42.16h-6.13v-42.16Z"/>
      <path id="path3716" class="cls-24" d="m528.09,32.1v24.53h-3.83v-24.53h3.83Z"/>
      <path id="path3704" class="cls-2" d="m503.56,56.63s-33.14,17.9-36.79,45.99h98.11,0c-3.65-28.09-36.79-45.99-36.79-45.99h-24.53Z"/>
      <path id="rect3712" class="cls-24" d="m507.4,32.1v24.53h-3.83v-24.53h3.83Z"/>
      <path id="rect3710" class="cls-24" d="m503.56,52.79h24.53v3.83h-24.53v-3.83Z"/>
      <path id="path3718" class="cls-24" d="m502.03,28.27h27.59v3.83h-27.59v-3.83Z"/>
      <path id="path3725" class="cls-24" d="m515.83,34.4s-5.2.06-8.43,2.3v-4.6h16.86v4.6c-3.23-2.24-8.43-2.3-8.43-2.3Z"/>
      <path id="path3727" class="cls-2" d="m514.29,16.77s-9.82,4.48-10.73,11.5h24.53,0c-.91-7.02-10.73-11.5-10.73-11.5h-3.07Z"/>
      <path id="rect3729" class="cls-24" d="m514.29,0h3.07v16.77h-3.07V0Z"/>
      <path id="path3736" class="cls-20" d="m416.19,177.73h7.66v3.83h-7.66v-3.83Z"/>
      <path id="path3738" class="cls-20" d="m431.52,177.73h7.66v3.83h-7.66v-3.83Z"/>
      <path id="path3740" class="cls-20" d="m416.19,193.06h7.66v3.83h-7.66v-3.83Z"/>
      <path id="path3742" class="cls-20" d="m431.52,193.06h7.66v3.83h-7.66v-3.83Z"/>
      <path id="path3744" class="cls-20" d="m416.19,208.39h7.66v3.83h-7.66v-3.83Z"/>
      <path id="path3746" class="cls-20" d="m431.52,208.39h7.66v3.83h-7.66v-3.83Z"/>
      <path id="path3748" class="cls-20" d="m416.19,223.71h7.66v3.83h-7.66v-3.83Z"/>
      <path id="path3750" class="cls-20" d="m431.52,223.71h7.66v3.83h-7.66v-3.83Z"/>
      <path id="path3752" class="cls-20" d="m416.19,239.04h7.66v3.83h-7.66v-3.83Z"/>
      <path id="path3754" class="cls-20" d="m431.52,239.04h7.66v3.83h-7.66v-3.83Z"/>
      <path id="path3756" class="cls-20" d="m416.19,254.37h7.66v3.83h-7.66v-3.83Z"/>
      <path id="path3758" class="cls-20" d="m431.52,254.37h7.66v3.83h-7.66v-3.83Z"/>
      <path id="path3760" class="cls-20" d="m416.19,269.7h7.66v3.83h-7.66v-3.83Z"/>
      <path id="path3762" class="cls-20" d="m431.52,269.7h7.66v3.83h-7.66v-3.83Z"/>
      <path id="path3764" class="cls-20" d="m416.19,285.03h7.66v3.83h-7.66v-3.83Z"/>
      <path id="path3766" class="cls-20" d="m431.52,285.03h7.66v3.83h-7.66v-3.83Z"/>
      <path id="path3768" class="cls-20" d="m416.19,300.36h7.66v3.83h-7.66v-3.83Z"/>
      <path id="path3770" class="cls-20" d="m431.52,300.36h7.66v3.83h-7.66v-3.83Z"/>
      <path id="path3772" class="cls-20" d="m416.19,315.69h7.66v3.83h-7.66v-3.83Z"/>
      <path id="path3774" class="cls-20" d="m431.52,315.69h7.66v3.83h-7.66v-3.83Z"/>
      <path id="path3776" class="cls-20" d="m416.19,331.02h7.66v3.83h-7.66v-3.83Z"/>
      <path id="path3778" class="cls-20" d="m431.52,331.02h7.66v3.83h-7.66v-3.83Z"/>
      <path id="path3780" class="cls-20" d="m416.19,346.35h7.66v3.83h-7.66v-3.83Z"/>
      <path id="path3782" class="cls-20" d="m431.52,346.35h7.66v3.83h-7.66v-3.83Z"/>
    </g>
    <g id="layer1-1">
      <g id="g4192">
        <path id="path5479" class="cls-10" d="m697.85,98.93l-10.75-25.81h-81.72l-10.75,25.81v236.56l10.75,25.81v38.71h81.72v-38.71l10.75-25.81V98.93Z"/>
        <path id="path4178" class="cls-23" d="m660.22,70.97h2.15v290.32h-2.15V70.97Z"/>
        <path id="path4176" class="cls-23" d="m645.16,70.97h2.15v290.32h-2.15V70.97Z"/>
        <path id="path4174" class="cls-23" d="m630.11,70.97h2.15v290.32h-2.15V70.97Z"/>
        <path id="path4137" class="cls-17" d="m605.38,361.29v38.71h81.72v-38.71h-81.72Z"/>
        <path id="path5449" class="cls-23" d="m616.77,361.29h-1.72v-25.81l8.6,25.81h-6.88Z"/>
        <path id="path5415" class="cls-12" d="m605.38,380.65v19.35h81.72v-19.35h-81.72Z"/>
        <path id="path5413" class="cls-9" d="m605.38,365.59v8.6h81.72v-8.6h-81.72Z"/>
        <path id="rect4139" class="cls-25" d="m603.23,361.29h4.3v38.71h-4.3v-38.71Z"/>
        <path id="path4144" class="cls-25" d="m684.95,361.29h4.3v38.71h-4.3v-38.71Z"/>
        <path id="path4146" class="cls-25" d="m622.58,361.29h2.15v38.71h-2.15v-38.71"/>
        <path id="path4148" class="cls-25" d="m637.63,361.29h2.15v38.71h-2.15v-38.71Z"/>
        <path id="path4150" class="cls-25" d="m652.69,361.29h2.15v38.71h-2.15v-38.71Z"/>
        <path id="path4152" class="cls-25" d="m667.74,361.29h2.15v38.71h-2.15v-38.71Z"/>
        <path id="path5417" class="cls-25" d="m613.33,361.29h3.44v38.71h-3.44v-38.71Z"/>
        <path id="path5419" class="cls-25" d="m675.7,361.29h3.44v38.71h-3.44v-38.71Z"/>
        <path id="path5435" class="cls-23" d="m637.63,361.29h1.08l-7.53-25.81-7.53,25.81h13.98Z"/>
        <path id="path5425" class="cls-25" d="m624.73,361.29l6.45-21.51,6.45,21.51h-12.9Z"/>
        <path id="path5437" class="cls-23" d="m652.69,361.29h1.08l-7.53-25.81-7.53,25.81h13.98Z"/>
        <path id="path5429" class="cls-25" d="m639.79,361.29l6.45-21.51,6.45,21.51h-12.9Z"/>
        <path id="path5439" class="cls-23" d="m667.74,361.29h1.08l-7.53-25.81-7.53,25.81h13.98Z"/>
        <path id="path5431" class="cls-25" d="m654.84,361.29l6.45-21.51,6.45,21.51h-12.9Z"/>
        <path id="path5441" class="cls-23" d="m622.58,70.97h2.15v290.32h-2.15V70.97Z"/>
        <path id="path5443" class="cls-23" d="m667.74,70.97h2.15v290.32h-2.15V70.97Z"/>
        <path id="path5445" class="cls-23" d="m637.63,70.97h2.15v290.32h-2.15V70.97Z"/>
        <path id="path5447" class="cls-23" d="m652.69,70.97h2.15v290.32h-2.15V70.97Z"/>
        <path id="path5457" class="cls-25" d="m616.13,361.29v-19.35l6.45,19.35h-6.45Z"/>
        <path id="path5459" class="cls-23" d="m675.7,361.29h1.72v-25.81l-8.6,25.81h6.88Z"/>
        <path id="path5461" class="cls-25" d="m676.34,361.29v-19.35l-6.45,19.35h6.45Z"/>
        <path id="path5463" class="cls-23" d="m594.62,335.48l10.75,25.81h-2.15l-10.75-25.81h2.15Z"/>
        <path id="path5467" class="cls-23" d="m612.9,70.97h2.15v290.32h-2.15V70.97Z"/>
        <path id="path5469" class="cls-23" d="m677.42,70.97h2.15v290.32h-2.15V70.97Z"/>
        <path id="path5471" class="cls-23" d="m697.85,335.48l-10.75,25.81h2.15l10.75-25.81h-2.15Z"/>
        <path id="path5481" class="cls-23" d="m594.62,98.93l10.75-25.81h-2.15l-10.75,25.81h2.15Z"/>
        <path id="path5483" class="cls-23" d="m697.85,98.93l-10.75-25.81h2.15l10.75,25.81h-2.15Z"/>
        <path id="path4168" class="cls-23" d="m594.62,335.48h-2.15V98.93h2.15v236.56Z"/>
        <path id="path4172" class="cls-23" d="m700,335.48h-2.15V98.93h2.15v236.56Z"/>
        <path id="path4180" class="cls-23" d="m603.87,70.97h2.15v290.32h-2.15V70.97Z"/>
        <path id="path4182" class="cls-23" d="m686.45,70.97h2.15v290.32h-2.15V70.97Z"/>
        <path id="path4184" class="cls-23" d="m607.74,361.29h-1.72v-25.81l8.6,25.81h-6.88Z"/>
        <path id="path4186" class="cls-25" d="m607.1,361.29v-19.35l6.45,19.35h-6.45Z"/>
        <path id="path4188" class="cls-23" d="m684.73,361.29h1.72v-25.81l-8.6,25.81h6.88Z"/>
        <path id="path4190" class="cls-25" d="m685.38,361.29v-19.35l-6.45,19.35h6.45Z"/>
      </g>
    </g>
    <g id="g5179">
      <g id="g4358">
        <path id="rect3757" class="cls-16" d="m0,208.39h127.74v191.61H0v-191.61Z"/>
        <path id="rect3759" class="cls-16" d="m3.19,112.58h121.36v95.81H3.19v-95.81Z"/>
        <path id="path4045" class="cls-16" d="m7.98,103h111.78v9.58H7.98v-9.58Z"/>
        <path id="path3765" class="cls-15" d="m12.77,112.58h102.19v287.42H12.77V112.58Z"/>
        <path id="path3767" class="cls-5" d="m44.71,118.96h38.32v89.42h-38.32v-89.42Z"/>
        <path id="rect3769" class="cls-20" d="m15.97,118.96h5.11v12.77h-5.11v-12.77Z"/>
        <path id="path3773" class="cls-20" d="m25.55,118.96h5.11v12.77h-5.11v-12.77Z"/>
        <path id="path3775" class="cls-20" d="m35.13,118.96h5.11v12.77h-5.11v-12.77Z"/>
        <path id="path3777" class="cls-20" d="m15.97,195.61h5.11v12.77h-5.11v-12.77Z"/>
        <path id="path3779" class="cls-20" d="m25.55,195.61h5.11v12.77h-5.11v-12.77Z"/>
        <path id="path3781" class="cls-20" d="m35.13,195.61h5.11v12.77h-5.11v-12.77Z"/>
        <path id="path3789" class="cls-20" d="m15.97,157.29h5.11v12.77h-5.11v-12.77Z"/>
        <path id="path3791" class="cls-20" d="m25.55,157.29h5.11v12.77h-5.11v-12.77Z"/>
        <path id="path3793" class="cls-20" d="m35.13,157.29h5.11v12.77h-5.11v-12.77Z"/>
        <path id="path3795" class="cls-20" d="m15.97,138.13h5.11v12.77h-5.11v-12.77Z"/>
        <path id="path3797" class="cls-20" d="m25.55,138.13h5.11v12.77h-5.11v-12.77Z"/>
        <path id="path3799" class="cls-20" d="m35.13,138.13h5.11v12.77h-5.11v-12.77Z"/>
        <path id="path3807" class="cls-20" d="m15.97,176.45h5.11v12.77h-5.11v-12.77Z"/>
        <path id="path3809" class="cls-20" d="m25.55,176.45h5.11v12.77h-5.11v-12.77Z"/>
        <path id="path3811" class="cls-20" d="m35.13,176.45h5.11v12.77h-5.11v-12.77Z"/>
        <path id="path3813" class="cls-20" d="m87.5,118.96h5.11v12.77h-5.11v-12.77Z"/>
        <path id="path3815" class="cls-20" d="m97.08,118.96h5.11v12.77h-5.11v-12.77Z"/>
        <path id="path3817" class="cls-20" d="m106.67,118.96h5.11v12.77h-5.11v-12.77Z"/>
        <path id="path3819" class="cls-20" d="m87.5,195.61h5.11v12.77h-5.11v-12.77Z"/>
        <path id="path3821" class="cls-20" d="m97.08,195.61h5.11v12.77h-5.11v-12.77Z"/>
        <path id="path3823" class="cls-20" d="m106.67,195.61h5.11v12.77h-5.11v-12.77Z"/>
        <path id="path3825" class="cls-20" d="m87.5,157.29h5.11v12.77h-5.11v-12.77Z"/>
        <path id="path3827" class="cls-20" d="m97.08,157.29h5.11v12.77h-5.11v-12.77Z"/>
        <path id="path3829" class="cls-20" d="m106.67,157.29h5.11v12.77h-5.11v-12.77Z"/>
        <path id="path3832" class="cls-20" d="m87.5,138.13h5.11v12.77h-5.11v-12.77Z"/>
        <path id="path3834" class="cls-20" d="m97.08,138.13h5.11v12.77h-5.11v-12.77Z"/>
        <path id="path3836" class="cls-20" d="m106.67,138.13h5.11v12.77h-5.11v-12.77Z"/>
        <path id="path3838" class="cls-20" d="m87.5,176.45h5.11v12.77h-5.11v-12.77Z"/>
        <path id="path3840" class="cls-20" d="m97.08,176.45h5.11v12.77h-5.11v-12.77Z"/>
        <path id="path3842" class="cls-20" d="m106.67,176.45h5.11v12.77h-5.11v-12.77Z"/>
        <path id="path3844" class="cls-20" d="m15.97,214.77h5.11v12.77h-5.11v-12.77Z"/>
        <path id="path3846" class="cls-20" d="m25.55,214.77h5.11v12.77h-5.11v-12.77Z"/>
        <path id="path3848" class="cls-20" d="m35.13,214.77h5.11v12.77h-5.11v-12.77Z"/>
        <path id="path3850" class="cls-20" d="m87.5,214.77h5.11v12.77h-5.11v-12.77Z"/>
        <path id="path3852" class="cls-20" d="m97.08,214.77h5.11v12.77h-5.11v-12.77Z"/>
        <path id="path3854" class="cls-20" d="m106.67,214.77h5.11v12.77h-5.11v-12.77Z"/>
        <path id="path3856" class="cls-20" d="m15.97,233.93h5.11v12.77h-5.11v-12.77Z"/>
        <path id="path3858" class="cls-20" d="m25.55,233.93h5.11v12.77h-5.11v-12.77Z"/>
        <path id="path3860" class="cls-20" d="m35.13,233.93h5.11v12.77h-5.11v-12.77Z"/>
        <path id="path3862" class="cls-20" d="m87.5,233.93h5.11v12.77h-5.11v-12.77Z"/>
        <path id="path3864" class="cls-20" d="m97.08,233.93h5.11v12.77h-5.11v-12.77Z"/>
        <path id="path3866" class="cls-20" d="m106.67,233.93h5.11v12.77h-5.11v-12.77Z"/>
        <path id="path3868" class="cls-20" d="m15.97,253.1h5.11v12.77h-5.11v-12.77Z"/>
        <path id="path3870" class="cls-20" d="m25.55,253.1h5.11v12.77h-5.11v-12.77Z"/>
        <path id="path3872" class="cls-20" d="m35.13,253.1h5.11v12.77h-5.11v-12.77Z"/>
        <path id="path3874" class="cls-20" d="m87.5,253.1h5.11v12.77h-5.11v-12.77Z"/>
        <path id="path3876" class="cls-20" d="m97.08,253.1h5.11v12.77h-5.11v-12.77Z"/>
        <path id="path3878" class="cls-20" d="m106.67,253.1h5.11v12.77h-5.11v-12.77Z"/>
        <path id="path3880" class="cls-20" d="m15.97,272.26h5.11v12.77h-5.11v-12.77Z"/>
        <path id="path3882" class="cls-20" d="m25.55,272.26h5.11v12.77h-5.11v-12.77Z"/>
        <path id="path3884" class="cls-20" d="m35.13,272.26h5.11v12.77h-5.11v-12.77Z"/>
        <path id="path3886" class="cls-20" d="m87.5,272.26h5.11v12.77h-5.11v-12.77Z"/>
        <path id="path3888" class="cls-20" d="m97.08,272.26h5.11v12.77h-5.11v-12.77Z"/>
        <path id="path3890" class="cls-20" d="m106.67,272.26h5.11v12.77h-5.11v-12.77Z"/>
        <path id="path3892" class="cls-20" d="m15.97,291.42h5.11v12.77h-5.11v-12.77Z"/>
        <path id="path3894" class="cls-20" d="m25.55,291.42h5.11v12.77h-5.11v-12.77Z"/>
        <path id="path3896" class="cls-20" d="m35.13,291.42h5.11v12.77h-5.11v-12.77Z"/>
        <path id="path3898" class="cls-20" d="m87.5,291.42h5.11v12.77h-5.11v-12.77Z"/>
        <path id="path3900" class="cls-20" d="m97.08,291.42h5.11v12.77h-5.11v-12.77Z"/>
        <path id="path3902" class="cls-20" d="m106.67,291.42h5.11v12.77h-5.11v-12.77Z"/>
        <path id="path3904" class="cls-20" d="m15.97,310.58h5.11v12.77h-5.11v-12.77Z"/>
        <path id="path3906" class="cls-20" d="m25.55,310.58h5.11v12.77h-5.11v-12.77Z"/>
        <path id="path3908" class="cls-20" d="m35.13,310.58h5.11v12.77h-5.11v-12.77Z"/>
        <path id="path3910" class="cls-20" d="m87.5,310.58h5.11v12.77h-5.11v-12.77Z"/>
        <path id="path3912" class="cls-20" d="m97.08,310.58h5.11v12.77h-5.11v-12.77Z"/>
        <path id="path3914" class="cls-20" d="m106.67,310.58h5.11v12.77h-5.11v-12.77Z"/>
        <path id="path3916" class="cls-20" d="m15.97,329.74h5.11v12.77h-5.11v-12.77Z"/>
        <path id="path3918" class="cls-20" d="m25.55,329.74h5.11v12.77h-5.11v-12.77Z"/>
        <path id="path3920" class="cls-20" d="m35.13,329.74h5.11v12.77h-5.11v-12.77Z"/>
        <path id="path3922" class="cls-20" d="m87.5,329.74h5.11v12.77h-5.11v-12.77Z"/>
        <path id="path3924" class="cls-20" d="m97.08,329.74h5.11v12.77h-5.11v-12.77Z"/>
        <path id="path3926" class="cls-20" d="m106.67,329.74h5.11v12.77h-5.11v-12.77Z"/>
        <path id="path3928" class="cls-20" d="m15.97,348.9h5.11v12.77h-5.11v-12.77Z"/>
        <path id="path3930" class="cls-20" d="m25.55,348.9h5.11v12.77h-5.11v-12.77Z"/>
        <path id="path3932" class="cls-20" d="m35.13,348.9h5.11v12.77h-5.11v-12.77Z"/>
        <path id="path3934" class="cls-20" d="m87.5,348.9h5.11v12.77h-5.11v-12.77Z"/>
        <path id="path3936" class="cls-20" d="m97.08,348.9h5.11v12.77h-5.11v-12.77Z"/>
        <path id="path3938" class="cls-20" d="m106.67,348.9h5.11v12.77h-5.11v-12.77Z"/>
        <path id="path3952" class="cls-20" d="m44.71,214.77h5.11v12.77h-5.11v-12.77Z"/>
        <path id="path3954" class="cls-20" d="m77.92,214.77h5.11v12.77h-5.11v-12.77Z"/>
        <path id="path3956" class="cls-20" d="m55.57,214.77h5.11v12.77h-5.11v-12.77Z"/>
        <path id="path3958" class="cls-20" d="m67.07,214.77h5.11v12.77h-5.11v-12.77Z"/>
        <path id="path3960" class="cls-20" d="m44.71,233.93h5.11v12.77h-5.11v-12.77Z"/>
        <path id="path3962" class="cls-20" d="m77.92,233.93h5.11v12.77h-5.11v-12.77Z"/>
        <path id="path3964" class="cls-20" d="m55.57,233.93h5.11v12.77h-5.11v-12.77Z"/>
        <path id="path3966" class="cls-20" d="m67.07,233.93h5.11v12.77h-5.11v-12.77Z"/>
        <path id="path3968" class="cls-20" d="m44.71,253.1h5.11v12.77h-5.11v-12.77Z"/>
        <path id="path3970" class="cls-20" d="m77.92,253.1h5.11v12.77h-5.11v-12.77Z"/>
        <path id="path3972" class="cls-20" d="m55.57,253.1h5.11v12.77h-5.11v-12.77Z"/>
        <path id="path3974" class="cls-20" d="m67.07,253.1h5.11v12.77h-5.11v-12.77Z"/>
        <path id="path3976" class="cls-20" d="m44.71,272.26h5.11v12.77h-5.11v-12.77Z"/>
        <path id="path3978" class="cls-20" d="m77.92,272.26h5.11v12.77h-5.11v-12.77Z"/>
        <path id="path3980" class="cls-20" d="m55.57,272.26h5.11v12.77h-5.11v-12.77Z"/>
        <path id="path3982" class="cls-20" d="m67.07,272.26h5.11v12.77h-5.11v-12.77Z"/>
        <path id="path3984" class="cls-20" d="m44.71,291.42h5.11v12.77h-5.11v-12.77Z"/>
        <path id="path3986" class="cls-20" d="m77.92,291.42h5.11v12.77h-5.11v-12.77Z"/>
        <path id="path3988" class="cls-20" d="m55.57,291.42h5.11v12.77h-5.11v-12.77Z"/>
        <path id="path3990" class="cls-20" d="m67.07,291.42h5.11v12.77h-5.11v-12.77Z"/>
        <path id="path3992" class="cls-20" d="m44.71,310.58h5.11v12.77h-5.11v-12.77Z"/>
        <path id="path3994" class="cls-20" d="m77.92,310.58h5.11v12.77h-5.11v-12.77Z"/>
        <path id="path3996" class="cls-20" d="m55.57,310.58h5.11v12.77h-5.11v-12.77Z"/>
        <path id="path3998" class="cls-20" d="m67.07,310.58h5.11v12.77h-5.11v-12.77Z"/>
        <path id="path4000" class="cls-20" d="m44.71,329.74h5.11v12.77h-5.11v-12.77Z"/>
        <path id="path4002" class="cls-20" d="m77.92,329.74h5.11v12.77h-5.11v-12.77Z"/>
        <path id="path4004" class="cls-20" d="m55.57,329.74h5.11v12.77h-5.11v-12.77Z"/>
        <path id="path4006" class="cls-20" d="m67.07,329.74h5.11v12.77h-5.11v-12.77Z"/>
        <path id="path4008" class="cls-20" d="m44.71,348.9h5.11v12.77h-5.11v-12.77Z"/>
        <path id="path4010" class="cls-20" d="m77.92,348.9h5.11v12.77h-5.11v-12.77Z"/>
        <path id="path4012" class="cls-20" d="m55.57,348.9h5.11v12.77h-5.11v-12.77Z"/>
        <path id="path4014" class="cls-20" d="m67.07,348.9h5.11v12.77h-5.11v-12.77Z"/>
        <path id="rect4016" class="cls-18" d="m44.71,368.06h38.32v31.94h-38.32v-31.94Z"/>
        <path id="path4019" class="cls-31" d="m15.97,368.06h5.11v12.77h-5.11v-12.77Z"/>
        <path id="path4021" class="cls-20" d="m25.55,368.06h5.11v12.77h-5.11v-12.77Z"/>
        <path id="path4023" class="cls-31" d="m35.13,368.06h5.11v12.77h-5.11v-12.77Z"/>
        <path id="path4025" class="cls-31" d="m15.97,382.12h5.11v17.88h-5.11v-17.88Z"/>
        <path id="path4027" class="cls-20" d="m25.55,382.12h5.11v17.88h-5.11v-17.88Z"/>
        <path id="path4029" class="cls-31" d="m35.13,382.12h5.11v17.88h-5.11v-17.88Z"/>
        <path id="path4031" class="cls-31" d="m87.5,368.06h5.11v12.77h-5.11v-12.77Z"/>
        <path id="path4033" class="cls-20" d="m97.08,368.06h5.11v12.77h-5.11v-12.77Z"/>
        <path id="path4035" class="cls-31" d="m106.67,368.06h5.11v12.77h-5.11v-12.77Z"/>
        <path id="path4037" class="cls-31" d="m87.5,382.12h5.11v17.88h-5.11v-17.88Z"/>
        <path id="path4039" class="cls-20" d="m97.08,382.12h5.11v17.88h-5.11v-17.88Z"/>
        <path id="path4041" class="cls-31" d="m106.67,382.12h5.11v17.88h-5.11v-17.88Z"/>
        <path id="path4043" class="cls-15" d="m12.77,103h102.19v9.58H12.77v-9.58Z"/>
        <path id="path4047" class="cls-11" d="m114.97,103H12.77l51.1-41.52,51.1,41.52Z"/>
        <path id="path4049" class="cls-3" d="m32.43,87.03l-19.65,15.97h102.19l-19.65-15.97h-62.89Z"/>
        <path id="path4318" class="cls-20" d="m5.75,118.96h5.11v12.77h-5.11v-12.77Z"/>
        <path id="path4320" class="cls-20" d="m5.75,195.61h5.11v12.77h-5.11v-12.77Z"/>
        <path id="path4322" class="cls-20" d="m5.75,157.29h5.11v12.77h-5.11v-12.77Z"/>
        <path id="path4324" class="cls-20" d="m5.75,138.13h5.11v12.77h-5.11v-12.77Z"/>
        <path id="path4326" class="cls-20" d="m5.75,176.45h5.11v12.77h-5.11v-12.77Z"/>
        <path id="path4328" class="cls-20" d="m4.47,214.77h5.11v12.77h-5.11v-12.77Z"/>
        <path id="path4330" class="cls-20" d="m4.47,233.93h5.11v12.77h-5.11v-12.77Z"/>
        <path id="path4332" class="cls-20" d="m4.47,253.1h5.11v12.77h-5.11v-12.77Z"/>
        <path id="path4334" class="cls-20" d="m4.47,272.26h5.11v12.77h-5.11v-12.77Z"/>
        <path id="path4336" class="cls-20" d="m4.47,291.42h5.11v12.77h-5.11v-12.77Z"/>
        <path id="path4338" class="cls-20" d="m116.89,118.96h5.11v12.77h-5.11v-12.77Z"/>
        <path id="path4340" class="cls-20" d="m116.89,195.61h5.11v12.77h-5.11v-12.77Z"/>
        <path id="path4342" class="cls-20" d="m116.89,157.29h5.11v12.77h-5.11v-12.77Z"/>
        <path id="path4344" class="cls-20" d="m116.89,138.13h5.11v12.77h-5.11v-12.77Z"/>
        <path id="path4346" class="cls-20" d="m116.89,176.45h5.11v12.77h-5.11v-12.77Z"/>
        <path id="path4348" class="cls-20" d="m118.16,214.77h5.11v12.77h-5.11v-12.77Z"/>
        <path id="path4350" class="cls-20" d="m118.16,233.93h5.11v12.77h-5.11v-12.77Z"/>
        <path id="path4352" class="cls-20" d="m118.16,253.1h5.11v12.77h-5.11v-12.77Z"/>
        <path id="path4354" class="cls-20" d="m118.16,272.26h5.11v12.77h-5.11v-12.77Z"/>
        <path id="path4356" class="cls-20" d="m118.16,291.42h5.11v12.77h-5.11v-12.77Z"/>
      </g>
      <g id="g4804">
        <path id="rect4511" class="cls-27" d="m159.68,16.77h95.81v383.23h-95.81V16.77Z"/>
        <path id="path4514" class="cls-31" d="m178.84,35.93h57.48v364.07h-57.48V35.93Z"/>
        <path id="path4012-2" class="cls-20" d="m204.39,61.48h6.39v12.77h-6.39v-12.77Z"/>
        <path id="path4531" class="cls-20" d="m204.39,42.32h6.39v12.77h-6.39v-12.77Z"/>
        <path id="path4533" class="cls-20" d="m204.39,80.64h6.39v12.77h-6.39v-12.77Z"/>
        <path id="path4535" class="cls-20" d="m204.39,99.8h6.39v12.77h-6.39v-12.77Z"/>
        <path id="path4537" class="cls-20" d="m204.39,118.96h6.39v12.77h-6.39v-12.77Z"/>
        <path id="path4539" class="cls-20" d="m204.39,157.29h6.39v12.77h-6.39v-12.77Z"/>
        <path id="path4541" class="cls-20" d="m204.39,138.13h6.39v12.77h-6.39v-12.77Z"/>
        <path id="path4543" class="cls-20" d="m204.39,176.45h6.39v12.77h-6.39v-12.77Z"/>
        <path id="path4545" class="cls-20" d="m204.39,195.61h6.39v12.77h-6.39v-12.77Z"/>
        <path id="path4547" class="cls-20" d="m204.39,214.77h6.39v12.77h-6.39v-12.77Z"/>
        <path id="path4549" class="cls-20" d="m204.39,195.61h6.39v12.77h-6.39v-12.77Z"/>
        <path id="path4551" class="cls-20" d="m204.39,214.77h6.39v12.77h-6.39v-12.77Z"/>
        <path id="path4553" class="cls-31" d="m159.68,233.93h95.81v166.07h-95.81v-166.07Z"/>
        <path id="rect4555" class="cls-31" d="m191.61,10.38h12.77v389.62h-12.77V10.38Z"/>
        <path id="path4558" class="cls-31" d="m210.78,10.38h12.77v389.62h-12.77V10.38Z"/>
        <path id="path4607" class="cls-29" d="m132.85,273.53h149.46v1.92h-149.46v-1.92Z"/>
        <path id="path4560" class="cls-20" d="m188.42,42.32h3.19v12.77h-3.19v-12.77Z"/>
        <path id="path4562" class="cls-20" d="m188.42,61.48h3.19v12.77h-3.19v-12.77Z"/>
        <path id="path4564" class="cls-20" d="m188.42,80.64h3.19v12.77h-3.19v-12.77Z"/>
        <path id="path4566" class="cls-20" d="m188.42,99.8h3.19v12.77h-3.19v-12.77Z"/>
        <path id="path4568" class="cls-20" d="m188.42,118.96h3.19v12.77h-3.19v-12.77Z"/>
        <path id="path4570" class="cls-20" d="m188.42,138.13h3.19v12.77h-3.19v-12.77Z"/>
        <path id="path4572" class="cls-20" d="m188.42,157.29h3.19v12.77h-3.19v-12.77Z"/>
        <path id="path4574" class="cls-20" d="m188.42,176.45h3.19v12.77h-3.19v-12.77Z"/>
        <path id="path4576" class="cls-20" d="m188.42,195.61h3.19v12.77h-3.19v-12.77Z"/>
        <path id="path4578" class="cls-20" d="m188.42,214.77h3.19v12.77h-3.19v-12.77Z"/>
        <path id="path4582" class="cls-20" d="m223.55,42.32h3.19v12.77h-3.19v-12.77Z"/>
        <path id="path4584" class="cls-20" d="m223.55,61.48h3.19v12.77h-3.19v-12.77Z"/>
        <path id="path4586" class="cls-20" d="m223.55,80.64h3.19v12.77h-3.19v-12.77Z"/>
        <path id="path4588" class="cls-20" d="m223.55,99.8h3.19v12.77h-3.19v-12.77Z"/>
        <path id="path4590" class="cls-20" d="m223.55,118.96h3.19v12.77h-3.19v-12.77Z"/>
        <path id="path4592" class="cls-20" d="m223.55,138.13h3.19v12.77h-3.19v-12.77Z"/>
        <path id="path4594" class="cls-20" d="m223.55,157.29h3.19v12.77h-3.19v-12.77Z"/>
        <path id="path4596" class="cls-20" d="m223.55,176.45h3.19v12.77h-3.19v-12.77Z"/>
        <path id="path4598" class="cls-20" d="m223.55,195.61h3.19v12.77h-3.19v-12.77Z"/>
        <path id="path4600" class="cls-20" d="m223.55,214.77h3.19v12.77h-3.19v-12.77Z"/>
        <path id="rect4602" class="cls-29" d="m134.13,285.03h146.9v114.97h-146.9v-114.97Z"/>
        <path id="path4605" class="cls-29" d="m135.41,275.45h144.35v9.58h-144.35v-9.58Z"/>
        <path id="rect4609" class="cls-20" d="m140.52,304.19h6.39v31.94h-6.39v-31.94Z"/>
        <path id="path4612" class="cls-20" d="m140.52,342.52h6.39v31.94h-6.39v-31.94Z"/>
        <path id="path4614" class="cls-20" d="m156.49,304.19h6.39v31.94h-6.39v-31.94Z"/>
        <path id="path4616" class="cls-20" d="m156.49,342.52h6.39v31.94h-6.39v-31.94Z"/>
        <path id="path4618" class="cls-20" d="m172.45,304.19h6.39v31.94h-6.39v-31.94Z"/>
        <path id="path4620" class="cls-20" d="m172.45,342.52h6.39v31.94h-6.39v-31.94Z"/>
        <path id="path4622" class="cls-20" d="m188.42,304.19h6.39v31.94h-6.39v-31.94Z"/>
        <path id="path4624" class="cls-20" d="m188.42,342.52h6.39v31.94h-6.39v-31.94Z"/>
        <path id="path4626" class="cls-20" d="m204.39,304.19h6.39v31.94h-6.39v-31.94Z"/>
        <path id="path4628" class="cls-20" d="m204.39,342.52h6.39v31.94h-6.39v-31.94Z"/>
        <path id="path4630" class="cls-20" d="m220.36,304.19h6.39v31.94h-6.39v-31.94Z"/>
        <path id="path4632" class="cls-20" d="m220.36,342.52h6.39v31.94h-6.39v-31.94Z"/>
        <path id="path4634" class="cls-20" d="m236.33,304.19h6.39v31.94h-6.39v-31.94Z"/>
        <path id="path4636" class="cls-20" d="m236.33,342.52h6.39v31.94h-6.39v-31.94Z"/>
        <path id="path4638" class="cls-20" d="m252.29,304.19h6.39v31.94h-6.39v-31.94Z"/>
        <path id="path4640" class="cls-20" d="m252.29,342.52h6.39v31.94h-6.39v-31.94Z"/>
        <path id="path4642" class="cls-20" d="m268.26,304.19h6.39v31.94h-6.39v-31.94Z"/>
        <path id="path4644" class="cls-20" d="m268.26,342.52h6.39v31.94h-6.39v-31.94Z"/>
        <path id="path4646" class="cls-26" d="m142.43,276.73h2.55v7.03h-2.55v-7.03Z"/>
        <path id="path4648" class="cls-26" d="m158.4,276.73h2.55v7.03h-2.55v-7.03Z"/>
        <path id="path4650" class="cls-26" d="m174.37,276.73h2.55v7.03h-2.55v-7.03Z"/>
        <path id="path4652" class="cls-26" d="m190.34,276.73h2.55v7.03h-2.55v-7.03Z"/>
        <path id="path4654" class="cls-26" d="m206.31,276.73h2.55v7.03h-2.55v-7.03Z"/>
        <path id="path4656" class="cls-26" d="m222.27,276.73h2.55v7.03h-2.55v-7.03Z"/>
        <path id="path4658" class="cls-26" d="m238.24,276.73h2.55v7.03h-2.55v-7.03Z"/>
        <path id="path4660" class="cls-26" d="m254.21,276.73h2.55v7.03h-2.55v-7.03Z"/>
        <path id="path4662" class="cls-26" d="m270.18,276.73h2.55v7.03h-2.55v-7.03Z"/>
        <path id="path4666" class="cls-18" d="m185.23,380.84h44.71v19.16h-44.71v-19.16Z"/>
        <path id="path4664" class="cls-33" d="m132.85,284.39h149.46v1.6l-1.28,4.15h-146.9l-1.28-4.15v-1.6Z"/>
      </g>
      <g id="g4875">
        <path id="path4877" class="cls-16" d="m287.42,208.39h127.74v191.61h-127.74v-191.61Z"/>
        <path id="path4879" class="cls-16" d="m290.62,112.58h121.36v95.81h-121.36v-95.81Z"/>
        <path id="path4881" class="cls-16" d="m295.41,103h111.78v9.58h-111.78v-9.58Z"/>
        <path id="path4883" class="cls-15" d="m300.2,112.58h102.19v287.42h-102.19V112.58Z"/>
        <path id="path4885" class="cls-5" d="m332.13,118.96h38.32v89.42h-38.32v-89.42Z"/>
        <path id="path4887" class="cls-20" d="m303.39,118.96h5.11v12.77h-5.11v-12.77Z"/>
        <path id="path4889" class="cls-20" d="m312.97,118.96h5.11v12.77h-5.11v-12.77Z"/>
        <path id="path4891" class="cls-20" d="m322.55,118.96h5.11v12.77h-5.11v-12.77Z"/>
        <path id="path4893" class="cls-20" d="m303.39,195.61h5.11v12.77h-5.11v-12.77Z"/>
        <path id="path4895" class="cls-20" d="m312.97,195.61h5.11v12.77h-5.11v-12.77Z"/>
        <path id="path4897" class="cls-20" d="m322.55,195.61h5.11v12.77h-5.11v-12.77Z"/>
        <path id="path4899" class="cls-20" d="m303.39,157.29h5.11v12.77h-5.11v-12.77Z"/>
        <path id="path4901" class="cls-20" d="m312.97,157.29h5.11v12.77h-5.11v-12.77Z"/>
        <path id="path4903" class="cls-20" d="m322.55,157.29h5.11v12.77h-5.11v-12.77Z"/>
        <path id="path4905" class="cls-20" d="m303.39,138.13h5.11v12.77h-5.11v-12.77Z"/>
        <path id="path4907" class="cls-20" d="m312.97,138.13h5.11v12.77h-5.11v-12.77Z"/>
        <path id="path4909" class="cls-20" d="m322.55,138.13h5.11v12.77h-5.11v-12.77Z"/>
        <path id="path4911" class="cls-20" d="m303.39,176.45h5.11v12.77h-5.11v-12.77Z"/>
        <path id="path4913" class="cls-20" d="m312.97,176.45h5.11v12.77h-5.11v-12.77Z"/>
        <path id="path4915" class="cls-20" d="m322.55,176.45h5.11v12.77h-5.11v-12.77Z"/>
        <path id="path4917" class="cls-20" d="m374.93,118.96h5.11v12.77h-5.11v-12.77Z"/>
        <path id="path4919" class="cls-20" d="m384.51,118.96h5.11v12.77h-5.11v-12.77Z"/>
        <path id="path4921" class="cls-20" d="m394.09,118.96h5.11v12.77h-5.11v-12.77Z"/>
        <path id="path4923" class="cls-20" d="m374.93,195.61h5.11v12.77h-5.11v-12.77Z"/>
        <path id="path4925" class="cls-20" d="m384.51,195.61h5.11v12.77h-5.11v-12.77Z"/>
        <path id="path4927" class="cls-20" d="m394.09,195.61h5.11v12.77h-5.11v-12.77Z"/>
        <path id="path4929" class="cls-20" d="m374.93,157.29h5.11v12.77h-5.11v-12.77Z"/>
        <path id="path4931" class="cls-20" d="m384.51,157.29h5.11v12.77h-5.11v-12.77Z"/>
        <path id="path4933" class="cls-20" d="m394.09,157.29h5.11v12.77h-5.11v-12.77Z"/>
        <path id="path4935" class="cls-20" d="m374.93,138.13h5.11v12.77h-5.11v-12.77Z"/>
        <path id="path4937" class="cls-20" d="m384.51,138.13h5.11v12.77h-5.11v-12.77Z"/>
        <path id="path4939" class="cls-20" d="m394.09,138.13h5.11v12.77h-5.11v-12.77Z"/>
        <path id="path4941" class="cls-20" d="m374.93,176.45h5.11v12.77h-5.11v-12.77Z"/>
        <path id="path4943" class="cls-20" d="m384.51,176.45h5.11v12.77h-5.11v-12.77Z"/>
        <path id="path4945" class="cls-20" d="m394.09,176.45h5.11v12.77h-5.11v-12.77Z"/>
        <path id="path4947" class="cls-20" d="m303.39,214.77h5.11v12.77h-5.11v-12.77Z"/>
        <path id="path4949" class="cls-20" d="m312.97,214.77h5.11v12.77h-5.11v-12.77Z"/>
        <path id="path4951" class="cls-20" d="m322.55,214.77h5.11v12.77h-5.11v-12.77Z"/>
        <path id="path4953" class="cls-20" d="m374.93,214.77h5.11v12.77h-5.11v-12.77Z"/>
        <path id="path4955" class="cls-20" d="m384.51,214.77h5.11v12.77h-5.11v-12.77Z"/>
        <path id="path4957" class="cls-20" d="m394.09,214.77h5.11v12.77h-5.11v-12.77Z"/>
        <path id="path4959" class="cls-20" d="m303.39,233.93h5.11v12.77h-5.11v-12.77Z"/>
        <path id="path4961" class="cls-20" d="m312.97,233.93h5.11v12.77h-5.11v-12.77Z"/>
        <path id="path4963" class="cls-20" d="m322.55,233.93h5.11v12.77h-5.11v-12.77Z"/>
        <path id="path4965" class="cls-20" d="m374.93,233.93h5.11v12.77h-5.11v-12.77Z"/>
        <path id="path4967" class="cls-20" d="m384.51,233.93h5.11v12.77h-5.11v-12.77Z"/>
        <path id="path4969" class="cls-20" d="m394.09,233.93h5.11v12.77h-5.11v-12.77Z"/>
        <path id="path4971" class="cls-20" d="m303.39,253.1h5.11v12.77h-5.11v-12.77Z"/>
        <path id="path4973" class="cls-20" d="m312.97,253.1h5.11v12.77h-5.11v-12.77Z"/>
        <path id="path4975" class="cls-20" d="m322.55,253.1h5.11v12.77h-5.11v-12.77Z"/>
        <path id="path4977" class="cls-20" d="m374.93,253.1h5.11v12.77h-5.11v-12.77Z"/>
        <path id="path4979" class="cls-20" d="m384.51,253.1h5.11v12.77h-5.11v-12.77Z"/>
        <path id="path4981" class="cls-20" d="m394.09,253.1h5.11v12.77h-5.11v-12.77Z"/>
        <path id="path4983" class="cls-20" d="m303.39,272.26h5.11v12.77h-5.11v-12.77Z"/>
        <path id="path4985" class="cls-20" d="m312.97,272.26h5.11v12.77h-5.11v-12.77Z"/>
        <path id="path4987" class="cls-20" d="m322.55,272.26h5.11v12.77h-5.11v-12.77Z"/>
        <path id="path4989" class="cls-20" d="m374.93,272.26h5.11v12.77h-5.11v-12.77Z"/>
        <path id="path4991" class="cls-20" d="m384.51,272.26h5.11v12.77h-5.11v-12.77Z"/>
        <path id="path4993" class="cls-20" d="m394.09,272.26h5.11v12.77h-5.11v-12.77Z"/>
        <path id="path4995" class="cls-20" d="m303.39,291.42h5.11v12.77h-5.11v-12.77Z"/>
        <path id="path4997" class="cls-20" d="m312.97,291.42h5.11v12.77h-5.11v-12.77Z"/>
        <path id="path4999" class="cls-20" d="m322.55,291.42h5.11v12.77h-5.11v-12.77Z"/>
        <path id="path5001" class="cls-20" d="m374.93,291.42h5.11v12.77h-5.11v-12.77Z"/>
        <path id="path5003" class="cls-20" d="m384.51,291.42h5.11v12.77h-5.11v-12.77Z"/>
        <path id="path5005" class="cls-20" d="m394.09,291.42h5.11v12.77h-5.11v-12.77Z"/>
        <path id="path5007" class="cls-20" d="m303.39,310.58h5.11v12.77h-5.11v-12.77Z"/>
        <path id="path5009" class="cls-20" d="m312.97,310.58h5.11v12.77h-5.11v-12.77Z"/>
        <path id="path5011" class="cls-20" d="m322.55,310.58h5.11v12.77h-5.11v-12.77Z"/>
        <path id="path5013" class="cls-20" d="m374.93,310.58h5.11v12.77h-5.11v-12.77Z"/>
        <path id="path5015" class="cls-20" d="m384.51,310.58h5.11v12.77h-5.11v-12.77Z"/>
        <path id="path5017" class="cls-20" d="m394.09,310.58h5.11v12.77h-5.11v-12.77Z"/>
        <path id="path5019" class="cls-20" d="m303.39,329.74h5.11v12.77h-5.11v-12.77Z"/>
        <path id="path5021" class="cls-20" d="m312.97,329.74h5.11v12.77h-5.11v-12.77Z"/>
        <path id="path5023" class="cls-20" d="m322.55,329.74h5.11v12.77h-5.11v-12.77Z"/>
        <path id="path5025" class="cls-20" d="m374.93,329.74h5.11v12.77h-5.11v-12.77Z"/>
        <path id="path5027" class="cls-20" d="m384.51,329.74h5.11v12.77h-5.11v-12.77Z"/>
        <path id="path5029" class="cls-20" d="m394.09,329.74h5.11v12.77h-5.11v-12.77Z"/>
        <path id="path5031" class="cls-20" d="m303.39,348.9h5.11v12.77h-5.11v-12.77Z"/>
        <path id="path5033" class="cls-20" d="m312.97,348.9h5.11v12.77h-5.11v-12.77Z"/>
        <path id="path5035" class="cls-20" d="m322.55,348.9h5.11v12.77h-5.11v-12.77Z"/>
        <path id="path5037" class="cls-20" d="m374.93,348.9h5.11v12.77h-5.11v-12.77Z"/>
        <path id="path5039" class="cls-20" d="m384.51,348.9h5.11v12.77h-5.11v-12.77Z"/>
        <path id="path5041" class="cls-20" d="m394.09,348.9h5.11v12.77h-5.11v-12.77Z"/>
        <path id="path5043" class="cls-20" d="m332.13,214.77h5.11v12.77h-5.11v-12.77Z"/>
        <path id="path5045" class="cls-20" d="m365.35,214.77h5.11v12.77h-5.11v-12.77Z"/>
        <path id="path5047" class="cls-20" d="m342.99,214.77h5.11v12.77h-5.11v-12.77Z"/>
        <path id="path5049" class="cls-20" d="m354.49,214.77h5.11v12.77h-5.11v-12.77Z"/>
        <path id="path5051" class="cls-20" d="m332.13,233.93h5.11v12.77h-5.11v-12.77Z"/>
        <path id="path5053" class="cls-20" d="m365.35,233.93h5.11v12.77h-5.11v-12.77Z"/>
        <path id="path5055" class="cls-20" d="m342.99,233.93h5.11v12.77h-5.11v-12.77Z"/>
        <path id="path5057" class="cls-20" d="m354.49,233.93h5.11v12.77h-5.11v-12.77Z"/>
        <path id="path5059" class="cls-20" d="m332.13,253.1h5.11v12.77h-5.11v-12.77Z"/>
        <path id="path5061" class="cls-20" d="m365.35,253.1h5.11v12.77h-5.11v-12.77Z"/>
        <path id="path5063" class="cls-20" d="m342.99,253.1h5.11v12.77h-5.11v-12.77Z"/>
        <path id="path5065" class="cls-20" d="m354.49,253.1h5.11v12.77h-5.11v-12.77Z"/>
        <path id="path5067" class="cls-20" d="m332.13,272.26h5.11v12.77h-5.11v-12.77Z"/>
        <path id="path5069" class="cls-20" d="m365.35,272.26h5.11v12.77h-5.11v-12.77Z"/>
        <path id="path5071" class="cls-20" d="m342.99,272.26h5.11v12.77h-5.11v-12.77Z"/>
        <path id="path5073" class="cls-20" d="m354.49,272.26h5.11v12.77h-5.11v-12.77Z"/>
        <path id="path5075" class="cls-20" d="m332.13,291.42h5.11v12.77h-5.11v-12.77Z"/>
        <path id="path5077" class="cls-20" d="m365.35,291.42h5.11v12.77h-5.11v-12.77Z"/>
        <path id="path5079" class="cls-20" d="m342.99,291.42h5.11v12.77h-5.11v-12.77Z"/>
        <path id="path5081" class="cls-20" d="m354.49,291.42h5.11v12.77h-5.11v-12.77Z"/>
        <path id="path5083" class="cls-20" d="m332.13,310.58h5.11v12.77h-5.11v-12.77Z"/>
        <path id="path5085" class="cls-20" d="m365.35,310.58h5.11v12.77h-5.11v-12.77Z"/>
        <path id="path5087" class="cls-20" d="m342.99,310.58h5.11v12.77h-5.11v-12.77Z"/>
        <path id="path5089" class="cls-20" d="m354.49,310.58h5.11v12.77h-5.11v-12.77Z"/>
        <path id="path5091" class="cls-20" d="m332.13,329.74h5.11v12.77h-5.11v-12.77Z"/>
        <path id="path5093" class="cls-20" d="m365.35,329.74h5.11v12.77h-5.11v-12.77Z"/>
        <path id="path5095" class="cls-20" d="m342.99,329.74h5.11v12.77h-5.11v-12.77Z"/>
        <path id="path5097" class="cls-20" d="m354.49,329.74h5.11v12.77h-5.11v-12.77Z"/>
        <path id="path5099" class="cls-20" d="m332.13,348.9h5.11v12.77h-5.11v-12.77Z"/>
        <path id="path5101" class="cls-20" d="m365.35,348.9h5.11v12.77h-5.11v-12.77Z"/>
        <path id="path5103" class="cls-20" d="m342.99,348.9h5.11v12.77h-5.11v-12.77Z"/>
        <path id="path5105" class="cls-20" d="m354.49,348.9h5.11v12.77h-5.11v-12.77Z"/>
        <path id="path5107" class="cls-18" d="m332.13,368.06h38.32v31.94h-38.32v-31.94Z"/>
        <path id="path5109" class="cls-31" d="m303.39,368.06h5.11v12.77h-5.11v-12.77Z"/>
        <path id="path5111" class="cls-20" d="m312.97,368.06h5.11v12.77h-5.11v-12.77Z"/>
        <path id="path5113" class="cls-31" d="m322.55,368.06h5.11v12.77h-5.11v-12.77Z"/>
        <path id="path5115" class="cls-31" d="m303.39,382.12h5.11v17.88h-5.11v-17.88Z"/>
        <path id="path5117" class="cls-20" d="m312.97,382.12h5.11v17.88h-5.11v-17.88Z"/>
        <path id="path5119" class="cls-31" d="m322.55,382.12h5.11v17.88h-5.11v-17.88Z"/>
        <path id="path5121" class="cls-31" d="m374.93,368.06h5.11v12.77h-5.11v-12.77Z"/>
        <path id="path5123" class="cls-20" d="m384.51,368.06h5.11v12.77h-5.11v-12.77Z"/>
        <path id="path5125" class="cls-31" d="m394.09,368.06h5.11v12.77h-5.11v-12.77Z"/>
        <path id="path5127" class="cls-31" d="m374.93,382.12h5.11v17.88h-5.11v-17.88Z"/>
        <path id="path5129" class="cls-20" d="m384.51,382.12h5.11v17.88h-5.11v-17.88Z"/>
        <path id="path5131" class="cls-31" d="m394.09,382.12h5.11v17.88h-5.11v-17.88Z"/>
        <path id="path5133" class="cls-15" d="m300.2,103h102.19v9.58h-102.19v-9.58Z"/>
        <path id="path5135" class="cls-11" d="m402.39,103h-102.19l51.1-41.52,51.1,41.52Z"/>
        <path id="path5137" class="cls-3" d="m319.85,87.03l-19.65,15.97h102.19l-19.65-15.97h-62.89Z"/>
        <path id="path5139" class="cls-20" d="m293.17,118.96h5.11v12.77h-5.11v-12.77Z"/>
        <path id="path5141" class="cls-20" d="m293.17,195.61h5.11v12.77h-5.11v-12.77Z"/>
        <path id="path5143" class="cls-20" d="m293.17,157.29h5.11v12.77h-5.11v-12.77Z"/>
        <path id="path5145" class="cls-20" d="m293.17,138.13h5.11v12.77h-5.11v-12.77Z"/>
        <path id="path5147" class="cls-20" d="m293.17,176.45h5.11v12.77h-5.11v-12.77Z"/>
        <path id="path5149" class="cls-20" d="m291.89,214.77h5.11v12.77h-5.11v-12.77Z"/>
        <path id="path5151" class="cls-20" d="m291.89,233.93h5.11v12.77h-5.11v-12.77Z"/>
        <path id="path5153" class="cls-20" d="m291.89,253.1h5.11v12.77h-5.11v-12.77Z"/>
        <path id="path5155" class="cls-20" d="m291.89,272.26h5.11v12.77h-5.11v-12.77Z"/>
        <path id="path5157" class="cls-20" d="m291.89,291.42h5.11v12.77h-5.11v-12.77Z"/>
        <path id="path5159" class="cls-20" d="m404.31,118.96h5.11v12.77h-5.11v-12.77Z"/>
        <path id="path5161" class="cls-20" d="m404.31,195.61h5.11v12.77h-5.11v-12.77Z"/>
        <path id="path5163" class="cls-20" d="m404.31,157.29h5.11v12.77h-5.11v-12.77Z"/>
        <path id="path5165" class="cls-20" d="m404.31,138.13h5.11v12.77h-5.11v-12.77Z"/>
        <path id="path5167" class="cls-20" d="m404.31,176.45h5.11v12.77h-5.11v-12.77Z"/>
        <path id="path5169" class="cls-20" d="m405.58,214.77h5.11v12.77h-5.11v-12.77Z"/>
        <path id="path5171" class="cls-20" d="m405.58,233.93h5.11v12.77h-5.11v-12.77Z"/>
        <path id="path5173" class="cls-20" d="m405.58,253.1h5.11v12.77h-5.11v-12.77Z"/>
        <path id="path5175" class="cls-20" d="m405.58,272.26h5.11v12.77h-5.11v-12.77Z"/>
        <path id="path5177" class="cls-20" d="m405.58,291.42h5.11v12.77h-5.11v-12.77Z"/>
      </g>
    </g>
    <g id="g3423">
      <path id="rect3338" class="cls-14" d="m383.23,144.51h95.81v255.49h-95.81v-255.49Z"/>
      <path id="path3341" class="cls-5" d="m393.45,135.57h75.37v264.43h-75.37V135.57Z"/>
      <path id="path3343" class="cls-8" d="m399.84,141.96h62.59v258.04h-62.59V141.96Z"/>
      <path id="path3345" class="cls-14" d="m406.22,139.4h49.82v260.6h-49.82V139.4Z"/>
      <path id="path3347" class="cls-17" d="m412.61,136.85h37.05v263.15h-37.05V136.85Z"/>
      <path id="path3349" class="cls-5" d="m423.47,170.06h15.33v6.39h-15.33v-6.39Z"/>
      <path id="path3351" class="cls-5" d="m418.36,170.06h25.55v6.39h-25.55v-6.39Z"/>
      <path id="path3353" class="cls-5" d="m418.36,195.61h25.55v6.39h-25.55v-6.39Z"/>
      <path id="path3355" class="cls-5" d="m418.36,182.84h25.55v6.39h-25.55v-6.39Z"/>
      <path id="path3357" class="cls-5" d="m423.47,208.39h15.33v6.39h-15.33v-6.39Z"/>
      <path id="path3359" class="cls-5" d="m418.36,208.39h25.55v6.39h-25.55v-6.39Z"/>
      <path id="path3361" class="cls-5" d="m418.36,233.93h25.55v6.39h-25.55v-6.39Z"/>
      <path id="path3363" class="cls-5" d="m418.36,221.16h25.55v6.39h-25.55v-6.39Z"/>
      <path id="path3365" class="cls-5" d="m423.47,246.71h15.33v6.39h-15.33v-6.39Z"/>
      <path id="path3367" class="cls-5" d="m418.36,246.71h25.55v6.39h-25.55v-6.39Z"/>
      <path id="path3369" class="cls-5" d="m418.36,272.26h25.55v6.39h-25.55v-6.39Z"/>
      <path id="path3371" class="cls-5" d="m418.36,259.48h25.55v6.39h-25.55v-6.39Z"/>
      <path id="path3373" class="cls-5" d="m423.47,285.03h15.33v6.39h-15.33v-6.39Z"/>
      <path id="path3375" class="cls-5" d="m418.36,285.03h25.55v6.39h-25.55v-6.39Z"/>
      <path id="path3377" class="cls-5" d="m418.36,310.58h25.55v6.39h-25.55v-6.39Z"/>
      <path id="path3379" class="cls-5" d="m418.36,297.81h25.55v6.39h-25.55v-6.39Z"/>
      <path id="path3381" class="cls-5" d="m423.47,323.35h15.33v6.39h-15.33v-6.39Z"/>
      <path id="path3383" class="cls-5" d="m418.36,323.35h25.55v6.39h-25.55v-6.39Z"/>
      <path id="path3413" class="cls-5" d="m418.36,342.52h25.55v20.44h-25.55v-20.44Z"/>
      <path id="path3415" class="cls-1" d="m415.8,375.73h30.66v24.27h-30.66v-24.27Z"/>
      <path id="path3417" class="cls-17" d="m430.49,170.06h1.28v159.68h-1.28v-159.68Z"/>
      <path id="path3419" class="cls-17" d="m429.22,342.52h3.83v20.44h-3.83v-20.44Z"/>
      <path id="path3421" class="cls-17" d="m418.36,354.65v-3.83h25.55v3.83h-25.55Z"/>
    </g>
  </g>
  <text class="cls-32" transform="translate(3.19 14.21)"><tspan class="cls-30" x="0" y="0">C</tspan><tspan class="cls-22" x="7.83" y="0">C0 public domain li</tspan><tspan class="cls-21" x="120.16" y="0">c</tspan><tspan class="cls-22" x="126.35" y="0">ense</tspan></text>
</svg>