<?xml version="1.0" encoding="utf-8" standalone="no"?>
<!DOCTYPE svg PUBLIC "-//W3C//DTD SVG 1.1//EN"
  "http://www.w3.org/Graphics/SVG/1.1/DTD/svg11.dtd">
<svg xmlns:xlink="http://www.w3.org/1999/xlink" width="460.8pt" height="345.6pt" viewBox="0 0 460.8 345.6" xmlns="http://www.w3.org/2000/svg" version="1.1">
 <metadata>
  <rdf:RDF xmlns:dc="http://purl.org/dc/elements/1.1/" xmlns:cc="http://creativecommons.org/ns#" xmlns:rdf="http://www.w3.org/1999/02/22-rdf-syntax-ns#">
   <cc:Work>
    <dc:type rdf:resource="http://purl.org/dc/dcmitype/StillImage"/>
    <dc:date>2024-09-22T21:20:26.911384</dc:date>
    <dc:format>image/svg+xml</dc:format>
    <dc:creator>
     <cc:Agent>
      <dc:title>Matplotlib v3.5.2, https://matplotlib.org/</dc:title>
     </cc:Agent>
    </dc:creator>
   </cc:Work>
  </rdf:RDF>
 </metadata>
 <defs>
  <style type="text/css">*{stroke-linejoin: round; stroke-linecap: butt}</style>
 </defs>
 <g id="figure_1">
  <g id="patch_1">
   <path d="M 0 345.6 
L 460.8 345.6 
L 460.8 0 
L 0 0 
z
" style="fill: #ffffff"/>
  </g>
  <g id="axes_1">
   <g id="patch_2">
    <path d="M 0 345.6 
L 460.8 345.6 
L 460.8 0 
L 0 0 
z
" style="fill: #ffffff"/>
   </g>
   <g id="PolyCollection_1">
    <defs>
     <path id="mcb543abbe1" d="M 20.945455 -15.709091 
L 20.945455 -15.709091 
L 23.082746 -23.153759 
L 25.220037 -30.598426 
L 27.357328 -38.043094 
L 29.49462 -45.487761 
L 31.631911 -52.932429 
L 33.769202 -60.377097 
L 35.906494 -67.821764 
L 38.043785 -75.266432 
L 40.181076 -82.7111 
L 42.318367 -90.155767 
L 44.455659 -97.600435 
L 46.59295 -105.045102 
L 48.730241 -112.48977 
L 50.867532 -119.934438 
L 53.004824 -127.379105 
L 55.142115 -134.823773 
L 57.279406 -142.268441 
L 59.416698 -149.713108 
L 61.553989 -157.157776 
L 63.69128 -164.602443 
L 65.828571 -172.047111 
L 67.965863 -179.491779 
L 70.103154 -186.936446 
L 72.240445 -194.381114 
L 74.377737 -194.381114 
L 76.515028 -186.936446 
L 78.652319 -179.491779 
L 80.78961 -172.047111 
L 82.926902 -164.602443 
L 85.064193 -157.157776 
L 87.201484 -149.713108 
L 89.338776 -142.268441 
L 91.476067 -134.823773 
L 93.613358 -127.379105 
L 95.750649 -119.934438 
L 97.887941 -112.48977 
L 100.025232 -105.045102 
L 102.162523 -97.600435 
L 104.299814 -90.155767 
L 106.437106 -82.7111 
L 108.574397 -75.266432 
L 110.711688 -67.821764 
L 112.84898 -60.377097 
L 114.986271 -52.932429 
L 117.123562 -45.487761 
L 119.260853 -38.043094 
L 121.398145 -30.598426 
L 123.535436 -23.153759 
L 125.672727 -15.709091 
L 125.672727 -15.709091 
L 125.672727 -15.709091 
L 123.535436 -15.709091 
L 121.398145 -15.709091 
L 119.260853 -15.709091 
L 117.123562 -15.709091 
L 114.986271 -15.709091 
L 112.84898 -15.709091 
L 110.711688 -15.709091 
L 108.574397 -15.709091 
L 106.437106 -15.709091 
L 104.299814 -15.709091 
L 102.162523 -15.709091 
L 100.025232 -15.709091 
L 97.887941 -15.709091 
L 95.750649 -15.709091 
L 93.613358 -15.709091 
L 91.476067 -15.709091 
L 89.338776 -15.709091 
L 87.201484 -15.709091 
L 85.064193 -15.709091 
L 82.926902 -15.709091 
L 80.78961 -15.709091 
L 78.652319 -15.709091 
L 76.515028 -15.709091 
L 74.377737 -15.709091 
L 72.240445 -15.709091 
L 70.103154 -15.709091 
L 67.965863 -15.709091 
L 65.828571 -15.709091 
L 63.69128 -15.709091 
L 61.553989 -15.709091 
L 59.416698 -15.709091 
L 57.279406 -15.709091 
L 55.142115 -15.709091 
L 53.004824 -15.709091 
L 50.867532 -15.709091 
L 48.730241 -15.709091 
L 46.59295 -15.709091 
L 44.455659 -15.709091 
L 42.318367 -15.709091 
L 40.181076 -15.709091 
L 38.043785 -15.709091 
L 35.906494 -15.709091 
L 33.769202 -15.709091 
L 31.631911 -15.709091 
L 29.49462 -15.709091 
L 27.357328 -15.709091 
L 25.220037 -15.709091 
L 23.082746 -15.709091 
L 20.945455 -15.709091 
z
" style="stroke: #008000; stroke-opacity: 0.2"/>
    </defs>
    <g clip-path="url(#pbeeb2fb15a)">
     <use xlink:href="#mcb543abbe1" x="0" y="345.6" style="fill: #008000; fill-opacity: 0.2; stroke: #008000; stroke-opacity: 0.2"/>
    </g>
   </g>
   <g id="PolyCollection_2">
    <defs>
     <path id="m8c3c85fb15" d="M 73.309091 -15.709091 
L 73.309091 -15.709091 
L 75.446382 -25.069826 
L 77.583673 -34.43056 
L 79.720965 -43.791295 
L 81.858256 -53.152029 
L 83.995547 -62.512764 
L 86.132839 -71.873499 
L 88.27013 -81.234233 
L 90.407421 -90.594968 
L 92.544712 -99.955702 
L 94.682004 -109.316437 
L 96.819295 -118.677172 
L 98.956586 -128.037906 
L 101.093878 -137.398641 
L 103.231169 -146.759375 
L 105.36846 -156.12011 
L 107.505751 -165.480845 
L 109.643043 -174.841579 
L 111.780334 -184.202314 
L 113.917625 -193.563048 
L 116.054917 -202.923783 
L 118.192208 -212.284518 
L 120.329499 -221.645252 
L 122.46679 -231.005987 
L 124.604082 -240.366721 
L 126.741373 -240.366721 
L 128.878664 -231.005987 
L 131.015955 -221.645252 
L 133.153247 -212.284518 
L 135.290538 -202.923783 
L 137.427829 -193.563048 
L 139.565121 -184.202314 
L 141.702412 -174.841579 
L 143.839703 -165.480845 
L 145.976994 -156.12011 
L 148.114286 -146.759375 
L 150.251577 -137.398641 
L 152.388868 -128.037906 
L 154.52616 -118.677172 
L 156.663451 -109.316437 
L 158.800742 -99.955702 
L 160.938033 -90.594968 
L 163.075325 -81.234233 
L 165.212616 -71.873499 
L 167.349907 -62.512764 
L 169.487199 -53.152029 
L 171.62449 -43.791295 
L 173.761781 -34.43056 
L 175.899072 -25.069826 
L 178.036364 -15.709091 
L 178.036364 -15.709091 
L 178.036364 -15.709091 
L 175.899072 -15.709091 
L 173.761781 -15.709091 
L 171.62449 -15.709091 
L 169.487199 -15.709091 
L 167.349907 -15.709091 
L 165.212616 -15.709091 
L 163.075325 -15.709091 
L 160.938033 -15.709091 
L 158.800742 -15.709091 
L 156.663451 -15.709091 
L 154.52616 -15.709091 
L 152.388868 -15.709091 
L 150.251577 -15.709091 
L 148.114286 -15.709091 
L 145.976994 -15.709091 
L 143.839703 -15.709091 
L 141.702412 -15.709091 
L 139.565121 -15.709091 
L 137.427829 -15.709091 
L 135.290538 -15.709091 
L 133.153247 -15.709091 
L 131.015955 -15.709091 
L 128.878664 -15.709091 
L 126.741373 -15.709091 
L 124.604082 -15.709091 
L 122.46679 -15.709091 
L 120.329499 -15.709091 
L 118.192208 -15.709091 
L 116.054917 -15.709091 
L 113.917625 -15.709091 
L 111.780334 -15.709091 
L 109.643043 -15.709091 
L 107.505751 -15.709091 
L 105.36846 -15.709091 
L 103.231169 -15.709091 
L 101.093878 -15.709091 
L 98.956586 -15.709091 
L 96.819295 -15.709091 
L 94.682004 -15.709091 
L 92.544712 -15.709091 
L 90.407421 -15.709091 
L 88.27013 -15.709091 
L 86.132839 -15.709091 
L 83.995547 -15.709091 
L 81.858256 -15.709091 
L 79.720965 -15.709091 
L 77.583673 -15.709091 
L 75.446382 -15.709091 
L 73.309091 -15.709091 
z
" style="stroke: #008000; stroke-opacity: 0.2"/>
    </defs>
    <g clip-path="url(#pbeeb2fb15a)">
     <use xlink:href="#m8c3c85fb15" x="0" y="345.6" style="fill: #008000; fill-opacity: 0.2; stroke: #008000; stroke-opacity: 0.2"/>
    </g>
   </g>
   <g id="PolyCollection_3">
    <defs>
     <path id="m398d8f4460" d="M 125.672727 -15.709091 
L 125.672727 -15.709091 
L 127.810019 -26.190653 
L 129.94731 -36.672215 
L 132.084601 -47.153777 
L 134.221892 -57.635339 
L 136.359184 -68.116901 
L 138.496475 -78.598462 
L 140.633766 -89.080024 
L 142.771058 -99.561586 
L 144.908349 -110.043148 
L 147.04564 -120.52471 
L 149.182931 -131.006272 
L 151.320223 -141.487834 
L 153.457514 -151.969396 
L 155.594805 -162.450958 
L 157.732096 -172.93252 
L 159.869388 -183.414082 
L 162.006679 -193.895644 
L 164.14397 -204.377206 
L 166.281262 -214.858768 
L 168.418553 -225.34033 
L 170.555844 -235.821891 
L 172.693135 -246.303453 
L 174.830427 -256.785015 
L 176.967718 -267.266577 
L 179.105009 -267.266577 
L 181.242301 -256.785015 
L 183.379592 -246.303453 
L 185.516883 -235.821891 
L 187.654174 -225.34033 
L 189.791466 -214.858768 
L 191.928757 -204.377206 
L 194.066048 -193.895644 
L 196.20334 -183.414082 
L 198.340631 -172.93252 
L 200.477922 -162.450958 
L 202.615213 -151.969396 
L 204.752505 -141.487834 
L 206.889796 -131.006272 
L 209.027087 -120.52471 
L 211.164378 -110.043148 
L 213.30167 -99.561586 
L 215.438961 -89.080024 
L 217.576252 -78.598462 
L 219.713544 -68.116901 
L 221.850835 -57.635339 
L 223.988126 -47.153777 
L 226.125417 -36.672215 
L 228.262709 -26.190653 
L 230.4 -15.709091 
L 230.4 -15.709091 
L 230.4 -15.709091 
L 228.262709 -15.709091 
L 226.125417 -15.709091 
L 223.988126 -15.709091 
L 221.850835 -15.709091 
L 219.713544 -15.709091 
L 217.576252 -15.709091 
L 215.438961 -15.709091 
L 213.30167 -15.709091 
L 211.164378 -15.709091 
L 209.027087 -15.709091 
L 206.889796 -15.709091 
L 204.752505 -15.709091 
L 202.615213 -15.709091 
L 200.477922 -15.709091 
L 198.340631 -15.709091 
L 196.20334 -15.709091 
L 194.066048 -15.709091 
L 191.928757 -15.709091 
L 189.791466 -15.709091 
L 187.654174 -15.709091 
L 185.516883 -15.709091 
L 183.379592 -15.709091 
L 181.242301 -15.709091 
L 179.105009 -15.709091 
L 176.967718 -15.709091 
L 174.830427 -15.709091 
L 172.693135 -15.709091 
L 170.555844 -15.709091 
L 168.418553 -15.709091 
L 166.281262 -15.709091 
L 164.14397 -15.709091 
L 162.006679 -15.709091 
L 159.869388 -15.709091 
L 157.732096 -15.709091 
L 155.594805 -15.709091 
L 153.457514 -15.709091 
L 151.320223 -15.709091 
L 149.182931 -15.709091 
L 147.04564 -15.709091 
L 144.908349 -15.709091 
L 142.771058 -15.709091 
L 140.633766 -15.709091 
L 138.496475 -15.709091 
L 136.359184 -15.709091 
L 134.221892 -15.709091 
L 132.084601 -15.709091 
L 129.94731 -15.709091 
L 127.810019 -15.709091 
L 125.672727 -15.709091 
z
" style="stroke: #008000; stroke-opacity: 0.2"/>
    </defs>
    <g clip-path="url(#pbeeb2fb15a)">
     <use xlink:href="#m398d8f4460" x="0" y="345.6" style="fill: #008000; fill-opacity: 0.2; stroke: #008000; stroke-opacity: 0.2"/>
    </g>
   </g>
   <g id="PolyCollection_4">
    <defs>
     <path id="mea24635181" d="M 178.036364 -15.709091 
L 178.036364 -15.709091 
L 180.173655 -26.985892 
L 182.310946 -38.262694 
L 184.448237 -49.539496 
L 186.585529 -60.816297 
L 188.72282 -72.093099 
L 190.860111 -83.3699 
L 192.997403 -94.646702 
L 195.134694 -105.923504 
L 197.271985 -117.200305 
L 199.409276 -128.477107 
L 201.546568 -139.753908 
L 203.683859 -151.03071 
L 205.82115 -162.307511 
L 207.958442 -173.584313 
L 210.095733 -184.861115 
L 212.233024 -196.137916 
L 214.370315 -207.414718 
L 216.507607 -218.691519 
L 218.644898 -229.968321 
L 220.782189 -241.245122 
L 222.919481 -252.521924 
L 225.056772 -263.798726 
L 227.194063 -275.075527 
L 229.331354 -286.352329 
L 231.468646 -286.352329 
L 233.605937 -275.075527 
L 235.743228 -263.798726 
L 237.880519 -252.521924 
L 240.017811 -241.245122 
L 242.155102 -229.968321 
L 244.292393 -218.691519 
L 246.429685 -207.414718 
L 248.566976 -196.137916 
L 250.704267 -184.861115 
L 252.841558 -173.584313 
L 254.97885 -162.307511 
L 257.116141 -151.03071 
L 259.253432 -139.753908 
L 261.390724 -128.477107 
L 263.528015 -117.200305 
L 265.665306 -105.923504 
L 267.802597 -94.646702 
L 269.939889 -83.3699 
L 272.07718 -72.093099 
L 274.214471 -60.816297 
L 276.351763 -49.539496 
L 278.489054 -38.262694 
L 280.626345 -26.985892 
L 282.763636 -15.709091 
L 282.763636 -15.709091 
L 282.763636 -15.709091 
L 280.626345 -15.709091 
L 278.489054 -15.709091 
L 276.351763 -15.709091 
L 274.214471 -15.709091 
L 272.07718 -15.709091 
L 269.939889 -15.709091 
L 267.802597 -15.709091 
L 265.665306 -15.709091 
L 263.528015 -15.709091 
L 261.390724 -15.709091 
L 259.253432 -15.709091 
L 257.116141 -15.709091 
L 254.97885 -15.709091 
L 252.841558 -15.709091 
L 250.704267 -15.709091 
L 248.566976 -15.709091 
L 246.429685 -15.709091 
L 244.292393 -15.709091 
L 242.155102 -15.709091 
L 240.017811 -15.709091 
L 237.880519 -15.709091 
L 235.743228 -15.709091 
L 233.605937 -15.709091 
L 231.468646 -15.709091 
L 229.331354 -15.709091 
L 227.194063 -15.709091 
L 225.056772 -15.709091 
L 222.919481 -15.709091 
L 220.782189 -15.709091 
L 218.644898 -15.709091 
L 216.507607 -15.709091 
L 214.370315 -15.709091 
L 212.233024 -15.709091 
L 210.095733 -15.709091 
L 207.958442 -15.709091 
L 205.82115 -15.709091 
L 203.683859 -15.709091 
L 201.546568 -15.709091 
L 199.409276 -15.709091 
L 197.271985 -15.709091 
L 195.134694 -15.709091 
L 192.997403 -15.709091 
L 190.860111 -15.709091 
L 188.72282 -15.709091 
L 186.585529 -15.709091 
L 184.448237 -15.709091 
L 182.310946 -15.709091 
L 180.173655 -15.709091 
L 178.036364 -15.709091 
z
" style="stroke: #008000; stroke-opacity: 0.2"/>
    </defs>
    <g clip-path="url(#pbeeb2fb15a)">
     <use xlink:href="#mea24635181" x="0" y="345.6" style="fill: #008000; fill-opacity: 0.2; stroke: #008000; stroke-opacity: 0.2"/>
    </g>
   </g>
   <g id="PolyCollection_5">
    <defs>
     <path id="m779ffcece6" d="M 230.4 -15.709091 
L 230.4 -15.709091 
L 232.537291 -27.602728 
L 234.674583 -39.496366 
L 236.811874 -51.390003 
L 238.949165 -63.28364 
L 241.086456 -75.177278 
L 243.223748 -87.070915 
L 245.361039 -98.964552 
L 247.49833 -110.85819 
L 249.635622 -122.751827 
L 251.772913 -134.645465 
L 253.910204 -146.539102 
L 256.047495 -158.432739 
L 258.184787 -170.326377 
L 260.322078 -182.220014 
L 262.459369 -194.113651 
L 264.59666 -206.007289 
L 266.733952 -217.900926 
L 268.871243 -229.794564 
L 271.008534 -241.688201 
L 273.145826 -253.581838 
L 275.283117 -265.475476 
L 277.420408 -277.369113 
L 279.557699 -289.26275 
L 281.694991 -301.156388 
L 283.832282 -301.156388 
L 285.969573 -289.26275 
L 288.106865 -277.369113 
L 290.244156 -265.475476 
L 292.381447 -253.581838 
L 294.518738 -241.688201 
L 296.65603 -229.794564 
L 298.793321 -217.900926 
L 300.930612 -206.007289 
L 303.067904 -194.113651 
L 305.205195 -182.220014 
L 307.342486 -170.326377 
L 309.479777 -158.432739 
L 311.617069 -146.539102 
L 313.75436 -134.645465 
L 315.891651 -122.751827 
L 318.028942 -110.85819 
L 320.166234 -98.964552 
L 322.303525 -87.070915 
L 324.440816 -75.177278 
L 326.578108 -63.28364 
L 328.715399 -51.390003 
L 330.85269 -39.496366 
L 332.989981 -27.602728 
L 335.127273 -15.709091 
L 335.127273 -15.709091 
L 335.127273 -15.709091 
L 332.989981 -15.709091 
L 330.85269 -15.709091 
L 328.715399 -15.709091 
L 326.578108 -15.709091 
L 324.440816 -15.709091 
L 322.303525 -15.709091 
L 320.166234 -15.709091 
L 318.028942 -15.709091 
L 315.891651 -15.709091 
L 313.75436 -15.709091 
L 311.617069 -15.709091 
L 309.479777 -15.709091 
L 307.342486 -15.709091 
L 305.205195 -15.709091 
L 303.067904 -15.709091 
L 300.930612 -15.709091 
L 298.793321 -15.709091 
L 296.65603 -15.709091 
L 294.518738 -15.709091 
L 292.381447 -15.709091 
L 290.244156 -15.709091 
L 288.106865 -15.709091 
L 285.969573 -15.709091 
L 283.832282 -15.709091 
L 281.694991 -15.709091 
L 279.557699 -15.709091 
L 277.420408 -15.709091 
L 275.283117 -15.709091 
L 273.145826 -15.709091 
L 271.008534 -15.709091 
L 268.871243 -15.709091 
L 266.733952 -15.709091 
L 264.59666 -15.709091 
L 262.459369 -15.709091 
L 260.322078 -15.709091 
L 258.184787 -15.709091 
L 256.047495 -15.709091 
L 253.910204 -15.709091 
L 251.772913 -15.709091 
L 249.635622 -15.709091 
L 247.49833 -15.709091 
L 245.361039 -15.709091 
L 243.223748 -15.709091 
L 241.086456 -15.709091 
L 238.949165 -15.709091 
L 236.811874 -15.709091 
L 234.674583 -15.709091 
L 232.537291 -15.709091 
L 230.4 -15.709091 
z
" style="stroke: #008000; stroke-opacity: 0.2"/>
    </defs>
    <g clip-path="url(#pbeeb2fb15a)">
     <use xlink:href="#m779ffcece6" x="0" y="345.6" style="fill: #008000; fill-opacity: 0.2; stroke: #008000; stroke-opacity: 0.2"/>
    </g>
   </g>
   <g id="PolyCollection_6">
    <defs>
     <path id="m6bd4aa8b26" d="M 282.763636 -15.709091 
L 282.763636 -15.709091 
L 284.900928 -28.10672 
L 287.038219 -40.504349 
L 289.17551 -52.901978 
L 291.312801 -65.299607 
L 293.450093 -77.697235 
L 295.587384 -90.094864 
L 297.724675 -102.492493 
L 299.861967 -114.890122 
L 301.999258 -127.287751 
L 304.136549 -139.68538 
L 306.27384 -152.083009 
L 308.411132 -164.480638 
L 310.548423 -176.878267 
L 312.685714 -189.275896 
L 314.823006 -201.673525 
L 316.960297 -214.071153 
L 319.097588 -226.468782 
L 321.234879 -238.866411 
L 323.372171 -251.26404 
L 325.509462 -263.661669 
L 327.646753 -276.059298 
L 329.784045 -288.456927 
L 331.921336 -300.854556 
L 334.058627 -313.252185 
L 336.195918 -313.252185 
L 338.33321 -300.854556 
L 340.470501 -288.456927 
L 342.607792 -276.059298 
L 344.745083 -263.661669 
L 346.882375 -251.26404 
L 349.019666 -238.866411 
L 351.156957 -226.468782 
L 353.294249 -214.071153 
L 355.43154 -201.673525 
L 357.568831 -189.275896 
L 359.706122 -176.878267 
L 361.843414 -164.480638 
L 363.980705 -152.083009 
L 366.117996 -139.68538 
L 368.255288 -127.287751 
L 370.392579 -114.890122 
L 372.52987 -102.492493 
L 374.667161 -90.094864 
L 376.804453 -77.697235 
L 378.941744 -65.299607 
L 381.079035 -52.901978 
L 383.216327 -40.504349 
L 385.353618 -28.10672 
L 387.490909 -15.709091 
L 387.490909 -15.709091 
L 387.490909 -15.709091 
L 385.353618 -15.709091 
L 383.216327 -15.709091 
L 381.079035 -15.709091 
L 378.941744 -15.709091 
L 376.804453 -15.709091 
L 374.667161 -15.709091 
L 372.52987 -15.709091 
L 370.392579 -15.709091 
L 368.255288 -15.709091 
L 366.117996 -15.709091 
L 363.980705 -15.709091 
L 361.843414 -15.709091 
L 359.706122 -15.709091 
L 357.568831 -15.709091 
L 355.43154 -15.709091 
L 353.294249 -15.709091 
L 351.156957 -15.709091 
L 349.019666 -15.709091 
L 346.882375 -15.709091 
L 344.745083 -15.709091 
L 342.607792 -15.709091 
L 340.470501 -15.709091 
L 338.33321 -15.709091 
L 336.195918 -15.709091 
L 334.058627 -15.709091 
L 331.921336 -15.709091 
L 329.784045 -15.709091 
L 327.646753 -15.709091 
L 325.509462 -15.709091 
L 323.372171 -15.709091 
L 321.234879 -15.709091 
L 319.097588 -15.709091 
L 316.960297 -15.709091 
L 314.823006 -15.709091 
L 312.685714 -15.709091 
L 310.548423 -15.709091 
L 308.411132 -15.709091 
L 306.27384 -15.709091 
L 304.136549 -15.709091 
L 301.999258 -15.709091 
L 299.861967 -15.709091 
L 297.724675 -15.709091 
L 295.587384 -15.709091 
L 293.450093 -15.709091 
L 291.312801 -15.709091 
L 289.17551 -15.709091 
L 287.038219 -15.709091 
L 284.900928 -15.709091 
L 282.763636 -15.709091 
z
" style="stroke: #008000; stroke-opacity: 0.2"/>
    </defs>
    <g clip-path="url(#pbeeb2fb15a)">
     <use xlink:href="#m6bd4aa8b26" x="0" y="345.6" style="fill: #008000; fill-opacity: 0.2; stroke: #008000; stroke-opacity: 0.2"/>
    </g>
   </g>
   <g id="PolyCollection_7">
    <defs>
     <path id="maa55075da4" d="M 335.127273 -15.709091 
L 335.127273 -15.709091 
L 337.264564 -28.532839 
L 339.401855 -41.356586 
L 341.539147 -54.180334 
L 343.676438 -67.004082 
L 345.813729 -79.827829 
L 347.95102 -92.651577 
L 350.088312 -105.475325 
L 352.225603 -118.299072 
L 354.362894 -131.12282 
L 356.500186 -143.946568 
L 358.637477 -156.770315 
L 360.774768 -169.594063 
L 362.912059 -182.417811 
L 365.049351 -195.241558 
L 367.186642 -208.065306 
L 369.323933 -220.889054 
L 371.461224 -233.712801 
L 373.598516 -246.536549 
L 375.735807 -259.360297 
L 377.873098 -272.184045 
L 380.01039 -285.007792 
L 382.147681 -297.83154 
L 384.284972 -310.655288 
L 386.422263 -323.479035 
L 388.559555 -323.479035 
L 390.696846 -310.655288 
L 392.834137 -297.83154 
L 394.971429 -285.007792 
L 397.10872 -272.184045 
L 399.246011 -259.360297 
L 401.383302 -246.536549 
L 403.520594 -233.712801 
L 405.657885 -220.889054 
L 407.795176 -208.065306 
L 409.932468 -195.241558 
L 412.069759 -182.417811 
L 414.20705 -169.594063 
L 416.344341 -156.770315 
L 418.481633 -143.946568 
L 420.618924 -131.12282 
L 422.756215 -118.299072 
L 424.893506 -105.475325 
L 427.030798 -92.651577 
L 429.168089 -79.827829 
L 431.30538 -67.004082 
L 433.442672 -54.180334 
L 435.579963 -41.356586 
L 437.717254 -28.532839 
L 439.854545 -15.709091 
L 439.854545 -15.709091 
L 439.854545 -15.709091 
L 437.717254 -15.709091 
L 435.579963 -15.709091 
L 433.442672 -15.709091 
L 431.30538 -15.709091 
L 429.168089 -15.709091 
L 427.030798 -15.709091 
L 424.893506 -15.709091 
L 422.756215 -15.709091 
L 420.618924 -15.709091 
L 418.481633 -15.709091 
L 416.344341 -15.709091 
L 414.20705 -15.709091 
L 412.069759 -15.709091 
L 409.932468 -15.709091 
L 407.795176 -15.709091 
L 405.657885 -15.709091 
L 403.520594 -15.709091 
L 401.383302 -15.709091 
L 399.246011 -15.709091 
L 397.10872 -15.709091 
L 394.971429 -15.709091 
L 392.834137 -15.709091 
L 390.696846 -15.709091 
L 388.559555 -15.709091 
L 386.422263 -15.709091 
L 384.284972 -15.709091 
L 382.147681 -15.709091 
L 380.01039 -15.709091 
L 377.873098 -15.709091 
L 375.735807 -15.709091 
L 373.598516 -15.709091 
L 371.461224 -15.709091 
L 369.323933 -15.709091 
L 367.186642 -15.709091 
L 365.049351 -15.709091 
L 362.912059 -15.709091 
L 360.774768 -15.709091 
L 358.637477 -15.709091 
L 356.500186 -15.709091 
L 354.362894 -15.709091 
L 352.225603 -15.709091 
L 350.088312 -15.709091 
L 347.95102 -15.709091 
L 345.813729 -15.709091 
L 343.676438 -15.709091 
L 341.539147 -15.709091 
L 339.401855 -15.709091 
L 337.264564 -15.709091 
L 335.127273 -15.709091 
z
" style="stroke: #008000; stroke-opacity: 0.2"/>
    </defs>
    <g clip-path="url(#pbeeb2fb15a)">
     <use xlink:href="#maa55075da4" x="0" y="345.6" style="fill: #008000; fill-opacity: 0.2; stroke: #008000; stroke-opacity: 0.2"/>
    </g>
   </g>
   <g id="matplotlib.axis_1">
    <g id="xtick_1">
     <g id="line2d_1">
      <defs>
       <path id="m6663eee26f" d="M 0 0 
L 0 3.5 
" style="stroke: #000000; stroke-width: 0.8"/>
      </defs>
      <g>
       <use xlink:href="#m6663eee26f" x="20.945455" y="345.6" style="stroke: #000000; stroke-width: 0.8"/>
      </g>
     </g>
     <g id="text_1">
      <!-- −2 -->
      <g transform="translate(13.574361 360.198437)scale(0.1 -0.1)">
       <defs>
        <path id="DejaVuSans-2212" d="M 678 2272 
L 4684 2272 
L 4684 1741 
L 678 1741 
L 678 2272 
z
" transform="scale(0.015625)"/>
        <path id="DejaVuSans-32" d="M 1228 531 
L 3431 531 
L 3431 0 
L 469 0 
L 469 531 
Q 828 903 1448 1529 
Q 2069 2156 2228 2338 
Q 2531 2678 2651 2914 
Q 2772 3150 2772 3378 
Q 2772 3750 2511 3984 
Q 2250 4219 1831 4219 
Q 1534 4219 1204 4116 
Q 875 4013 500 3803 
L 500 4441 
Q 881 4594 1212 4672 
Q 1544 4750 1819 4750 
Q 2544 4750 2975 4387 
Q 3406 4025 3406 3419 
Q 3406 3131 3298 2873 
Q 3191 2616 2906 2266 
Q 2828 2175 2409 1742 
Q 1991 1309 1228 531 
z
" transform="scale(0.015625)"/>
       </defs>
       <use xlink:href="#DejaVuSans-2212"/>
       <use xlink:href="#DejaVuSans-32" x="83.789062"/>
      </g>
     </g>
    </g>
    <g id="xtick_2">
     <g id="line2d_2">
      <g>
       <use xlink:href="#m6663eee26f" x="73.309091" y="345.6" style="stroke: #000000; stroke-width: 0.8"/>
      </g>
     </g>
     <g id="text_2">
      <!-- 0 -->
      <g transform="translate(70.127841 360.198437)scale(0.1 -0.1)">
       <defs>
        <path id="DejaVuSans-30" d="M 2034 4250 
Q 1547 4250 1301 3770 
Q 1056 3291 1056 2328 
Q 1056 1369 1301 889 
Q 1547 409 2034 409 
Q 2525 409 2770 889 
Q 3016 1369 3016 2328 
Q 3016 3291 2770 3770 
Q 2525 4250 2034 4250 
z
M 2034 4750 
Q 2819 4750 3233 4129 
Q 3647 3509 3647 2328 
Q 3647 1150 3233 529 
Q 2819 -91 2034 -91 
Q 1250 -91 836 529 
Q 422 1150 422 2328 
Q 422 3509 836 4129 
Q 1250 4750 2034 4750 
z
" transform="scale(0.015625)"/>
       </defs>
       <use xlink:href="#DejaVuSans-30"/>
      </g>
     </g>
    </g>
    <g id="xtick_3">
     <g id="line2d_3">
      <g>
       <use xlink:href="#m6663eee26f" x="125.672727" y="345.6" style="stroke: #000000; stroke-width: 0.8"/>
      </g>
     </g>
     <g id="text_3">
      <!-- 2 -->
      <g transform="translate(122.491477 360.198437)scale(0.1 -0.1)">
       <use xlink:href="#DejaVuSans-32"/>
      </g>
     </g>
    </g>
    <g id="xtick_4">
     <g id="line2d_4">
      <g>
       <use xlink:href="#m6663eee26f" x="178.036364" y="345.6" style="stroke: #000000; stroke-width: 0.8"/>
      </g>
     </g>
     <g id="text_4">
      <!-- 4 -->
      <g transform="translate(174.855114 360.198437)scale(0.1 -0.1)">
       <defs>
        <path id="DejaVuSans-34" d="M 2419 4116 
L 825 1625 
L 2419 1625 
L 2419 4116 
z
M 2253 4666 
L 3047 4666 
L 3047 1625 
L 3713 1625 
L 3713 1100 
L 3047 1100 
L 3047 0 
L 2419 0 
L 2419 1100 
L 313 1100 
L 313 1709 
L 2253 4666 
z
" transform="scale(0.015625)"/>
       </defs>
       <use xlink:href="#DejaVuSans-34"/>
      </g>
     </g>
    </g>
    <g id="xtick_5">
     <g id="line2d_5">
      <g>
       <use xlink:href="#m6663eee26f" x="230.4" y="345.6" style="stroke: #000000; stroke-width: 0.8"/>
      </g>
     </g>
     <g id="text_5">
      <!-- 6 -->
      <g transform="translate(227.21875 360.198437)scale(0.1 -0.1)">
       <defs>
        <path id="DejaVuSans-36" d="M 2113 2584 
Q 1688 2584 1439 2293 
Q 1191 2003 1191 1497 
Q 1191 994 1439 701 
Q 1688 409 2113 409 
Q 2538 409 2786 701 
Q 3034 994 3034 1497 
Q 3034 2003 2786 2293 
Q 2538 2584 2113 2584 
z
M 3366 4563 
L 3366 3988 
Q 3128 4100 2886 4159 
Q 2644 4219 2406 4219 
Q 1781 4219 1451 3797 
Q 1122 3375 1075 2522 
Q 1259 2794 1537 2939 
Q 1816 3084 2150 3084 
Q 2853 3084 3261 2657 
Q 3669 2231 3669 1497 
Q 3669 778 3244 343 
Q 2819 -91 2113 -91 
Q 1303 -91 875 529 
Q 447 1150 447 2328 
Q 447 3434 972 4092 
Q 1497 4750 2381 4750 
Q 2619 4750 2861 4703 
Q 3103 4656 3366 4563 
z
" transform="scale(0.015625)"/>
       </defs>
       <use xlink:href="#DejaVuSans-36"/>
      </g>
     </g>
    </g>
    <g id="xtick_6">
     <g id="line2d_6">
      <g>
       <use xlink:href="#m6663eee26f" x="282.763636" y="345.6" style="stroke: #000000; stroke-width: 0.8"/>
      </g>
     </g>
     <g id="text_6">
      <!-- 8 -->
      <g transform="translate(279.582386 360.198437)scale(0.1 -0.1)">
       <defs>
        <path id="DejaVuSans-38" d="M 2034 2216 
Q 1584 2216 1326 1975 
Q 1069 1734 1069 1313 
Q 1069 891 1326 650 
Q 1584 409 2034 409 
Q 2484 409 2743 651 
Q 3003 894 3003 1313 
Q 3003 1734 2745 1975 
Q 2488 2216 2034 2216 
z
M 1403 2484 
Q 997 2584 770 2862 
Q 544 3141 544 3541 
Q 544 4100 942 4425 
Q 1341 4750 2034 4750 
Q 2731 4750 3128 4425 
Q 3525 4100 3525 3541 
Q 3525 3141 3298 2862 
Q 3072 2584 2669 2484 
Q 3125 2378 3379 2068 
Q 3634 1759 3634 1313 
Q 3634 634 3220 271 
Q 2806 -91 2034 -91 
Q 1263 -91 848 271 
Q 434 634 434 1313 
Q 434 1759 690 2068 
Q 947 2378 1403 2484 
z
M 1172 3481 
Q 1172 3119 1398 2916 
Q 1625 2713 2034 2713 
Q 2441 2713 2670 2916 
Q 2900 3119 2900 3481 
Q 2900 3844 2670 4047 
Q 2441 4250 2034 4250 
Q 1625 4250 1398 4047 
Q 1172 3844 1172 3481 
z
" transform="scale(0.015625)"/>
       </defs>
       <use xlink:href="#DejaVuSans-38"/>
      </g>
     </g>
    </g>
    <g id="xtick_7">
     <g id="line2d_7">
      <g>
       <use xlink:href="#m6663eee26f" x="335.127273" y="345.6" style="stroke: #000000; stroke-width: 0.8"/>
      </g>
     </g>
     <g id="text_7">
      <!-- 10 -->
      <g transform="translate(328.764773 360.198437)scale(0.1 -0.1)">
       <defs>
        <path id="DejaVuSans-31" d="M 794 531 
L 1825 531 
L 1825 4091 
L 703 3866 
L 703 4441 
L 1819 4666 
L 2450 4666 
L 2450 531 
L 3481 531 
L 3481 0 
L 794 0 
L 794 531 
z
" transform="scale(0.015625)"/>
       </defs>
       <use xlink:href="#DejaVuSans-31"/>
       <use xlink:href="#DejaVuSans-30" x="63.623047"/>
      </g>
     </g>
    </g>
    <g id="xtick_8">
     <g id="line2d_8">
      <g>
       <use xlink:href="#m6663eee26f" x="387.490909" y="345.6" style="stroke: #000000; stroke-width: 0.8"/>
      </g>
     </g>
     <g id="text_8">
      <!-- 12 -->
      <g transform="translate(381.128409 360.198437)scale(0.1 -0.1)">
       <use xlink:href="#DejaVuSans-31"/>
       <use xlink:href="#DejaVuSans-32" x="63.623047"/>
      </g>
     </g>
    </g>
    <g id="xtick_9">
     <g id="line2d_9">
      <g>
       <use xlink:href="#m6663eee26f" x="439.854545" y="345.6" style="stroke: #000000; stroke-width: 0.8"/>
      </g>
     </g>
     <g id="text_9">
      <!-- 14 -->
      <g transform="translate(433.492045 360.198437)scale(0.1 -0.1)">
       <use xlink:href="#DejaVuSans-31"/>
       <use xlink:href="#DejaVuSans-34" x="63.623047"/>
      </g>
     </g>
    </g>
   </g>
   <g id="matplotlib.axis_2">
    <g id="ytick_1">
     <g id="line2d_10">
      <defs>
       <path id="m6d18c46afc" d="M 0 0 
L -3.5 0 
" style="stroke: #000000; stroke-width: 0.8"/>
      </defs>
      <g>
       <use xlink:href="#m6d18c46afc" x="0" y="329.890909" style="stroke: #000000; stroke-width: 0.8"/>
      </g>
     </g>
     <g id="text_10">
      <!-- 0 -->
      <g transform="translate(-13.3625 333.690128)scale(0.1 -0.1)">
       <use xlink:href="#DejaVuSans-30"/>
      </g>
     </g>
    </g>
    <g id="ytick_2">
     <g id="line2d_11">
      <g>
       <use xlink:href="#m6d18c46afc" x="0" y="262.165551" style="stroke: #000000; stroke-width: 0.8"/>
      </g>
     </g>
     <g id="text_11">
      <!-- 1 -->
      <g transform="translate(-13.3625 265.96477)scale(0.1 -0.1)">
       <use xlink:href="#DejaVuSans-31"/>
      </g>
     </g>
    </g>
    <g id="ytick_3">
     <g id="line2d_12">
      <g>
       <use xlink:href="#m6d18c46afc" x="0" y="194.440193" style="stroke: #000000; stroke-width: 0.8"/>
      </g>
     </g>
     <g id="text_12">
      <!-- 2 -->
      <g transform="translate(-13.3625 198.239412)scale(0.1 -0.1)">
       <use xlink:href="#DejaVuSans-32"/>
      </g>
     </g>
    </g>
    <g id="ytick_4">
     <g id="line2d_13">
      <g>
       <use xlink:href="#m6d18c46afc" x="0" y="126.714835" style="stroke: #000000; stroke-width: 0.8"/>
      </g>
     </g>
     <g id="text_13">
      <!-- 3 -->
      <g transform="translate(-13.3625 130.514054)scale(0.1 -0.1)">
       <defs>
        <path id="DejaVuSans-33" d="M 2597 2516 
Q 3050 2419 3304 2112 
Q 3559 1806 3559 1356 
Q 3559 666 3084 287 
Q 2609 -91 1734 -91 
Q 1441 -91 1130 -33 
Q 819 25 488 141 
L 488 750 
Q 750 597 1062 519 
Q 1375 441 1716 441 
Q 2309 441 2620 675 
Q 2931 909 2931 1356 
Q 2931 1769 2642 2001 
Q 2353 2234 1838 2234 
L 1294 2234 
L 1294 2753 
L 1863 2753 
Q 2328 2753 2575 2939 
Q 2822 3125 2822 3475 
Q 2822 3834 2567 4026 
Q 2313 4219 1838 4219 
Q 1578 4219 1281 4162 
Q 984 4106 628 3988 
L 628 4550 
Q 988 4650 1302 4700 
Q 1616 4750 1894 4750 
Q 2613 4750 3031 4423 
Q 3450 4097 3450 3541 
Q 3450 3153 3228 2886 
Q 3006 2619 2597 2516 
z
" transform="scale(0.015625)"/>
       </defs>
       <use xlink:href="#DejaVuSans-33"/>
      </g>
     </g>
    </g>
    <g id="ytick_5">
     <g id="line2d_14">
      <g>
       <use xlink:href="#m6d18c46afc" x="0" y="58.989477" style="stroke: #000000; stroke-width: 0.8"/>
      </g>
     </g>
     <g id="text_14">
      <!-- 4 -->
      <g transform="translate(-13.3625 62.788696)scale(0.1 -0.1)">
       <use xlink:href="#DejaVuSans-34"/>
      </g>
     </g>
    </g>
   </g>
   <g id="line2d_15">
    <path d="M 47.127273 194.440193 
L 50.565289 186.084305 
L 54.003306 178.647054 
L 57.441322 171.94631 
L 60.879339 165.849257 
L 64.317355 160.256051 
L 67.755372 155.089736 
L 71.193388 150.289746 
L 74.631405 145.807553 
L 78.069421 141.603676 
L 81.507438 137.645562 
L 84.945455 133.906058 
L 88.383471 130.362273 
L 91.821488 126.994735 
L 95.259504 123.786742 
L 98.697521 120.723856 
L 102.135537 117.793516 
L 105.573554 114.984726 
L 109.01157 112.287801 
L 112.449587 109.694171 
L 115.887603 107.196215 
L 119.32562 104.787125 
L 122.763636 102.460794 
L 126.201653 100.211725 
L 129.639669 98.03495 
L 133.077686 95.925966 
L 136.515702 93.880678 
L 139.953719 91.895351 
L 143.391736 89.966568 
L 146.829752 88.091199 
L 150.267769 86.266364 
L 153.705785 84.489411 
L 157.143802 82.757891 
L 160.581818 81.06954 
L 164.019835 79.422256 
L 167.457851 77.81409 
L 170.895868 76.243227 
L 174.333884 74.707974 
L 177.771901 73.206754 
L 181.209917 71.738089 
L 184.647934 70.300599 
L 188.08595 68.892987 
L 191.523967 67.514037 
L 194.961983 66.162603 
L 198.4 64.83761 
L 201.838017 63.538043 
L 205.276033 62.262945 
L 208.71405 61.01141 
L 212.152066 59.782584 
L 215.590083 58.575657 
L 219.028099 57.389863 
L 222.466116 56.224474 
L 225.904132 55.0788 
L 229.342149 53.952184 
L 232.780165 52.844004 
L 236.218182 51.753665 
L 239.656198 50.680602 
L 243.094215 49.624277 
L 246.532231 48.584174 
L 249.970248 47.559803 
L 253.408264 46.550696 
L 256.846281 45.556404 
L 260.284298 44.576499 
L 263.722314 43.61057 
L 267.160331 42.658223 
L 270.598347 41.719083 
L 274.036364 40.792788 
L 277.47438 39.878992 
L 280.912397 38.977361 
L 284.350413 38.087576 
L 287.78843 37.209329 
L 291.226446 36.342326 
L 294.664463 35.486282 
L 298.102479 34.640923 
L 301.540496 33.805987 
L 304.978512 32.981218 
L 308.416529 32.166373 
L 311.854545 31.361215 
L 315.292562 30.565517 
L 318.730579 29.779059 
L 322.168595 29.001629 
L 325.606612 28.233022 
L 329.044628 27.473041 
L 332.482645 26.721493 
L 335.920661 25.978193 
L 339.358678 25.242963 
L 342.796694 24.515628 
L 346.234711 23.796022 
L 349.672727 23.083982 
L 353.110744 22.37935 
L 356.54876 21.681974 
L 359.986777 20.991706 
L 363.424793 20.308402 
L 366.86281 19.631923 
L 370.300826 18.962135 
L 373.738843 18.298905 
L 377.17686 17.642108 
L 380.614876 16.99162 
L 384.052893 16.347319 
L 387.490909 15.709091 
" clip-path="url(#pbeeb2fb15a)" style="fill: none; stroke: #1f77b4; stroke-width: 1.5; stroke-linecap: square"/>
   </g>
   <g id="line2d_16">
    <path d="M 20.945455 329.890909 
L 23.082746 322.446241 
L 25.220037 315.001574 
L 27.357328 307.556906 
L 29.49462 300.112239 
L 31.631911 292.667571 
L 33.769202 285.222903 
L 35.906494 277.778236 
L 38.043785 270.333568 
L 40.181076 262.8889 
L 42.318367 255.444233 
L 44.455659 247.999565 
L 46.59295 240.554898 
L 48.730241 233.11023 
L 50.867532 225.665562 
L 53.004824 218.220895 
L 55.142115 210.776227 
L 57.279406 203.331559 
L 59.416698 195.886892 
L 61.553989 188.442224 
L 63.69128 180.997557 
L 65.828571 173.552889 
L 67.965863 166.108221 
L 70.103154 158.663554 
L 72.240445 151.218886 
L 74.377737 151.218886 
L 76.515028 158.663554 
L 78.652319 166.108221 
L 80.78961 173.552889 
L 82.926902 180.997557 
L 85.064193 188.442224 
L 87.201484 195.886892 
L 89.338776 203.331559 
L 91.476067 210.776227 
L 93.613358 218.220895 
L 95.750649 225.665562 
L 97.887941 233.11023 
L 100.025232 240.554898 
L 102.162523 247.999565 
L 104.299814 255.444233 
L 106.437106 262.8889 
L 108.574397 270.333568 
L 110.711688 277.778236 
L 112.84898 285.222903 
L 114.986271 292.667571 
L 117.123562 300.112239 
L 119.260853 307.556906 
L 121.398145 315.001574 
L 123.535436 322.446241 
L 125.672727 329.890909 
" clip-path="url(#pbeeb2fb15a)" style="fill: none; stroke-dasharray: 9.6,2.4,1.5,2.4; stroke-dashoffset: 0; stroke: #008000; stroke-width: 1.5"/>
   </g>
   <g id="line2d_17">
    <path d="M 73.309091 329.890909 
L 75.446382 320.530174 
L 77.583673 311.16944 
L 79.720965 301.808705 
L 81.858256 292.447971 
L 83.995547 283.087236 
L 86.132839 273.726501 
L 88.27013 264.365767 
L 90.407421 255.005032 
L 92.544712 245.644298 
L 94.682004 236.283563 
L 96.819295 226.922828 
L 98.956586 217.562094 
L 101.093878 208.201359 
L 103.231169 198.840625 
L 105.36846 189.47989 
L 107.505751 180.119155 
L 109.643043 170.758421 
L 111.780334 161.397686 
L 113.917625 152.036952 
L 116.054917 142.676217 
L 118.192208 133.315482 
L 120.329499 123.954748 
L 122.46679 114.594013 
L 124.604082 105.233279 
L 126.741373 105.233279 
L 128.878664 114.594013 
L 131.015955 123.954748 
L 133.153247 133.315482 
L 135.290538 142.676217 
L 137.427829 152.036952 
L 139.565121 161.397686 
L 141.702412 170.758421 
L 143.839703 180.119155 
L 145.976994 189.47989 
L 148.114286 198.840625 
L 150.251577 208.201359 
L 152.388868 217.562094 
L 154.52616 226.922828 
L 156.663451 236.283563 
L 158.800742 245.644298 
L 160.938033 255.005032 
L 163.075325 264.365767 
L 165.212616 273.726501 
L 167.349907 283.087236 
L 169.487199 292.447971 
L 171.62449 301.808705 
L 173.761781 311.16944 
L 175.899072 320.530174 
L 178.036364 329.890909 
" clip-path="url(#pbeeb2fb15a)" style="fill: none; stroke-dasharray: 9.6,2.4,1.5,2.4; stroke-dashoffset: 0; stroke: #008000; stroke-width: 1.5"/>
   </g>
   <g id="line2d_18">
    <path d="M 125.672727 329.890909 
L 127.810019 319.409347 
L 129.94731 308.927785 
L 132.084601 298.446223 
L 134.221892 287.964661 
L 136.359184 277.483099 
L 138.496475 267.001538 
L 140.633766 256.519976 
L 142.771058 246.038414 
L 144.908349 235.556852 
L 147.04564 225.07529 
L 149.182931 214.593728 
L 151.320223 204.112166 
L 153.457514 193.630604 
L 155.594805 183.149042 
L 157.732096 172.66748 
L 159.869388 162.185918 
L 162.006679 151.704356 
L 164.14397 141.222794 
L 166.281262 130.741232 
L 168.418553 120.25967 
L 170.555844 109.778109 
L 172.693135 99.296547 
L 174.830427 88.814985 
L 176.967718 78.333423 
L 179.105009 78.333423 
L 181.242301 88.814985 
L 183.379592 99.296547 
L 185.516883 109.778109 
L 187.654174 120.25967 
L 189.791466 130.741232 
L 191.928757 141.222794 
L 194.066048 151.704356 
L 196.20334 162.185918 
L 198.340631 172.66748 
L 200.477922 183.149042 
L 202.615213 193.630604 
L 204.752505 204.112166 
L 206.889796 214.593728 
L 209.027087 225.07529 
L 211.164378 235.556852 
L 213.30167 246.038414 
L 215.438961 256.519976 
L 217.576252 267.001538 
L 219.713544 277.483099 
L 221.850835 287.964661 
L 223.988126 298.446223 
L 226.125417 308.927785 
L 228.262709 319.409347 
L 230.4 329.890909 
" clip-path="url(#pbeeb2fb15a)" style="fill: none; stroke-dasharray: 9.6,2.4,1.5,2.4; stroke-dashoffset: 0; stroke: #008000; stroke-width: 1.5"/>
   </g>
   <g id="line2d_19">
    <path d="M 178.036364 329.890909 
L 180.173655 318.614108 
L 182.310946 307.337306 
L 184.448237 296.060504 
L 186.585529 284.783703 
L 188.72282 273.506901 
L 190.860111 262.2301 
L 192.997403 250.953298 
L 195.134694 239.676496 
L 197.271985 228.399695 
L 199.409276 217.122893 
L 201.546568 205.846092 
L 203.683859 194.56929 
L 205.82115 183.292489 
L 207.958442 172.015687 
L 210.095733 160.738885 
L 212.233024 149.462084 
L 214.370315 138.185282 
L 216.507607 126.908481 
L 218.644898 115.631679 
L 220.782189 104.354878 
L 222.919481 93.078076 
L 225.056772 81.801274 
L 227.194063 70.524473 
L 229.331354 59.247671 
L 231.468646 59.247671 
L 233.605937 70.524473 
L 235.743228 81.801274 
L 237.880519 93.078076 
L 240.017811 104.354878 
L 242.155102 115.631679 
L 244.292393 126.908481 
L 246.429685 138.185282 
L 248.566976 149.462084 
L 250.704267 160.738885 
L 252.841558 172.015687 
L 254.97885 183.292489 
L 257.116141 194.56929 
L 259.253432 205.846092 
L 261.390724 217.122893 
L 263.528015 228.399695 
L 265.665306 239.676496 
L 267.802597 250.953298 
L 269.939889 262.2301 
L 272.07718 273.506901 
L 274.214471 284.783703 
L 276.351763 296.060504 
L 278.489054 307.337306 
L 280.626345 318.614108 
L 282.763636 329.890909 
" clip-path="url(#pbeeb2fb15a)" style="fill: none; stroke-dasharray: 9.6,2.4,1.5,2.4; stroke-dashoffset: 0; stroke: #008000; stroke-width: 1.5"/>
   </g>
   <g id="line2d_20">
    <path d="M 230.4 329.890909 
L 232.537291 317.997272 
L 234.674583 306.103634 
L 236.811874 294.209997 
L 238.949165 282.31636 
L 241.086456 270.422722 
L 243.223748 258.529085 
L 245.361039 246.635448 
L 247.49833 234.74181 
L 249.635622 222.848173 
L 251.772913 210.954535 
L 253.910204 199.060898 
L 256.047495 187.167261 
L 258.184787 175.273623 
L 260.322078 163.379986 
L 262.459369 151.486349 
L 264.59666 139.592711 
L 266.733952 127.699074 
L 268.871243 115.805436 
L 271.008534 103.911799 
L 273.145826 92.018162 
L 275.283117 80.124524 
L 277.420408 68.230887 
L 279.557699 56.33725 
L 281.694991 44.443612 
L 283.832282 44.443612 
L 285.969573 56.33725 
L 288.106865 68.230887 
L 290.244156 80.124524 
L 292.381447 92.018162 
L 294.518738 103.911799 
L 296.65603 115.805436 
L 298.793321 127.699074 
L 300.930612 139.592711 
L 303.067904 151.486349 
L 305.205195 163.379986 
L 307.342486 175.273623 
L 309.479777 187.167261 
L 311.617069 199.060898 
L 313.75436 210.954535 
L 315.891651 222.848173 
L 318.028942 234.74181 
L 320.166234 246.635448 
L 322.303525 258.529085 
L 324.440816 270.422722 
L 326.578108 282.31636 
L 328.715399 294.209997 
L 330.85269 306.103634 
L 332.989981 317.997272 
L 335.127273 329.890909 
" clip-path="url(#pbeeb2fb15a)" style="fill: none; stroke-dasharray: 9.6,2.4,1.5,2.4; stroke-dashoffset: 0; stroke: #008000; stroke-width: 1.5"/>
   </g>
   <g id="line2d_21">
    <path d="M 282.763636 329.890909 
L 284.900928 317.49328 
L 287.038219 305.095651 
L 289.17551 292.698022 
L 291.312801 280.300393 
L 293.450093 267.902765 
L 295.587384 255.505136 
L 297.724675 243.107507 
L 299.861967 230.709878 
L 301.999258 218.312249 
L 304.136549 205.91462 
L 306.27384 193.516991 
L 308.411132 181.119362 
L 310.548423 168.721733 
L 312.685714 156.324104 
L 314.823006 143.926475 
L 316.960297 131.528847 
L 319.097588 119.131218 
L 321.234879 106.733589 
L 323.372171 94.33596 
L 325.509462 81.938331 
L 327.646753 69.540702 
L 329.784045 57.143073 
L 331.921336 44.745444 
L 334.058627 32.347815 
L 336.195918 32.347815 
L 338.33321 44.745444 
L 340.470501 57.143073 
L 342.607792 69.540702 
L 344.745083 81.938331 
L 346.882375 94.33596 
L 349.019666 106.733589 
L 351.156957 119.131218 
L 353.294249 131.528847 
L 355.43154 143.926475 
L 357.568831 156.324104 
L 359.706122 168.721733 
L 361.843414 181.119362 
L 363.980705 193.516991 
L 366.117996 205.91462 
L 368.255288 218.312249 
L 370.392579 230.709878 
L 372.52987 243.107507 
L 374.667161 255.505136 
L 376.804453 267.902765 
L 378.941744 280.300393 
L 381.079035 292.698022 
L 383.216327 305.095651 
L 385.353618 317.49328 
L 387.490909 329.890909 
" clip-path="url(#pbeeb2fb15a)" style="fill: none; stroke-dasharray: 9.6,2.4,1.5,2.4; stroke-dashoffset: 0; stroke: #008000; stroke-width: 1.5"/>
   </g>
   <g id="line2d_22">
    <path d="M 335.127273 329.890909 
L 337.264564 317.067161 
L 339.401855 304.243414 
L 341.539147 291.419666 
L 343.676438 278.595918 
L 345.813729 265.772171 
L 347.95102 252.948423 
L 350.088312 240.124675 
L 352.225603 227.300928 
L 354.362894 214.47718 
L 356.500186 201.653432 
L 358.637477 188.829685 
L 360.774768 176.005937 
L 362.912059 163.182189 
L 365.049351 150.358442 
L 367.186642 137.534694 
L 369.323933 124.710946 
L 371.461224 111.887199 
L 373.598516 99.063451 
L 375.735807 86.239703 
L 377.873098 73.415955 
L 380.01039 60.592208 
L 382.147681 47.76846 
L 384.284972 34.944712 
L 386.422263 22.120965 
L 388.559555 22.120965 
L 390.696846 34.944712 
L 392.834137 47.76846 
L 394.971429 60.592208 
L 397.10872 73.415955 
L 399.246011 86.239703 
L 401.383302 99.063451 
L 403.520594 111.887199 
L 405.657885 124.710946 
L 407.795176 137.534694 
L 409.932468 150.358442 
L 412.069759 163.182189 
L 414.20705 176.005937 
L 416.344341 188.829685 
L 418.481633 201.653432 
L 420.618924 214.47718 
L 422.756215 227.300928 
L 424.893506 240.124675 
L 427.030798 252.948423 
L 429.168089 265.772171 
L 431.30538 278.595918 
L 433.442672 291.419666 
L 435.579963 304.243414 
L 437.717254 317.067161 
L 439.854545 329.890909 
" clip-path="url(#pbeeb2fb15a)" style="fill: none; stroke-dasharray: 9.6,2.4,1.5,2.4; stroke-dashoffset: 0; stroke: #008000; stroke-width: 1.5"/>
   </g>
   <g id="line2d_23">
    <path d="M 73.309091 147.496552 
L 125.672727 100.552911 
L 178.036364 73.092642 
L 230.4 53.60927 
L 282.763636 38.496794 
L 335.127273 26.149001 
L 387.490909 15.709091 
" clip-path="url(#pbeeb2fb15a)" style="fill: none; stroke: #ff0000; stroke-width: 0.5; stroke-linecap: square"/>
   </g>
   <g id="patch_3">
    <path d="M 0 345.6 
L 0 0 
" style="fill: none; stroke: #000000; stroke-width: 0.8; stroke-linejoin: miter; stroke-linecap: square"/>
   </g>
   <g id="patch_4">
    <path d="M 460.8 345.6 
L 460.8 0 
" style="fill: none; stroke: #000000; stroke-width: 0.8; stroke-linejoin: miter; stroke-linecap: square"/>
   </g>
   <g id="patch_5">
    <path d="M 0 345.6 
L 460.8 345.6 
" style="fill: none; stroke: #000000; stroke-width: 0.8; stroke-linejoin: miter; stroke-linecap: square"/>
   </g>
   <g id="patch_6">
    <path d="M 0 0 
L 460.8 0 
" style="fill: none; stroke: #000000; stroke-width: 0.8; stroke-linejoin: miter; stroke-linecap: square"/>
   </g>
  </g>
 </g>
 <defs>
  <clipPath id="pbeeb2fb15a">
   <rect x="0" y="0" width="460.8" height="345.6"/>
  </clipPath>
 </defs>
</svg>
