<?xml version="1.0" encoding="utf-8" standalone="no"?>
<!DOCTYPE svg PUBLIC "-//W3C//DTD SVG 1.1//EN"
  "http://www.w3.org/Graphics/SVG/1.1/DTD/svg11.dtd">
<svg xmlns:xlink="http://www.w3.org/1999/xlink" width="460.8pt" height="345.6pt" viewBox="0 0 460.8 345.6" xmlns="http://www.w3.org/2000/svg" version="1.1">
 <metadata>
  <rdf:RDF xmlns:dc="http://purl.org/dc/elements/1.1/" xmlns:cc="http://creativecommons.org/ns#" xmlns:rdf="http://www.w3.org/1999/02/22-rdf-syntax-ns#">
   <cc:Work>
    <dc:type rdf:resource="http://purl.org/dc/dcmitype/StillImage"/>
    <dc:date>2024-09-22T21:20:27.930288</dc:date>
    <dc:format>image/svg+xml</dc:format>
    <dc:creator>
     <cc:Agent>
      <dc:title>Matplotlib v3.5.2, https://matplotlib.org/</dc:title>
     </cc:Agent>
    </dc:creator>
   </cc:Work>
  </rdf:RDF>
 </metadata>
 <defs>
  <style type="text/css">*{stroke-linejoin: round; stroke-linecap: butt}</style>
 </defs>
 <g id="figure_1">
  <g id="patch_1">
   <path d="M 0 345.6 
L 460.8 345.6 
L 460.8 0 
L 0 0 
z
" style="fill: #ffffff"/>
  </g>
  <g id="axes_1">
   <g id="patch_2">
    <path d="M 0 345.6 
L 460.8 345.6 
L 460.8 0 
L 0 0 
z
" style="fill: #ffffff"/>
   </g>
   <g id="PolyCollection_1">
    <defs>
     <path id="mcfe184e803" d="M 20.945455 -15.709091 
L 20.945455 -15.709091 
L 23.082746 -23.153759 
L 25.220037 -30.598426 
L 27.357328 -38.043094 
L 29.49462 -45.487761 
L 31.631911 -52.932429 
L 33.769202 -60.377097 
L 35.906494 -67.821764 
L 38.043785 -75.266432 
L 40.181076 -82.7111 
L 42.318367 -90.155767 
L 44.455659 -97.600435 
L 46.59295 -105.045102 
L 48.730241 -112.48977 
L 50.867532 -119.934438 
L 53.004824 -127.379105 
L 55.142115 -134.823773 
L 57.279406 -142.268441 
L 59.416698 -149.713108 
L 61.553989 -157.157776 
L 63.69128 -164.602443 
L 65.828571 -172.047111 
L 67.965863 -179.491779 
L 70.103154 -186.936446 
L 72.240445 -194.381114 
L 74.377737 -194.381114 
L 76.515028 -186.936446 
L 78.652319 -179.491779 
L 80.78961 -172.047111 
L 82.926902 -164.602443 
L 85.064193 -157.157776 
L 87.201484 -149.713108 
L 89.338776 -142.268441 
L 91.476067 -134.823773 
L 93.613358 -127.379105 
L 95.750649 -119.934438 
L 97.887941 -112.48977 
L 100.025232 -105.045102 
L 102.162523 -97.600435 
L 104.299814 -90.155767 
L 106.437106 -82.7111 
L 108.574397 -75.266432 
L 110.711688 -67.821764 
L 112.84898 -60.377097 
L 114.986271 -52.932429 
L 117.123562 -45.487761 
L 119.260853 -38.043094 
L 121.398145 -30.598426 
L 123.535436 -23.153759 
L 125.672727 -15.709091 
L 125.672727 -15.709091 
L 125.672727 -15.709091 
L 123.535436 -15.709091 
L 121.398145 -15.709091 
L 119.260853 -15.709091 
L 117.123562 -15.709091 
L 114.986271 -15.709091 
L 112.84898 -15.709091 
L 110.711688 -15.709091 
L 108.574397 -15.709091 
L 106.437106 -15.709091 
L 104.299814 -15.709091 
L 102.162523 -15.709091 
L 100.025232 -15.709091 
L 97.887941 -15.709091 
L 95.750649 -15.709091 
L 93.613358 -15.709091 
L 91.476067 -15.709091 
L 89.338776 -15.709091 
L 87.201484 -15.709091 
L 85.064193 -15.709091 
L 82.926902 -15.709091 
L 80.78961 -15.709091 
L 78.652319 -15.709091 
L 76.515028 -15.709091 
L 74.377737 -15.709091 
L 72.240445 -15.709091 
L 70.103154 -15.709091 
L 67.965863 -15.709091 
L 65.828571 -15.709091 
L 63.69128 -15.709091 
L 61.553989 -15.709091 
L 59.416698 -15.709091 
L 57.279406 -15.709091 
L 55.142115 -15.709091 
L 53.004824 -15.709091 
L 50.867532 -15.709091 
L 48.730241 -15.709091 
L 46.59295 -15.709091 
L 44.455659 -15.709091 
L 42.318367 -15.709091 
L 40.181076 -15.709091 
L 38.043785 -15.709091 
L 35.906494 -15.709091 
L 33.769202 -15.709091 
L 31.631911 -15.709091 
L 29.49462 -15.709091 
L 27.357328 -15.709091 
L 25.220037 -15.709091 
L 23.082746 -15.709091 
L 20.945455 -15.709091 
z
" style="stroke: #008000; stroke-opacity: 0.2"/>
    </defs>
    <g clip-path="url(#p736e52d1e4)">
     <use xlink:href="#mcfe184e803" x="0" y="345.6" style="fill: #008000; fill-opacity: 0.2; stroke: #008000; stroke-opacity: 0.2"/>
    </g>
   </g>
   <g id="PolyCollection_2">
    <defs>
     <path id="m15c2c3b1f7" d="M 47.127273 -15.709091 
L 47.127273 -15.709091 
L 49.264564 -24.274586 
L 51.401855 -32.840081 
L 53.539147 -41.405576 
L 55.676438 -49.971071 
L 57.813729 -58.536566 
L 59.95102 -67.102061 
L 62.088312 -75.667556 
L 64.225603 -84.233051 
L 66.362894 -92.798546 
L 68.500186 -101.36404 
L 70.637477 -109.929535 
L 72.774768 -118.49503 
L 74.912059 -127.060525 
L 77.049351 -135.62602 
L 79.186642 -144.191515 
L 81.323933 -152.75701 
L 83.461224 -161.322505 
L 85.598516 -169.888 
L 87.735807 -178.453495 
L 89.873098 -187.01899 
L 92.01039 -195.584485 
L 94.147681 -204.14998 
L 96.284972 -212.715475 
L 98.422263 -221.28097 
L 100.559555 -221.28097 
L 102.696846 -212.715475 
L 104.834137 -204.14998 
L 106.971429 -195.584485 
L 109.10872 -187.01899 
L 111.246011 -178.453495 
L 113.383302 -169.888 
L 115.520594 -161.322505 
L 117.657885 -152.75701 
L 119.795176 -144.191515 
L 121.932468 -135.62602 
L 124.069759 -127.060525 
L 126.20705 -118.49503 
L 128.344341 -109.929535 
L 130.481633 -101.36404 
L 132.618924 -92.798546 
L 134.756215 -84.233051 
L 136.893506 -75.667556 
L 139.030798 -67.102061 
L 141.168089 -58.536566 
L 143.30538 -49.971071 
L 145.442672 -41.405576 
L 147.579963 -32.840081 
L 149.717254 -24.274586 
L 151.854545 -15.709091 
L 151.854545 -15.709091 
L 151.854545 -15.709091 
L 149.717254 -15.709091 
L 147.579963 -15.709091 
L 145.442672 -15.709091 
L 143.30538 -15.709091 
L 141.168089 -15.709091 
L 139.030798 -15.709091 
L 136.893506 -15.709091 
L 134.756215 -15.709091 
L 132.618924 -15.709091 
L 130.481633 -15.709091 
L 128.344341 -15.709091 
L 126.20705 -15.709091 
L 124.069759 -15.709091 
L 121.932468 -15.709091 
L 119.795176 -15.709091 
L 117.657885 -15.709091 
L 115.520594 -15.709091 
L 113.383302 -15.709091 
L 111.246011 -15.709091 
L 109.10872 -15.709091 
L 106.971429 -15.709091 
L 104.834137 -15.709091 
L 102.696846 -15.709091 
L 100.559555 -15.709091 
L 98.422263 -15.709091 
L 96.284972 -15.709091 
L 94.147681 -15.709091 
L 92.01039 -15.709091 
L 89.873098 -15.709091 
L 87.735807 -15.709091 
L 85.598516 -15.709091 
L 83.461224 -15.709091 
L 81.323933 -15.709091 
L 79.186642 -15.709091 
L 77.049351 -15.709091 
L 74.912059 -15.709091 
L 72.774768 -15.709091 
L 70.637477 -15.709091 
L 68.500186 -15.709091 
L 66.362894 -15.709091 
L 64.225603 -15.709091 
L 62.088312 -15.709091 
L 59.95102 -15.709091 
L 57.813729 -15.709091 
L 55.676438 -15.709091 
L 53.539147 -15.709091 
L 51.401855 -15.709091 
L 49.264564 -15.709091 
L 47.127273 -15.709091 
z
" style="stroke: #008000; stroke-opacity: 0.2"/>
    </defs>
    <g clip-path="url(#p736e52d1e4)">
     <use xlink:href="#m15c2c3b1f7" x="0" y="345.6" style="fill: #008000; fill-opacity: 0.2; stroke: #008000; stroke-opacity: 0.2"/>
    </g>
   </g>
   <g id="PolyCollection_3">
    <defs>
     <path id="ma133364144" d="M 86.4 -15.709091 
L 86.4 -15.709091 
L 88.537291 -25.395413 
L 90.674583 -35.081735 
L 92.811874 -44.768058 
L 94.949165 -54.45438 
L 97.086456 -64.140702 
L 99.223748 -73.827025 
L 101.361039 -83.513347 
L 103.49833 -93.199669 
L 105.635622 -102.885991 
L 107.772913 -112.572314 
L 109.910204 -122.258636 
L 112.047495 -131.944958 
L 114.184787 -141.631281 
L 116.322078 -151.317603 
L 118.459369 -161.003925 
L 120.59666 -170.690247 
L 122.733952 -180.37657 
L 124.871243 -190.062892 
L 127.008534 -199.749214 
L 129.145826 -209.435537 
L 131.283117 -219.121859 
L 133.420408 -228.808181 
L 135.557699 -238.494503 
L 137.694991 -248.180826 
L 139.832282 -248.180826 
L 141.969573 -238.494503 
L 144.106865 -228.808181 
L 146.244156 -219.121859 
L 148.381447 -209.435537 
L 150.518738 -199.749214 
L 152.65603 -190.062892 
L 154.793321 -180.37657 
L 156.930612 -170.690247 
L 159.067904 -161.003925 
L 161.205195 -151.317603 
L 163.342486 -141.631281 
L 165.479777 -131.944958 
L 167.617069 -122.258636 
L 169.75436 -112.572314 
L 171.891651 -102.885991 
L 174.028942 -93.199669 
L 176.166234 -83.513347 
L 178.303525 -73.827025 
L 180.440816 -64.140702 
L 182.578108 -54.45438 
L 184.715399 -44.768058 
L 186.85269 -35.081735 
L 188.989981 -25.395413 
L 191.127273 -15.709091 
L 191.127273 -15.709091 
L 191.127273 -15.709091 
L 188.989981 -15.709091 
L 186.85269 -15.709091 
L 184.715399 -15.709091 
L 182.578108 -15.709091 
L 180.440816 -15.709091 
L 178.303525 -15.709091 
L 176.166234 -15.709091 
L 174.028942 -15.709091 
L 171.891651 -15.709091 
L 169.75436 -15.709091 
L 167.617069 -15.709091 
L 165.479777 -15.709091 
L 163.342486 -15.709091 
L 161.205195 -15.709091 
L 159.067904 -15.709091 
L 156.930612 -15.709091 
L 154.793321 -15.709091 
L 152.65603 -15.709091 
L 150.518738 -15.709091 
L 148.381447 -15.709091 
L 146.244156 -15.709091 
L 144.106865 -15.709091 
L 141.969573 -15.709091 
L 139.832282 -15.709091 
L 137.694991 -15.709091 
L 135.557699 -15.709091 
L 133.420408 -15.709091 
L 131.283117 -15.709091 
L 129.145826 -15.709091 
L 127.008534 -15.709091 
L 124.871243 -15.709091 
L 122.733952 -15.709091 
L 120.59666 -15.709091 
L 118.459369 -15.709091 
L 116.322078 -15.709091 
L 114.184787 -15.709091 
L 112.047495 -15.709091 
L 109.910204 -15.709091 
L 107.772913 -15.709091 
L 105.635622 -15.709091 
L 103.49833 -15.709091 
L 101.361039 -15.709091 
L 99.223748 -15.709091 
L 97.086456 -15.709091 
L 94.949165 -15.709091 
L 92.811874 -15.709091 
L 90.674583 -15.709091 
L 88.537291 -15.709091 
L 86.4 -15.709091 
z
" style="stroke: #008000; stroke-opacity: 0.2"/>
    </defs>
    <g clip-path="url(#p736e52d1e4)">
     <use xlink:href="#ma133364144" x="0" y="345.6" style="fill: #008000; fill-opacity: 0.2; stroke: #008000; stroke-opacity: 0.2"/>
    </g>
   </g>
   <g id="PolyCollection_4">
    <defs>
     <path id="mc2a9ad1adc" d="M 125.672727 -15.709091 
L 125.672727 -15.709091 
L 127.810019 -26.190653 
L 129.94731 -36.672215 
L 132.084601 -47.153777 
L 134.221892 -57.635339 
L 136.359184 -68.116901 
L 138.496475 -78.598462 
L 140.633766 -89.080024 
L 142.771058 -99.561586 
L 144.908349 -110.043148 
L 147.04564 -120.52471 
L 149.182931 -131.006272 
L 151.320223 -141.487834 
L 153.457514 -151.969396 
L 155.594805 -162.450958 
L 157.732096 -172.93252 
L 159.869388 -183.414082 
L 162.006679 -193.895644 
L 164.14397 -204.377206 
L 166.281262 -214.858768 
L 168.418553 -225.34033 
L 170.555844 -235.821891 
L 172.693135 -246.303453 
L 174.830427 -256.785015 
L 176.967718 -267.266577 
L 179.105009 -267.266577 
L 181.242301 -256.785015 
L 183.379592 -246.303453 
L 185.516883 -235.821891 
L 187.654174 -225.34033 
L 189.791466 -214.858768 
L 191.928757 -204.377206 
L 194.066048 -193.895644 
L 196.20334 -183.414082 
L 198.340631 -172.93252 
L 200.477922 -162.450958 
L 202.615213 -151.969396 
L 204.752505 -141.487834 
L 206.889796 -131.006272 
L 209.027087 -120.52471 
L 211.164378 -110.043148 
L 213.30167 -99.561586 
L 215.438961 -89.080024 
L 217.576252 -78.598462 
L 219.713544 -68.116901 
L 221.850835 -57.635339 
L 223.988126 -47.153777 
L 226.125417 -36.672215 
L 228.262709 -26.190653 
L 230.4 -15.709091 
L 230.4 -15.709091 
L 230.4 -15.709091 
L 228.262709 -15.709091 
L 226.125417 -15.709091 
L 223.988126 -15.709091 
L 221.850835 -15.709091 
L 219.713544 -15.709091 
L 217.576252 -15.709091 
L 215.438961 -15.709091 
L 213.30167 -15.709091 
L 211.164378 -15.709091 
L 209.027087 -15.709091 
L 206.889796 -15.709091 
L 204.752505 -15.709091 
L 202.615213 -15.709091 
L 200.477922 -15.709091 
L 198.340631 -15.709091 
L 196.20334 -15.709091 
L 194.066048 -15.709091 
L 191.928757 -15.709091 
L 189.791466 -15.709091 
L 187.654174 -15.709091 
L 185.516883 -15.709091 
L 183.379592 -15.709091 
L 181.242301 -15.709091 
L 179.105009 -15.709091 
L 176.967718 -15.709091 
L 174.830427 -15.709091 
L 172.693135 -15.709091 
L 170.555844 -15.709091 
L 168.418553 -15.709091 
L 166.281262 -15.709091 
L 164.14397 -15.709091 
L 162.006679 -15.709091 
L 159.869388 -15.709091 
L 157.732096 -15.709091 
L 155.594805 -15.709091 
L 153.457514 -15.709091 
L 151.320223 -15.709091 
L 149.182931 -15.709091 
L 147.04564 -15.709091 
L 144.908349 -15.709091 
L 142.771058 -15.709091 
L 140.633766 -15.709091 
L 138.496475 -15.709091 
L 136.359184 -15.709091 
L 134.221892 -15.709091 
L 132.084601 -15.709091 
L 129.94731 -15.709091 
L 127.810019 -15.709091 
L 125.672727 -15.709091 
z
" style="stroke: #008000; stroke-opacity: 0.2"/>
    </defs>
    <g clip-path="url(#p736e52d1e4)">
     <use xlink:href="#mc2a9ad1adc" x="0" y="345.6" style="fill: #008000; fill-opacity: 0.2; stroke: #008000; stroke-opacity: 0.2"/>
    </g>
   </g>
   <g id="PolyCollection_5">
    <defs>
     <path id="m738de277d0" d="M 204.218182 -15.709091 
L 204.218182 -15.709091 
L 206.355473 -27.31148 
L 208.492764 -38.913869 
L 210.630056 -50.516259 
L 212.767347 -62.118648 
L 214.904638 -73.721037 
L 217.041929 -85.323426 
L 219.179221 -96.925816 
L 221.316512 -108.528205 
L 223.453803 -120.130594 
L 225.591095 -131.732984 
L 227.728386 -143.335373 
L 229.865677 -154.937762 
L 232.002968 -166.540151 
L 234.14026 -178.142541 
L 236.277551 -189.74493 
L 238.414842 -201.347319 
L 240.552134 -212.949708 
L 242.689425 -224.552098 
L 244.826716 -236.154487 
L 246.964007 -247.756876 
L 249.101299 -259.359265 
L 251.23859 -270.961655 
L 253.375881 -282.564044 
L 255.513173 -294.166433 
L 257.650464 -294.166433 
L 259.787755 -282.564044 
L 261.925046 -270.961655 
L 264.062338 -259.359265 
L 266.199629 -247.756876 
L 268.33692 -236.154487 
L 270.474212 -224.552098 
L 272.611503 -212.949708 
L 274.748794 -201.347319 
L 276.886085 -189.74493 
L 279.023377 -178.142541 
L 281.160668 -166.540151 
L 283.297959 -154.937762 
L 285.43525 -143.335373 
L 287.572542 -131.732984 
L 289.709833 -120.130594 
L 291.847124 -108.528205 
L 293.984416 -96.925816 
L 296.121707 -85.323426 
L 298.258998 -73.721037 
L 300.396289 -62.118648 
L 302.533581 -50.516259 
L 304.670872 -38.913869 
L 306.808163 -27.31148 
L 308.945455 -15.709091 
L 308.945455 -15.709091 
L 308.945455 -15.709091 
L 306.808163 -15.709091 
L 304.670872 -15.709091 
L 302.533581 -15.709091 
L 300.396289 -15.709091 
L 298.258998 -15.709091 
L 296.121707 -15.709091 
L 293.984416 -15.709091 
L 291.847124 -15.709091 
L 289.709833 -15.709091 
L 287.572542 -15.709091 
L 285.43525 -15.709091 
L 283.297959 -15.709091 
L 281.160668 -15.709091 
L 279.023377 -15.709091 
L 276.886085 -15.709091 
L 274.748794 -15.709091 
L 272.611503 -15.709091 
L 270.474212 -15.709091 
L 268.33692 -15.709091 
L 266.199629 -15.709091 
L 264.062338 -15.709091 
L 261.925046 -15.709091 
L 259.787755 -15.709091 
L 257.650464 -15.709091 
L 255.513173 -15.709091 
L 253.375881 -15.709091 
L 251.23859 -15.709091 
L 249.101299 -15.709091 
L 246.964007 -15.709091 
L 244.826716 -15.709091 
L 242.689425 -15.709091 
L 240.552134 -15.709091 
L 238.414842 -15.709091 
L 236.277551 -15.709091 
L 234.14026 -15.709091 
L 232.002968 -15.709091 
L 229.865677 -15.709091 
L 227.728386 -15.709091 
L 225.591095 -15.709091 
L 223.453803 -15.709091 
L 221.316512 -15.709091 
L 219.179221 -15.709091 
L 217.041929 -15.709091 
L 214.904638 -15.709091 
L 212.767347 -15.709091 
L 210.630056 -15.709091 
L 208.492764 -15.709091 
L 206.355473 -15.709091 
L 204.218182 -15.709091 
z
" style="stroke: #008000; stroke-opacity: 0.2"/>
    </defs>
    <g clip-path="url(#p736e52d1e4)">
     <use xlink:href="#m738de277d0" x="0" y="345.6" style="fill: #008000; fill-opacity: 0.2; stroke: #008000; stroke-opacity: 0.2"/>
    </g>
   </g>
   <g id="PolyCollection_6">
    <defs>
     <path id="mdad53a648a" d="M 335.127273 -15.709091 
L 335.127273 -15.709091 
L 337.264564 -28.532839 
L 339.401855 -41.356586 
L 341.539147 -54.180334 
L 343.676438 -67.004082 
L 345.813729 -79.827829 
L 347.95102 -92.651577 
L 350.088312 -105.475325 
L 352.225603 -118.299072 
L 354.362894 -131.12282 
L 356.500186 -143.946568 
L 358.637477 -156.770315 
L 360.774768 -169.594063 
L 362.912059 -182.417811 
L 365.049351 -195.241558 
L 367.186642 -208.065306 
L 369.323933 -220.889054 
L 371.461224 -233.712801 
L 373.598516 -246.536549 
L 375.735807 -259.360297 
L 377.873098 -272.184045 
L 380.01039 -285.007792 
L 382.147681 -297.83154 
L 384.284972 -310.655288 
L 386.422263 -323.479035 
L 388.559555 -323.479035 
L 390.696846 -310.655288 
L 392.834137 -297.83154 
L 394.971429 -285.007792 
L 397.10872 -272.184045 
L 399.246011 -259.360297 
L 401.383302 -246.536549 
L 403.520594 -233.712801 
L 405.657885 -220.889054 
L 407.795176 -208.065306 
L 409.932468 -195.241558 
L 412.069759 -182.417811 
L 414.20705 -169.594063 
L 416.344341 -156.770315 
L 418.481633 -143.946568 
L 420.618924 -131.12282 
L 422.756215 -118.299072 
L 424.893506 -105.475325 
L 427.030798 -92.651577 
L 429.168089 -79.827829 
L 431.30538 -67.004082 
L 433.442672 -54.180334 
L 435.579963 -41.356586 
L 437.717254 -28.532839 
L 439.854545 -15.709091 
L 439.854545 -15.709091 
L 439.854545 -15.709091 
L 437.717254 -15.709091 
L 435.579963 -15.709091 
L 433.442672 -15.709091 
L 431.30538 -15.709091 
L 429.168089 -15.709091 
L 427.030798 -15.709091 
L 424.893506 -15.709091 
L 422.756215 -15.709091 
L 420.618924 -15.709091 
L 418.481633 -15.709091 
L 416.344341 -15.709091 
L 414.20705 -15.709091 
L 412.069759 -15.709091 
L 409.932468 -15.709091 
L 407.795176 -15.709091 
L 405.657885 -15.709091 
L 403.520594 -15.709091 
L 401.383302 -15.709091 
L 399.246011 -15.709091 
L 397.10872 -15.709091 
L 394.971429 -15.709091 
L 392.834137 -15.709091 
L 390.696846 -15.709091 
L 388.559555 -15.709091 
L 386.422263 -15.709091 
L 384.284972 -15.709091 
L 382.147681 -15.709091 
L 380.01039 -15.709091 
L 377.873098 -15.709091 
L 375.735807 -15.709091 
L 373.598516 -15.709091 
L 371.461224 -15.709091 
L 369.323933 -15.709091 
L 367.186642 -15.709091 
L 365.049351 -15.709091 
L 362.912059 -15.709091 
L 360.774768 -15.709091 
L 358.637477 -15.709091 
L 356.500186 -15.709091 
L 354.362894 -15.709091 
L 352.225603 -15.709091 
L 350.088312 -15.709091 
L 347.95102 -15.709091 
L 345.813729 -15.709091 
L 343.676438 -15.709091 
L 341.539147 -15.709091 
L 339.401855 -15.709091 
L 337.264564 -15.709091 
L 335.127273 -15.709091 
z
" style="stroke: #008000; stroke-opacity: 0.2"/>
    </defs>
    <g clip-path="url(#p736e52d1e4)">
     <use xlink:href="#mdad53a648a" x="0" y="345.6" style="fill: #008000; fill-opacity: 0.2; stroke: #008000; stroke-opacity: 0.2"/>
    </g>
   </g>
   <g id="matplotlib.axis_1">
    <g id="xtick_1">
     <g id="line2d_1">
      <defs>
       <path id="me5c68f72bb" d="M 0 0 
L 0 3.5 
" style="stroke: #000000; stroke-width: 0.8"/>
      </defs>
      <g>
       <use xlink:href="#me5c68f72bb" x="20.945455" y="345.6" style="stroke: #000000; stroke-width: 0.8"/>
      </g>
     </g>
     <g id="text_1">
      <!-- −2 -->
      <g transform="translate(13.574361 360.198437)scale(0.1 -0.1)">
       <defs>
        <path id="DejaVuSans-2212" d="M 678 2272 
L 4684 2272 
L 4684 1741 
L 678 1741 
L 678 2272 
z
" transform="scale(0.015625)"/>
        <path id="DejaVuSans-32" d="M 1228 531 
L 3431 531 
L 3431 0 
L 469 0 
L 469 531 
Q 828 903 1448 1529 
Q 2069 2156 2228 2338 
Q 2531 2678 2651 2914 
Q 2772 3150 2772 3378 
Q 2772 3750 2511 3984 
Q 2250 4219 1831 4219 
Q 1534 4219 1204 4116 
Q 875 4013 500 3803 
L 500 4441 
Q 881 4594 1212 4672 
Q 1544 4750 1819 4750 
Q 2544 4750 2975 4387 
Q 3406 4025 3406 3419 
Q 3406 3131 3298 2873 
Q 3191 2616 2906 2266 
Q 2828 2175 2409 1742 
Q 1991 1309 1228 531 
z
" transform="scale(0.015625)"/>
       </defs>
       <use xlink:href="#DejaVuSans-2212"/>
       <use xlink:href="#DejaVuSans-32" x="83.789062"/>
      </g>
     </g>
    </g>
    <g id="xtick_2">
     <g id="line2d_2">
      <g>
       <use xlink:href="#me5c68f72bb" x="73.309091" y="345.6" style="stroke: #000000; stroke-width: 0.8"/>
      </g>
     </g>
     <g id="text_2">
      <!-- 0 -->
      <g transform="translate(70.127841 360.198437)scale(0.1 -0.1)">
       <defs>
        <path id="DejaVuSans-30" d="M 2034 4250 
Q 1547 4250 1301 3770 
Q 1056 3291 1056 2328 
Q 1056 1369 1301 889 
Q 1547 409 2034 409 
Q 2525 409 2770 889 
Q 3016 1369 3016 2328 
Q 3016 3291 2770 3770 
Q 2525 4250 2034 4250 
z
M 2034 4750 
Q 2819 4750 3233 4129 
Q 3647 3509 3647 2328 
Q 3647 1150 3233 529 
Q 2819 -91 2034 -91 
Q 1250 -91 836 529 
Q 422 1150 422 2328 
Q 422 3509 836 4129 
Q 1250 4750 2034 4750 
z
" transform="scale(0.015625)"/>
       </defs>
       <use xlink:href="#DejaVuSans-30"/>
      </g>
     </g>
    </g>
    <g id="xtick_3">
     <g id="line2d_3">
      <g>
       <use xlink:href="#me5c68f72bb" x="125.672727" y="345.6" style="stroke: #000000; stroke-width: 0.8"/>
      </g>
     </g>
     <g id="text_3">
      <!-- 2 -->
      <g transform="translate(122.491477 360.198437)scale(0.1 -0.1)">
       <use xlink:href="#DejaVuSans-32"/>
      </g>
     </g>
    </g>
    <g id="xtick_4">
     <g id="line2d_4">
      <g>
       <use xlink:href="#me5c68f72bb" x="178.036364" y="345.6" style="stroke: #000000; stroke-width: 0.8"/>
      </g>
     </g>
     <g id="text_4">
      <!-- 4 -->
      <g transform="translate(174.855114 360.198437)scale(0.1 -0.1)">
       <defs>
        <path id="DejaVuSans-34" d="M 2419 4116 
L 825 1625 
L 2419 1625 
L 2419 4116 
z
M 2253 4666 
L 3047 4666 
L 3047 1625 
L 3713 1625 
L 3713 1100 
L 3047 1100 
L 3047 0 
L 2419 0 
L 2419 1100 
L 313 1100 
L 313 1709 
L 2253 4666 
z
" transform="scale(0.015625)"/>
       </defs>
       <use xlink:href="#DejaVuSans-34"/>
      </g>
     </g>
    </g>
    <g id="xtick_5">
     <g id="line2d_5">
      <g>
       <use xlink:href="#me5c68f72bb" x="230.4" y="345.6" style="stroke: #000000; stroke-width: 0.8"/>
      </g>
     </g>
     <g id="text_5">
      <!-- 6 -->
      <g transform="translate(227.21875 360.198437)scale(0.1 -0.1)">
       <defs>
        <path id="DejaVuSans-36" d="M 2113 2584 
Q 1688 2584 1439 2293 
Q 1191 2003 1191 1497 
Q 1191 994 1439 701 
Q 1688 409 2113 409 
Q 2538 409 2786 701 
Q 3034 994 3034 1497 
Q 3034 2003 2786 2293 
Q 2538 2584 2113 2584 
z
M 3366 4563 
L 3366 3988 
Q 3128 4100 2886 4159 
Q 2644 4219 2406 4219 
Q 1781 4219 1451 3797 
Q 1122 3375 1075 2522 
Q 1259 2794 1537 2939 
Q 1816 3084 2150 3084 
Q 2853 3084 3261 2657 
Q 3669 2231 3669 1497 
Q 3669 778 3244 343 
Q 2819 -91 2113 -91 
Q 1303 -91 875 529 
Q 447 1150 447 2328 
Q 447 3434 972 4092 
Q 1497 4750 2381 4750 
Q 2619 4750 2861 4703 
Q 3103 4656 3366 4563 
z
" transform="scale(0.015625)"/>
       </defs>
       <use xlink:href="#DejaVuSans-36"/>
      </g>
     </g>
    </g>
    <g id="xtick_6">
     <g id="line2d_6">
      <g>
       <use xlink:href="#me5c68f72bb" x="282.763636" y="345.6" style="stroke: #000000; stroke-width: 0.8"/>
      </g>
     </g>
     <g id="text_6">
      <!-- 8 -->
      <g transform="translate(279.582386 360.198437)scale(0.1 -0.1)">
       <defs>
        <path id="DejaVuSans-38" d="M 2034 2216 
Q 1584 2216 1326 1975 
Q 1069 1734 1069 1313 
Q 1069 891 1326 650 
Q 1584 409 2034 409 
Q 2484 409 2743 651 
Q 3003 894 3003 1313 
Q 3003 1734 2745 1975 
Q 2488 2216 2034 2216 
z
M 1403 2484 
Q 997 2584 770 2862 
Q 544 3141 544 3541 
Q 544 4100 942 4425 
Q 1341 4750 2034 4750 
Q 2731 4750 3128 4425 
Q 3525 4100 3525 3541 
Q 3525 3141 3298 2862 
Q 3072 2584 2669 2484 
Q 3125 2378 3379 2068 
Q 3634 1759 3634 1313 
Q 3634 634 3220 271 
Q 2806 -91 2034 -91 
Q 1263 -91 848 271 
Q 434 634 434 1313 
Q 434 1759 690 2068 
Q 947 2378 1403 2484 
z
M 1172 3481 
Q 1172 3119 1398 2916 
Q 1625 2713 2034 2713 
Q 2441 2713 2670 2916 
Q 2900 3119 2900 3481 
Q 2900 3844 2670 4047 
Q 2441 4250 2034 4250 
Q 1625 4250 1398 4047 
Q 1172 3844 1172 3481 
z
" transform="scale(0.015625)"/>
       </defs>
       <use xlink:href="#DejaVuSans-38"/>
      </g>
     </g>
    </g>
    <g id="xtick_7">
     <g id="line2d_7">
      <g>
       <use xlink:href="#me5c68f72bb" x="335.127273" y="345.6" style="stroke: #000000; stroke-width: 0.8"/>
      </g>
     </g>
     <g id="text_7">
      <!-- 10 -->
      <g transform="translate(328.764773 360.198437)scale(0.1 -0.1)">
       <defs>
        <path id="DejaVuSans-31" d="M 794 531 
L 1825 531 
L 1825 4091 
L 703 3866 
L 703 4441 
L 1819 4666 
L 2450 4666 
L 2450 531 
L 3481 531 
L 3481 0 
L 794 0 
L 794 531 
z
" transform="scale(0.015625)"/>
       </defs>
       <use xlink:href="#DejaVuSans-31"/>
       <use xlink:href="#DejaVuSans-30" x="63.623047"/>
      </g>
     </g>
    </g>
    <g id="xtick_8">
     <g id="line2d_8">
      <g>
       <use xlink:href="#me5c68f72bb" x="387.490909" y="345.6" style="stroke: #000000; stroke-width: 0.8"/>
      </g>
     </g>
     <g id="text_8">
      <!-- 12 -->
      <g transform="translate(381.128409 360.198437)scale(0.1 -0.1)">
       <use xlink:href="#DejaVuSans-31"/>
       <use xlink:href="#DejaVuSans-32" x="63.623047"/>
      </g>
     </g>
    </g>
    <g id="xtick_9">
     <g id="line2d_9">
      <g>
       <use xlink:href="#me5c68f72bb" x="439.854545" y="345.6" style="stroke: #000000; stroke-width: 0.8"/>
      </g>
     </g>
     <g id="text_9">
      <!-- 14 -->
      <g transform="translate(433.492045 360.198437)scale(0.1 -0.1)">
       <use xlink:href="#DejaVuSans-31"/>
       <use xlink:href="#DejaVuSans-34" x="63.623047"/>
      </g>
     </g>
    </g>
   </g>
   <g id="matplotlib.axis_2">
    <g id="ytick_1">
     <g id="line2d_10">
      <defs>
       <path id="m1c4bb4b7e5" d="M 0 0 
L -3.5 0 
" style="stroke: #000000; stroke-width: 0.8"/>
      </defs>
      <g>
       <use xlink:href="#m1c4bb4b7e5" x="0" y="329.890909" style="stroke: #000000; stroke-width: 0.8"/>
      </g>
     </g>
     <g id="text_10">
      <!-- 0 -->
      <g transform="translate(-13.3625 333.690128)scale(0.1 -0.1)">
       <use xlink:href="#DejaVuSans-30"/>
      </g>
     </g>
    </g>
    <g id="ytick_2">
     <g id="line2d_11">
      <g>
       <use xlink:href="#m1c4bb4b7e5" x="0" y="262.165551" style="stroke: #000000; stroke-width: 0.8"/>
      </g>
     </g>
     <g id="text_11">
      <!-- 1 -->
      <g transform="translate(-13.3625 265.96477)scale(0.1 -0.1)">
       <use xlink:href="#DejaVuSans-31"/>
      </g>
     </g>
    </g>
    <g id="ytick_3">
     <g id="line2d_12">
      <g>
       <use xlink:href="#m1c4bb4b7e5" x="0" y="194.440193" style="stroke: #000000; stroke-width: 0.8"/>
      </g>
     </g>
     <g id="text_12">
      <!-- 2 -->
      <g transform="translate(-13.3625 198.239412)scale(0.1 -0.1)">
       <use xlink:href="#DejaVuSans-32"/>
      </g>
     </g>
    </g>
    <g id="ytick_4">
     <g id="line2d_13">
      <g>
       <use xlink:href="#m1c4bb4b7e5" x="0" y="126.714835" style="stroke: #000000; stroke-width: 0.8"/>
      </g>
     </g>
     <g id="text_13">
      <!-- 3 -->
      <g transform="translate(-13.3625 130.514054)scale(0.1 -0.1)">
       <defs>
        <path id="DejaVuSans-33" d="M 2597 2516 
Q 3050 2419 3304 2112 
Q 3559 1806 3559 1356 
Q 3559 666 3084 287 
Q 2609 -91 1734 -91 
Q 1441 -91 1130 -33 
Q 819 25 488 141 
L 488 750 
Q 750 597 1062 519 
Q 1375 441 1716 441 
Q 2309 441 2620 675 
Q 2931 909 2931 1356 
Q 2931 1769 2642 2001 
Q 2353 2234 1838 2234 
L 1294 2234 
L 1294 2753 
L 1863 2753 
Q 2328 2753 2575 2939 
Q 2822 3125 2822 3475 
Q 2822 3834 2567 4026 
Q 2313 4219 1838 4219 
Q 1578 4219 1281 4162 
Q 984 4106 628 3988 
L 628 4550 
Q 988 4650 1302 4700 
Q 1616 4750 1894 4750 
Q 2613 4750 3031 4423 
Q 3450 4097 3450 3541 
Q 3450 3153 3228 2886 
Q 3006 2619 2597 2516 
z
" transform="scale(0.015625)"/>
       </defs>
       <use xlink:href="#DejaVuSans-33"/>
      </g>
     </g>
    </g>
    <g id="ytick_5">
     <g id="line2d_14">
      <g>
       <use xlink:href="#m1c4bb4b7e5" x="0" y="58.989477" style="stroke: #000000; stroke-width: 0.8"/>
      </g>
     </g>
     <g id="text_14">
      <!-- 4 -->
      <g transform="translate(-13.3625 62.788696)scale(0.1 -0.1)">
       <use xlink:href="#DejaVuSans-34"/>
      </g>
     </g>
    </g>
   </g>
   <g id="line2d_15">
    <path d="M 47.127273 194.440193 
L 50.565289 186.084305 
L 54.003306 178.647054 
L 57.441322 171.94631 
L 60.879339 165.849257 
L 64.317355 160.256051 
L 67.755372 155.089736 
L 71.193388 150.289746 
L 74.631405 145.807553 
L 78.069421 141.603676 
L 81.507438 137.645562 
L 84.945455 133.906058 
L 88.383471 130.362273 
L 91.821488 126.994735 
L 95.259504 123.786742 
L 98.697521 120.723856 
L 102.135537 117.793516 
L 105.573554 114.984726 
L 109.01157 112.287801 
L 112.449587 109.694171 
L 115.887603 107.196215 
L 119.32562 104.787125 
L 122.763636 102.460794 
L 126.201653 100.211725 
L 129.639669 98.03495 
L 133.077686 95.925966 
L 136.515702 93.880678 
L 139.953719 91.895351 
L 143.391736 89.966568 
L 146.829752 88.091199 
L 150.267769 86.266364 
L 153.705785 84.489411 
L 157.143802 82.757891 
L 160.581818 81.06954 
L 164.019835 79.422256 
L 167.457851 77.81409 
L 170.895868 76.243227 
L 174.333884 74.707974 
L 177.771901 73.206754 
L 181.209917 71.738089 
L 184.647934 70.300599 
L 188.08595 68.892987 
L 191.523967 67.514037 
L 194.961983 66.162603 
L 198.4 64.83761 
L 201.838017 63.538043 
L 205.276033 62.262945 
L 208.71405 61.01141 
L 212.152066 59.782584 
L 215.590083 58.575657 
L 219.028099 57.389863 
L 222.466116 56.224474 
L 225.904132 55.0788 
L 229.342149 53.952184 
L 232.780165 52.844004 
L 236.218182 51.753665 
L 239.656198 50.680602 
L 243.094215 49.624277 
L 246.532231 48.584174 
L 249.970248 47.559803 
L 253.408264 46.550696 
L 256.846281 45.556404 
L 260.284298 44.576499 
L 263.722314 43.61057 
L 267.160331 42.658223 
L 270.598347 41.719083 
L 274.036364 40.792788 
L 277.47438 39.878992 
L 280.912397 38.977361 
L 284.350413 38.087576 
L 287.78843 37.209329 
L 291.226446 36.342326 
L 294.664463 35.486282 
L 298.102479 34.640923 
L 301.540496 33.805987 
L 304.978512 32.981218 
L 308.416529 32.166373 
L 311.854545 31.361215 
L 315.292562 30.565517 
L 318.730579 29.779059 
L 322.168595 29.001629 
L 325.606612 28.233022 
L 329.044628 27.473041 
L 332.482645 26.721493 
L 335.920661 25.978193 
L 339.358678 25.242963 
L 342.796694 24.515628 
L 346.234711 23.796022 
L 349.672727 23.083982 
L 353.110744 22.37935 
L 356.54876 21.681974 
L 359.986777 20.991706 
L 363.424793 20.308402 
L 366.86281 19.631923 
L 370.300826 18.962135 
L 373.738843 18.298905 
L 377.17686 17.642108 
L 380.614876 16.99162 
L 384.052893 16.347319 
L 387.490909 15.709091 
" clip-path="url(#p736e52d1e4)" style="fill: none; stroke: #1f77b4; stroke-width: 1.5; stroke-linecap: square"/>
   </g>
   <g id="line2d_16">
    <path d="M 20.945455 329.890909 
L 23.082746 322.446241 
L 25.220037 315.001574 
L 27.357328 307.556906 
L 29.49462 300.112239 
L 31.631911 292.667571 
L 33.769202 285.222903 
L 35.906494 277.778236 
L 38.043785 270.333568 
L 40.181076 262.8889 
L 42.318367 255.444233 
L 44.455659 247.999565 
L 46.59295 240.554898 
L 48.730241 233.11023 
L 50.867532 225.665562 
L 53.004824 218.220895 
L 55.142115 210.776227 
L 57.279406 203.331559 
L 59.416698 195.886892 
L 61.553989 188.442224 
L 63.69128 180.997557 
L 65.828571 173.552889 
L 67.965863 166.108221 
L 70.103154 158.663554 
L 72.240445 151.218886 
L 74.377737 151.218886 
L 76.515028 158.663554 
L 78.652319 166.108221 
L 80.78961 173.552889 
L 82.926902 180.997557 
L 85.064193 188.442224 
L 87.201484 195.886892 
L 89.338776 203.331559 
L 91.476067 210.776227 
L 93.613358 218.220895 
L 95.750649 225.665562 
L 97.887941 233.11023 
L 100.025232 240.554898 
L 102.162523 247.999565 
L 104.299814 255.444233 
L 106.437106 262.8889 
L 108.574397 270.333568 
L 110.711688 277.778236 
L 112.84898 285.222903 
L 114.986271 292.667571 
L 117.123562 300.112239 
L 119.260853 307.556906 
L 121.398145 315.001574 
L 123.535436 322.446241 
L 125.672727 329.890909 
" clip-path="url(#p736e52d1e4)" style="fill: none; stroke-dasharray: 9.6,2.4,1.5,2.4; stroke-dashoffset: 0; stroke: #008000; stroke-width: 1.5"/>
   </g>
   <g id="line2d_17">
    <path d="M 47.127273 329.890909 
L 49.264564 321.325414 
L 51.401855 312.759919 
L 53.539147 304.194424 
L 55.676438 295.628929 
L 57.813729 287.063434 
L 59.95102 278.497939 
L 62.088312 269.932444 
L 64.225603 261.366949 
L 66.362894 252.801454 
L 68.500186 244.23596 
L 70.637477 235.670465 
L 72.774768 227.10497 
L 74.912059 218.539475 
L 77.049351 209.97398 
L 79.186642 201.408485 
L 81.323933 192.84299 
L 83.461224 184.277495 
L 85.598516 175.712 
L 87.735807 167.146505 
L 89.873098 158.58101 
L 92.01039 150.015515 
L 94.147681 141.45002 
L 96.284972 132.884525 
L 98.422263 124.31903 
L 100.559555 124.31903 
L 102.696846 132.884525 
L 104.834137 141.45002 
L 106.971429 150.015515 
L 109.10872 158.58101 
L 111.246011 167.146505 
L 113.383302 175.712 
L 115.520594 184.277495 
L 117.657885 192.84299 
L 119.795176 201.408485 
L 121.932468 209.97398 
L 124.069759 218.539475 
L 126.20705 227.10497 
L 128.344341 235.670465 
L 130.481633 244.23596 
L 132.618924 252.801454 
L 134.756215 261.366949 
L 136.893506 269.932444 
L 139.030798 278.497939 
L 141.168089 287.063434 
L 143.30538 295.628929 
L 145.442672 304.194424 
L 147.579963 312.759919 
L 149.717254 321.325414 
L 151.854545 329.890909 
" clip-path="url(#p736e52d1e4)" style="fill: none; stroke-dasharray: 9.6,2.4,1.5,2.4; stroke-dashoffset: 0; stroke: #008000; stroke-width: 1.5"/>
   </g>
   <g id="line2d_18">
    <path d="M 86.4 329.890909 
L 88.537291 320.204587 
L 90.674583 310.518265 
L 92.811874 300.831942 
L 94.949165 291.14562 
L 97.086456 281.459298 
L 99.223748 271.772975 
L 101.361039 262.086653 
L 103.49833 252.400331 
L 105.635622 242.714009 
L 107.772913 233.027686 
L 109.910204 223.341364 
L 112.047495 213.655042 
L 114.184787 203.968719 
L 116.322078 194.282397 
L 118.459369 184.596075 
L 120.59666 174.909753 
L 122.733952 165.22343 
L 124.871243 155.537108 
L 127.008534 145.850786 
L 129.145826 136.164463 
L 131.283117 126.478141 
L 133.420408 116.791819 
L 135.557699 107.105497 
L 137.694991 97.419174 
L 139.832282 97.419174 
L 141.969573 107.105497 
L 144.106865 116.791819 
L 146.244156 126.478141 
L 148.381447 136.164463 
L 150.518738 145.850786 
L 152.65603 155.537108 
L 154.793321 165.22343 
L 156.930612 174.909753 
L 159.067904 184.596075 
L 161.205195 194.282397 
L 163.342486 203.968719 
L 165.479777 213.655042 
L 167.617069 223.341364 
L 169.75436 233.027686 
L 171.891651 242.714009 
L 174.028942 252.400331 
L 176.166234 262.086653 
L 178.303525 271.772975 
L 180.440816 281.459298 
L 182.578108 291.14562 
L 184.715399 300.831942 
L 186.85269 310.518265 
L 188.989981 320.204587 
L 191.127273 329.890909 
" clip-path="url(#p736e52d1e4)" style="fill: none; stroke-dasharray: 9.6,2.4,1.5,2.4; stroke-dashoffset: 0; stroke: #008000; stroke-width: 1.5"/>
   </g>
   <g id="line2d_19">
    <path d="M 125.672727 329.890909 
L 127.810019 319.409347 
L 129.94731 308.927785 
L 132.084601 298.446223 
L 134.221892 287.964661 
L 136.359184 277.483099 
L 138.496475 267.001538 
L 140.633766 256.519976 
L 142.771058 246.038414 
L 144.908349 235.556852 
L 147.04564 225.07529 
L 149.182931 214.593728 
L 151.320223 204.112166 
L 153.457514 193.630604 
L 155.594805 183.149042 
L 157.732096 172.66748 
L 159.869388 162.185918 
L 162.006679 151.704356 
L 164.14397 141.222794 
L 166.281262 130.741232 
L 168.418553 120.25967 
L 170.555844 109.778109 
L 172.693135 99.296547 
L 174.830427 88.814985 
L 176.967718 78.333423 
L 179.105009 78.333423 
L 181.242301 88.814985 
L 183.379592 99.296547 
L 185.516883 109.778109 
L 187.654174 120.25967 
L 189.791466 130.741232 
L 191.928757 141.222794 
L 194.066048 151.704356 
L 196.20334 162.185918 
L 198.340631 172.66748 
L 200.477922 183.149042 
L 202.615213 193.630604 
L 204.752505 204.112166 
L 206.889796 214.593728 
L 209.027087 225.07529 
L 211.164378 235.556852 
L 213.30167 246.038414 
L 215.438961 256.519976 
L 217.576252 267.001538 
L 219.713544 277.483099 
L 221.850835 287.964661 
L 223.988126 298.446223 
L 226.125417 308.927785 
L 228.262709 319.409347 
L 230.4 329.890909 
" clip-path="url(#p736e52d1e4)" style="fill: none; stroke-dasharray: 9.6,2.4,1.5,2.4; stroke-dashoffset: 0; stroke: #008000; stroke-width: 1.5"/>
   </g>
   <g id="line2d_20">
    <path d="M 204.218182 329.890909 
L 206.355473 318.28852 
L 208.492764 306.686131 
L 210.630056 295.083741 
L 212.767347 283.481352 
L 214.904638 271.878963 
L 217.041929 260.276574 
L 219.179221 248.674184 
L 221.316512 237.071795 
L 223.453803 225.469406 
L 225.591095 213.867016 
L 227.728386 202.264627 
L 229.865677 190.662238 
L 232.002968 179.059849 
L 234.14026 167.457459 
L 236.277551 155.85507 
L 238.414842 144.252681 
L 240.552134 132.650292 
L 242.689425 121.047902 
L 244.826716 109.445513 
L 246.964007 97.843124 
L 249.101299 86.240735 
L 251.23859 74.638345 
L 253.375881 63.035956 
L 255.513173 51.433567 
L 257.650464 51.433567 
L 259.787755 63.035956 
L 261.925046 74.638345 
L 264.062338 86.240735 
L 266.199629 97.843124 
L 268.33692 109.445513 
L 270.474212 121.047902 
L 272.611503 132.650292 
L 274.748794 144.252681 
L 276.886085 155.85507 
L 279.023377 167.457459 
L 281.160668 179.059849 
L 283.297959 190.662238 
L 285.43525 202.264627 
L 287.572542 213.867016 
L 289.709833 225.469406 
L 291.847124 237.071795 
L 293.984416 248.674184 
L 296.121707 260.276574 
L 298.258998 271.878963 
L 300.396289 283.481352 
L 302.533581 295.083741 
L 304.670872 306.686131 
L 306.808163 318.28852 
L 308.945455 329.890909 
" clip-path="url(#p736e52d1e4)" style="fill: none; stroke-dasharray: 9.6,2.4,1.5,2.4; stroke-dashoffset: 0; stroke: #008000; stroke-width: 1.5"/>
   </g>
   <g id="line2d_21">
    <path d="M 335.127273 329.890909 
L 337.264564 317.067161 
L 339.401855 304.243414 
L 341.539147 291.419666 
L 343.676438 278.595918 
L 345.813729 265.772171 
L 347.95102 252.948423 
L 350.088312 240.124675 
L 352.225603 227.300928 
L 354.362894 214.47718 
L 356.500186 201.653432 
L 358.637477 188.829685 
L 360.774768 176.005937 
L 362.912059 163.182189 
L 365.049351 150.358442 
L 367.186642 137.534694 
L 369.323933 124.710946 
L 371.461224 111.887199 
L 373.598516 99.063451 
L 375.735807 86.239703 
L 377.873098 73.415955 
L 380.01039 60.592208 
L 382.147681 47.76846 
L 384.284972 34.944712 
L 386.422263 22.120965 
L 388.559555 22.120965 
L 390.696846 34.944712 
L 392.834137 47.76846 
L 394.971429 60.592208 
L 397.10872 73.415955 
L 399.246011 86.239703 
L 401.383302 99.063451 
L 403.520594 111.887199 
L 405.657885 124.710946 
L 407.795176 137.534694 
L 409.932468 150.358442 
L 412.069759 163.182189 
L 414.20705 176.005937 
L 416.344341 188.829685 
L 418.481633 201.653432 
L 420.618924 214.47718 
L 422.756215 227.300928 
L 424.893506 240.124675 
L 427.030798 252.948423 
L 429.168089 265.772171 
L 431.30538 278.595918 
L 433.442672 291.419666 
L 435.579963 304.243414 
L 437.717254 317.067161 
L 439.854545 329.890909 
" clip-path="url(#p736e52d1e4)" style="fill: none; stroke-dasharray: 9.6,2.4,1.5,2.4; stroke-dashoffset: 0; stroke: #008000; stroke-width: 1.5"/>
   </g>
   <g id="line2d_22">
    <path d="M 73.309091 147.496552 
L 99.490909 120.036283 
L 138.763636 92.576013 
L 178.036364 73.092642 
L 256.581818 45.632372 
L 387.490909 15.709091 
" clip-path="url(#p736e52d1e4)" style="fill: none; stroke: #ff0000; stroke-width: 0.5; stroke-linecap: square"/>
   </g>
   <g id="patch_3">
    <path d="M 0 345.6 
L 0 0 
" style="fill: none; stroke: #000000; stroke-width: 0.8; stroke-linejoin: miter; stroke-linecap: square"/>
   </g>
   <g id="patch_4">
    <path d="M 460.8 345.6 
L 460.8 0 
" style="fill: none; stroke: #000000; stroke-width: 0.8; stroke-linejoin: miter; stroke-linecap: square"/>
   </g>
   <g id="patch_5">
    <path d="M 0 345.6 
L 460.8 345.6 
" style="fill: none; stroke: #000000; stroke-width: 0.8; stroke-linejoin: miter; stroke-linecap: square"/>
   </g>
   <g id="patch_6">
    <path d="M 0 0 
L 460.8 0 
" style="fill: none; stroke: #000000; stroke-width: 0.8; stroke-linejoin: miter; stroke-linecap: square"/>
   </g>
  </g>
 </g>
 <defs>
  <clipPath id="p736e52d1e4">
   <rect x="0" y="0" width="460.8" height="345.6"/>
  </clipPath>
 </defs>
</svg>
