<?xml version="1.0" encoding="utf-8" standalone="no"?>
<!DOCTYPE svg PUBLIC "-//W3C//DTD SVG 1.1//EN"
  "http://www.w3.org/Graphics/SVG/1.1/DTD/svg11.dtd">
<svg xmlns:xlink="http://www.w3.org/1999/xlink" width="460.8pt" height="345.6pt" viewBox="0 0 460.8 345.6" xmlns="http://www.w3.org/2000/svg" version="1.1">
 <metadata>
  <rdf:RDF xmlns:dc="http://purl.org/dc/elements/1.1/" xmlns:cc="http://creativecommons.org/ns#" xmlns:rdf="http://www.w3.org/1999/02/22-rdf-syntax-ns#">
   <cc:Work>
    <dc:type rdf:resource="http://purl.org/dc/dcmitype/StillImage"/>
    <dc:date>2024-09-22T21:20:27.404406</dc:date>
    <dc:format>image/svg+xml</dc:format>
    <dc:creator>
     <cc:Agent>
      <dc:title>Matplotlib v3.5.2, https://matplotlib.org/</dc:title>
     </cc:Agent>
    </dc:creator>
   </cc:Work>
  </rdf:RDF>
 </metadata>
 <defs>
  <style type="text/css">*{stroke-linejoin: round; stroke-linecap: butt}</style>
 </defs>
 <g id="figure_1">
  <g id="patch_1">
   <path d="M 0 345.6 
L 460.8 345.6 
L 460.8 0 
L 0 0 
z
" style="fill: #ffffff"/>
  </g>
  <g id="axes_1">
   <g id="patch_2">
    <path d="M 0 345.6 
L 460.8 345.6 
L 460.8 0 
L 0 0 
z
" style="fill: #ffffff"/>
   </g>
   <g id="PolyCollection_1">
    <defs>
     <path id="me9dd0c2562" d="M 20.945455 -15.709091 
L 20.945455 -15.709091 
L 23.082746 -23.153759 
L 25.220037 -30.598426 
L 27.357328 -38.043094 
L 29.49462 -45.487761 
L 31.631911 -52.932429 
L 33.769202 -60.377097 
L 35.906494 -67.821764 
L 38.043785 -75.266432 
L 40.181076 -82.7111 
L 42.318367 -90.155767 
L 44.455659 -97.600435 
L 46.59295 -105.045102 
L 48.730241 -112.48977 
L 50.867532 -119.934438 
L 53.004824 -127.379105 
L 55.142115 -134.823773 
L 57.279406 -142.268441 
L 59.416698 -149.713108 
L 61.553989 -157.157776 
L 63.69128 -164.602443 
L 65.828571 -172.047111 
L 67.965863 -179.491779 
L 70.103154 -186.936446 
L 72.240445 -194.381114 
L 74.377737 -194.381114 
L 76.515028 -186.936446 
L 78.652319 -179.491779 
L 80.78961 -172.047111 
L 82.926902 -164.602443 
L 85.064193 -157.157776 
L 87.201484 -149.713108 
L 89.338776 -142.268441 
L 91.476067 -134.823773 
L 93.613358 -127.379105 
L 95.750649 -119.934438 
L 97.887941 -112.48977 
L 100.025232 -105.045102 
L 102.162523 -97.600435 
L 104.299814 -90.155767 
L 106.437106 -82.7111 
L 108.574397 -75.266432 
L 110.711688 -67.821764 
L 112.84898 -60.377097 
L 114.986271 -52.932429 
L 117.123562 -45.487761 
L 119.260853 -38.043094 
L 121.398145 -30.598426 
L 123.535436 -23.153759 
L 125.672727 -15.709091 
L 125.672727 -15.709091 
L 125.672727 -15.709091 
L 123.535436 -15.709091 
L 121.398145 -15.709091 
L 119.260853 -15.709091 
L 117.123562 -15.709091 
L 114.986271 -15.709091 
L 112.84898 -15.709091 
L 110.711688 -15.709091 
L 108.574397 -15.709091 
L 106.437106 -15.709091 
L 104.299814 -15.709091 
L 102.162523 -15.709091 
L 100.025232 -15.709091 
L 97.887941 -15.709091 
L 95.750649 -15.709091 
L 93.613358 -15.709091 
L 91.476067 -15.709091 
L 89.338776 -15.709091 
L 87.201484 -15.709091 
L 85.064193 -15.709091 
L 82.926902 -15.709091 
L 80.78961 -15.709091 
L 78.652319 -15.709091 
L 76.515028 -15.709091 
L 74.377737 -15.709091 
L 72.240445 -15.709091 
L 70.103154 -15.709091 
L 67.965863 -15.709091 
L 65.828571 -15.709091 
L 63.69128 -15.709091 
L 61.553989 -15.709091 
L 59.416698 -15.709091 
L 57.279406 -15.709091 
L 55.142115 -15.709091 
L 53.004824 -15.709091 
L 50.867532 -15.709091 
L 48.730241 -15.709091 
L 46.59295 -15.709091 
L 44.455659 -15.709091 
L 42.318367 -15.709091 
L 40.181076 -15.709091 
L 38.043785 -15.709091 
L 35.906494 -15.709091 
L 33.769202 -15.709091 
L 31.631911 -15.709091 
L 29.49462 -15.709091 
L 27.357328 -15.709091 
L 25.220037 -15.709091 
L 23.082746 -15.709091 
L 20.945455 -15.709091 
z
" style="stroke: #008000; stroke-opacity: 0.2"/>
    </defs>
    <g clip-path="url(#p3ccedd3c29)">
     <use xlink:href="#me9dd0c2562" x="0" y="345.6" style="fill: #008000; fill-opacity: 0.2; stroke: #008000; stroke-opacity: 0.2"/>
    </g>
   </g>
   <g id="PolyCollection_2">
    <defs>
     <path id="mf21e1126c3" d="M 99.490909 -15.709091 
L 99.490909 -15.709091 
L 101.6282 -25.686661 
L 103.765492 -35.664232 
L 105.902783 -45.641802 
L 108.040074 -55.619372 
L 110.177365 -65.596943 
L 112.314657 -75.574513 
L 114.451948 -85.552084 
L 116.589239 -95.529654 
L 118.726531 -105.507224 
L 120.863822 -115.484795 
L 123.001113 -125.462365 
L 125.138404 -135.439936 
L 127.275696 -145.417506 
L 129.412987 -155.395076 
L 131.550278 -165.372647 
L 133.68757 -175.350217 
L 135.824861 -185.327788 
L 137.962152 -195.305358 
L 140.099443 -205.282928 
L 142.236735 -215.260499 
L 144.374026 -225.238069 
L 146.511317 -235.21564 
L 148.648609 -245.19321 
L 150.7859 -255.17078 
L 152.923191 -255.17078 
L 155.060482 -245.19321 
L 157.197774 -235.21564 
L 159.335065 -225.238069 
L 161.472356 -215.260499 
L 163.609647 -205.282928 
L 165.746939 -195.305358 
L 167.88423 -185.327788 
L 170.021521 -175.350217 
L 172.158813 -165.372647 
L 174.296104 -155.395076 
L 176.433395 -145.417506 
L 178.570686 -135.439936 
L 180.707978 -125.462365 
L 182.845269 -115.484795 
L 184.98256 -105.507224 
L 187.119852 -95.529654 
L 189.257143 -85.552084 
L 191.394434 -75.574513 
L 193.531725 -65.596943 
L 195.669017 -55.619372 
L 197.806308 -45.641802 
L 199.943599 -35.664232 
L 202.080891 -25.686661 
L 204.218182 -15.709091 
L 204.218182 -15.709091 
L 204.218182 -15.709091 
L 202.080891 -15.709091 
L 199.943599 -15.709091 
L 197.806308 -15.709091 
L 195.669017 -15.709091 
L 193.531725 -15.709091 
L 191.394434 -15.709091 
L 189.257143 -15.709091 
L 187.119852 -15.709091 
L 184.98256 -15.709091 
L 182.845269 -15.709091 
L 180.707978 -15.709091 
L 178.570686 -15.709091 
L 176.433395 -15.709091 
L 174.296104 -15.709091 
L 172.158813 -15.709091 
L 170.021521 -15.709091 
L 167.88423 -15.709091 
L 165.746939 -15.709091 
L 163.609647 -15.709091 
L 161.472356 -15.709091 
L 159.335065 -15.709091 
L 157.197774 -15.709091 
L 155.060482 -15.709091 
L 152.923191 -15.709091 
L 150.7859 -15.709091 
L 148.648609 -15.709091 
L 146.511317 -15.709091 
L 144.374026 -15.709091 
L 142.236735 -15.709091 
L 140.099443 -15.709091 
L 137.962152 -15.709091 
L 135.824861 -15.709091 
L 133.68757 -15.709091 
L 131.550278 -15.709091 
L 129.412987 -15.709091 
L 127.275696 -15.709091 
L 125.138404 -15.709091 
L 123.001113 -15.709091 
L 120.863822 -15.709091 
L 118.726531 -15.709091 
L 116.589239 -15.709091 
L 114.451948 -15.709091 
L 112.314657 -15.709091 
L 110.177365 -15.709091 
L 108.040074 -15.709091 
L 105.902783 -15.709091 
L 103.765492 -15.709091 
L 101.6282 -15.709091 
L 99.490909 -15.709091 
z
" style="stroke: #008000; stroke-opacity: 0.2"/>
    </defs>
    <g clip-path="url(#p3ccedd3c29)">
     <use xlink:href="#mf21e1126c3" x="0" y="345.6" style="fill: #008000; fill-opacity: 0.2; stroke: #008000; stroke-opacity: 0.2"/>
    </g>
   </g>
   <g id="PolyCollection_3">
    <defs>
     <path id="m6616056657" d="M 178.036364 -15.709091 
L 178.036364 -15.709091 
L 180.173655 -26.985892 
L 182.310946 -38.262694 
L 184.448237 -49.539496 
L 186.585529 -60.816297 
L 188.72282 -72.093099 
L 190.860111 -83.3699 
L 192.997403 -94.646702 
L 195.134694 -105.923504 
L 197.271985 -117.200305 
L 199.409276 -128.477107 
L 201.546568 -139.753908 
L 203.683859 -151.03071 
L 205.82115 -162.307511 
L 207.958442 -173.584313 
L 210.095733 -184.861115 
L 212.233024 -196.137916 
L 214.370315 -207.414718 
L 216.507607 -218.691519 
L 218.644898 -229.968321 
L 220.782189 -241.245122 
L 222.919481 -252.521924 
L 225.056772 -263.798726 
L 227.194063 -275.075527 
L 229.331354 -286.352329 
L 231.468646 -286.352329 
L 233.605937 -275.075527 
L 235.743228 -263.798726 
L 237.880519 -252.521924 
L 240.017811 -241.245122 
L 242.155102 -229.968321 
L 244.292393 -218.691519 
L 246.429685 -207.414718 
L 248.566976 -196.137916 
L 250.704267 -184.861115 
L 252.841558 -173.584313 
L 254.97885 -162.307511 
L 257.116141 -151.03071 
L 259.253432 -139.753908 
L 261.390724 -128.477107 
L 263.528015 -117.200305 
L 265.665306 -105.923504 
L 267.802597 -94.646702 
L 269.939889 -83.3699 
L 272.07718 -72.093099 
L 274.214471 -60.816297 
L 276.351763 -49.539496 
L 278.489054 -38.262694 
L 280.626345 -26.985892 
L 282.763636 -15.709091 
L 282.763636 -15.709091 
L 282.763636 -15.709091 
L 280.626345 -15.709091 
L 278.489054 -15.709091 
L 276.351763 -15.709091 
L 274.214471 -15.709091 
L 272.07718 -15.709091 
L 269.939889 -15.709091 
L 267.802597 -15.709091 
L 265.665306 -15.709091 
L 263.528015 -15.709091 
L 261.390724 -15.709091 
L 259.253432 -15.709091 
L 257.116141 -15.709091 
L 254.97885 -15.709091 
L 252.841558 -15.709091 
L 250.704267 -15.709091 
L 248.566976 -15.709091 
L 246.429685 -15.709091 
L 244.292393 -15.709091 
L 242.155102 -15.709091 
L 240.017811 -15.709091 
L 237.880519 -15.709091 
L 235.743228 -15.709091 
L 233.605937 -15.709091 
L 231.468646 -15.709091 
L 229.331354 -15.709091 
L 227.194063 -15.709091 
L 225.056772 -15.709091 
L 222.919481 -15.709091 
L 220.782189 -15.709091 
L 218.644898 -15.709091 
L 216.507607 -15.709091 
L 214.370315 -15.709091 
L 212.233024 -15.709091 
L 210.095733 -15.709091 
L 207.958442 -15.709091 
L 205.82115 -15.709091 
L 203.683859 -15.709091 
L 201.546568 -15.709091 
L 199.409276 -15.709091 
L 197.271985 -15.709091 
L 195.134694 -15.709091 
L 192.997403 -15.709091 
L 190.860111 -15.709091 
L 188.72282 -15.709091 
L 186.585529 -15.709091 
L 184.448237 -15.709091 
L 182.310946 -15.709091 
L 180.173655 -15.709091 
L 178.036364 -15.709091 
z
" style="stroke: #008000; stroke-opacity: 0.2"/>
    </defs>
    <g clip-path="url(#p3ccedd3c29)">
     <use xlink:href="#m6616056657" x="0" y="345.6" style="fill: #008000; fill-opacity: 0.2; stroke: #008000; stroke-opacity: 0.2"/>
    </g>
   </g>
   <g id="PolyCollection_4">
    <defs>
     <path id="me235e33e59" d="M 256.581818 -15.709091 
L 256.581818 -15.709091 
L 258.719109 -27.866194 
L 260.856401 -40.023298 
L 262.993692 -52.180401 
L 265.130983 -64.337504 
L 267.268275 -76.494608 
L 269.405566 -88.651711 
L 271.542857 -100.808814 
L 273.680148 -112.965918 
L 275.81744 -125.123021 
L 277.954731 -137.280124 
L 280.092022 -149.437228 
L 282.229314 -161.594331 
L 284.366605 -173.751434 
L 286.503896 -185.908538 
L 288.641187 -198.065641 
L 290.778479 -210.222744 
L 292.91577 -222.379848 
L 295.053061 -234.536951 
L 297.190353 -246.694054 
L 299.327644 -258.851157 
L 301.464935 -271.008261 
L 303.602226 -283.165364 
L 305.739518 -295.322467 
L 307.876809 -307.479571 
L 310.0141 -307.479571 
L 312.151391 -295.322467 
L 314.288683 -283.165364 
L 316.425974 -271.008261 
L 318.563265 -258.851157 
L 320.700557 -246.694054 
L 322.837848 -234.536951 
L 324.975139 -222.379848 
L 327.11243 -210.222744 
L 329.249722 -198.065641 
L 331.387013 -185.908538 
L 333.524304 -173.751434 
L 335.661596 -161.594331 
L 337.798887 -149.437228 
L 339.936178 -137.280124 
L 342.073469 -125.123021 
L 344.210761 -112.965918 
L 346.348052 -100.808814 
L 348.485343 -88.651711 
L 350.622635 -76.494608 
L 352.759926 -64.337504 
L 354.897217 -52.180401 
L 357.034508 -40.023298 
L 359.1718 -27.866194 
L 361.309091 -15.709091 
L 361.309091 -15.709091 
L 361.309091 -15.709091 
L 359.1718 -15.709091 
L 357.034508 -15.709091 
L 354.897217 -15.709091 
L 352.759926 -15.709091 
L 350.622635 -15.709091 
L 348.485343 -15.709091 
L 346.348052 -15.709091 
L 344.210761 -15.709091 
L 342.073469 -15.709091 
L 339.936178 -15.709091 
L 337.798887 -15.709091 
L 335.661596 -15.709091 
L 333.524304 -15.709091 
L 331.387013 -15.709091 
L 329.249722 -15.709091 
L 327.11243 -15.709091 
L 324.975139 -15.709091 
L 322.837848 -15.709091 
L 320.700557 -15.709091 
L 318.563265 -15.709091 
L 316.425974 -15.709091 
L 314.288683 -15.709091 
L 312.151391 -15.709091 
L 310.0141 -15.709091 
L 307.876809 -15.709091 
L 305.739518 -15.709091 
L 303.602226 -15.709091 
L 301.464935 -15.709091 
L 299.327644 -15.709091 
L 297.190353 -15.709091 
L 295.053061 -15.709091 
L 292.91577 -15.709091 
L 290.778479 -15.709091 
L 288.641187 -15.709091 
L 286.503896 -15.709091 
L 284.366605 -15.709091 
L 282.229314 -15.709091 
L 280.092022 -15.709091 
L 277.954731 -15.709091 
L 275.81744 -15.709091 
L 273.680148 -15.709091 
L 271.542857 -15.709091 
L 269.405566 -15.709091 
L 267.268275 -15.709091 
L 265.130983 -15.709091 
L 262.993692 -15.709091 
L 260.856401 -15.709091 
L 258.719109 -15.709091 
L 256.581818 -15.709091 
z
" style="stroke: #008000; stroke-opacity: 0.2"/>
    </defs>
    <g clip-path="url(#p3ccedd3c29)">
     <use xlink:href="#me235e33e59" x="0" y="345.6" style="fill: #008000; fill-opacity: 0.2; stroke: #008000; stroke-opacity: 0.2"/>
    </g>
   </g>
   <g id="PolyCollection_5">
    <defs>
     <path id="m2a53329a5d" d="M 335.127273 -15.709091 
L 335.127273 -15.709091 
L 337.264564 -28.532839 
L 339.401855 -41.356586 
L 341.539147 -54.180334 
L 343.676438 -67.004082 
L 345.813729 -79.827829 
L 347.95102 -92.651577 
L 350.088312 -105.475325 
L 352.225603 -118.299072 
L 354.362894 -131.12282 
L 356.500186 -143.946568 
L 358.637477 -156.770315 
L 360.774768 -169.594063 
L 362.912059 -182.417811 
L 365.049351 -195.241558 
L 367.186642 -208.065306 
L 369.323933 -220.889054 
L 371.461224 -233.712801 
L 373.598516 -246.536549 
L 375.735807 -259.360297 
L 377.873098 -272.184045 
L 380.01039 -285.007792 
L 382.147681 -297.83154 
L 384.284972 -310.655288 
L 386.422263 -323.479035 
L 388.559555 -323.479035 
L 390.696846 -310.655288 
L 392.834137 -297.83154 
L 394.971429 -285.007792 
L 397.10872 -272.184045 
L 399.246011 -259.360297 
L 401.383302 -246.536549 
L 403.520594 -233.712801 
L 405.657885 -220.889054 
L 407.795176 -208.065306 
L 409.932468 -195.241558 
L 412.069759 -182.417811 
L 414.20705 -169.594063 
L 416.344341 -156.770315 
L 418.481633 -143.946568 
L 420.618924 -131.12282 
L 422.756215 -118.299072 
L 424.893506 -105.475325 
L 427.030798 -92.651577 
L 429.168089 -79.827829 
L 431.30538 -67.004082 
L 433.442672 -54.180334 
L 435.579963 -41.356586 
L 437.717254 -28.532839 
L 439.854545 -15.709091 
L 439.854545 -15.709091 
L 439.854545 -15.709091 
L 437.717254 -15.709091 
L 435.579963 -15.709091 
L 433.442672 -15.709091 
L 431.30538 -15.709091 
L 429.168089 -15.709091 
L 427.030798 -15.709091 
L 424.893506 -15.709091 
L 422.756215 -15.709091 
L 420.618924 -15.709091 
L 418.481633 -15.709091 
L 416.344341 -15.709091 
L 414.20705 -15.709091 
L 412.069759 -15.709091 
L 409.932468 -15.709091 
L 407.795176 -15.709091 
L 405.657885 -15.709091 
L 403.520594 -15.709091 
L 401.383302 -15.709091 
L 399.246011 -15.709091 
L 397.10872 -15.709091 
L 394.971429 -15.709091 
L 392.834137 -15.709091 
L 390.696846 -15.709091 
L 388.559555 -15.709091 
L 386.422263 -15.709091 
L 384.284972 -15.709091 
L 382.147681 -15.709091 
L 380.01039 -15.709091 
L 377.873098 -15.709091 
L 375.735807 -15.709091 
L 373.598516 -15.709091 
L 371.461224 -15.709091 
L 369.323933 -15.709091 
L 367.186642 -15.709091 
L 365.049351 -15.709091 
L 362.912059 -15.709091 
L 360.774768 -15.709091 
L 358.637477 -15.709091 
L 356.500186 -15.709091 
L 354.362894 -15.709091 
L 352.225603 -15.709091 
L 350.088312 -15.709091 
L 347.95102 -15.709091 
L 345.813729 -15.709091 
L 343.676438 -15.709091 
L 341.539147 -15.709091 
L 339.401855 -15.709091 
L 337.264564 -15.709091 
L 335.127273 -15.709091 
z
" style="stroke: #008000; stroke-opacity: 0.2"/>
    </defs>
    <g clip-path="url(#p3ccedd3c29)">
     <use xlink:href="#m2a53329a5d" x="0" y="345.6" style="fill: #008000; fill-opacity: 0.2; stroke: #008000; stroke-opacity: 0.2"/>
    </g>
   </g>
   <g id="matplotlib.axis_1">
    <g id="xtick_1">
     <g id="line2d_1">
      <defs>
       <path id="m4e40b466b0" d="M 0 0 
L 0 3.5 
" style="stroke: #000000; stroke-width: 0.8"/>
      </defs>
      <g>
       <use xlink:href="#m4e40b466b0" x="20.945455" y="345.6" style="stroke: #000000; stroke-width: 0.8"/>
      </g>
     </g>
     <g id="text_1">
      <!-- −2 -->
      <g transform="translate(13.574361 360.198437)scale(0.1 -0.1)">
       <defs>
        <path id="DejaVuSans-2212" d="M 678 2272 
L 4684 2272 
L 4684 1741 
L 678 1741 
L 678 2272 
z
" transform="scale(0.015625)"/>
        <path id="DejaVuSans-32" d="M 1228 531 
L 3431 531 
L 3431 0 
L 469 0 
L 469 531 
Q 828 903 1448 1529 
Q 2069 2156 2228 2338 
Q 2531 2678 2651 2914 
Q 2772 3150 2772 3378 
Q 2772 3750 2511 3984 
Q 2250 4219 1831 4219 
Q 1534 4219 1204 4116 
Q 875 4013 500 3803 
L 500 4441 
Q 881 4594 1212 4672 
Q 1544 4750 1819 4750 
Q 2544 4750 2975 4387 
Q 3406 4025 3406 3419 
Q 3406 3131 3298 2873 
Q 3191 2616 2906 2266 
Q 2828 2175 2409 1742 
Q 1991 1309 1228 531 
z
" transform="scale(0.015625)"/>
       </defs>
       <use xlink:href="#DejaVuSans-2212"/>
       <use xlink:href="#DejaVuSans-32" x="83.789062"/>
      </g>
     </g>
    </g>
    <g id="xtick_2">
     <g id="line2d_2">
      <g>
       <use xlink:href="#m4e40b466b0" x="73.309091" y="345.6" style="stroke: #000000; stroke-width: 0.8"/>
      </g>
     </g>
     <g id="text_2">
      <!-- 0 -->
      <g transform="translate(70.127841 360.198437)scale(0.1 -0.1)">
       <defs>
        <path id="DejaVuSans-30" d="M 2034 4250 
Q 1547 4250 1301 3770 
Q 1056 3291 1056 2328 
Q 1056 1369 1301 889 
Q 1547 409 2034 409 
Q 2525 409 2770 889 
Q 3016 1369 3016 2328 
Q 3016 3291 2770 3770 
Q 2525 4250 2034 4250 
z
M 2034 4750 
Q 2819 4750 3233 4129 
Q 3647 3509 3647 2328 
Q 3647 1150 3233 529 
Q 2819 -91 2034 -91 
Q 1250 -91 836 529 
Q 422 1150 422 2328 
Q 422 3509 836 4129 
Q 1250 4750 2034 4750 
z
" transform="scale(0.015625)"/>
       </defs>
       <use xlink:href="#DejaVuSans-30"/>
      </g>
     </g>
    </g>
    <g id="xtick_3">
     <g id="line2d_3">
      <g>
       <use xlink:href="#m4e40b466b0" x="125.672727" y="345.6" style="stroke: #000000; stroke-width: 0.8"/>
      </g>
     </g>
     <g id="text_3">
      <!-- 2 -->
      <g transform="translate(122.491477 360.198437)scale(0.1 -0.1)">
       <use xlink:href="#DejaVuSans-32"/>
      </g>
     </g>
    </g>
    <g id="xtick_4">
     <g id="line2d_4">
      <g>
       <use xlink:href="#m4e40b466b0" x="178.036364" y="345.6" style="stroke: #000000; stroke-width: 0.8"/>
      </g>
     </g>
     <g id="text_4">
      <!-- 4 -->
      <g transform="translate(174.855114 360.198437)scale(0.1 -0.1)">
       <defs>
        <path id="DejaVuSans-34" d="M 2419 4116 
L 825 1625 
L 2419 1625 
L 2419 4116 
z
M 2253 4666 
L 3047 4666 
L 3047 1625 
L 3713 1625 
L 3713 1100 
L 3047 1100 
L 3047 0 
L 2419 0 
L 2419 1100 
L 313 1100 
L 313 1709 
L 2253 4666 
z
" transform="scale(0.015625)"/>
       </defs>
       <use xlink:href="#DejaVuSans-34"/>
      </g>
     </g>
    </g>
    <g id="xtick_5">
     <g id="line2d_5">
      <g>
       <use xlink:href="#m4e40b466b0" x="230.4" y="345.6" style="stroke: #000000; stroke-width: 0.8"/>
      </g>
     </g>
     <g id="text_5">
      <!-- 6 -->
      <g transform="translate(227.21875 360.198437)scale(0.1 -0.1)">
       <defs>
        <path id="DejaVuSans-36" d="M 2113 2584 
Q 1688 2584 1439 2293 
Q 1191 2003 1191 1497 
Q 1191 994 1439 701 
Q 1688 409 2113 409 
Q 2538 409 2786 701 
Q 3034 994 3034 1497 
Q 3034 2003 2786 2293 
Q 2538 2584 2113 2584 
z
M 3366 4563 
L 3366 3988 
Q 3128 4100 2886 4159 
Q 2644 4219 2406 4219 
Q 1781 4219 1451 3797 
Q 1122 3375 1075 2522 
Q 1259 2794 1537 2939 
Q 1816 3084 2150 3084 
Q 2853 3084 3261 2657 
Q 3669 2231 3669 1497 
Q 3669 778 3244 343 
Q 2819 -91 2113 -91 
Q 1303 -91 875 529 
Q 447 1150 447 2328 
Q 447 3434 972 4092 
Q 1497 4750 2381 4750 
Q 2619 4750 2861 4703 
Q 3103 4656 3366 4563 
z
" transform="scale(0.015625)"/>
       </defs>
       <use xlink:href="#DejaVuSans-36"/>
      </g>
     </g>
    </g>
    <g id="xtick_6">
     <g id="line2d_6">
      <g>
       <use xlink:href="#m4e40b466b0" x="282.763636" y="345.6" style="stroke: #000000; stroke-width: 0.8"/>
      </g>
     </g>
     <g id="text_6">
      <!-- 8 -->
      <g transform="translate(279.582386 360.198437)scale(0.1 -0.1)">
       <defs>
        <path id="DejaVuSans-38" d="M 2034 2216 
Q 1584 2216 1326 1975 
Q 1069 1734 1069 1313 
Q 1069 891 1326 650 
Q 1584 409 2034 409 
Q 2484 409 2743 651 
Q 3003 894 3003 1313 
Q 3003 1734 2745 1975 
Q 2488 2216 2034 2216 
z
M 1403 2484 
Q 997 2584 770 2862 
Q 544 3141 544 3541 
Q 544 4100 942 4425 
Q 1341 4750 2034 4750 
Q 2731 4750 3128 4425 
Q 3525 4100 3525 3541 
Q 3525 3141 3298 2862 
Q 3072 2584 2669 2484 
Q 3125 2378 3379 2068 
Q 3634 1759 3634 1313 
Q 3634 634 3220 271 
Q 2806 -91 2034 -91 
Q 1263 -91 848 271 
Q 434 634 434 1313 
Q 434 1759 690 2068 
Q 947 2378 1403 2484 
z
M 1172 3481 
Q 1172 3119 1398 2916 
Q 1625 2713 2034 2713 
Q 2441 2713 2670 2916 
Q 2900 3119 2900 3481 
Q 2900 3844 2670 4047 
Q 2441 4250 2034 4250 
Q 1625 4250 1398 4047 
Q 1172 3844 1172 3481 
z
" transform="scale(0.015625)"/>
       </defs>
       <use xlink:href="#DejaVuSans-38"/>
      </g>
     </g>
    </g>
    <g id="xtick_7">
     <g id="line2d_7">
      <g>
       <use xlink:href="#m4e40b466b0" x="335.127273" y="345.6" style="stroke: #000000; stroke-width: 0.8"/>
      </g>
     </g>
     <g id="text_7">
      <!-- 10 -->
      <g transform="translate(328.764773 360.198437)scale(0.1 -0.1)">
       <defs>
        <path id="DejaVuSans-31" d="M 794 531 
L 1825 531 
L 1825 4091 
L 703 3866 
L 703 4441 
L 1819 4666 
L 2450 4666 
L 2450 531 
L 3481 531 
L 3481 0 
L 794 0 
L 794 531 
z
" transform="scale(0.015625)"/>
       </defs>
       <use xlink:href="#DejaVuSans-31"/>
       <use xlink:href="#DejaVuSans-30" x="63.623047"/>
      </g>
     </g>
    </g>
    <g id="xtick_8">
     <g id="line2d_8">
      <g>
       <use xlink:href="#m4e40b466b0" x="387.490909" y="345.6" style="stroke: #000000; stroke-width: 0.8"/>
      </g>
     </g>
     <g id="text_8">
      <!-- 12 -->
      <g transform="translate(381.128409 360.198437)scale(0.1 -0.1)">
       <use xlink:href="#DejaVuSans-31"/>
       <use xlink:href="#DejaVuSans-32" x="63.623047"/>
      </g>
     </g>
    </g>
    <g id="xtick_9">
     <g id="line2d_9">
      <g>
       <use xlink:href="#m4e40b466b0" x="439.854545" y="345.6" style="stroke: #000000; stroke-width: 0.8"/>
      </g>
     </g>
     <g id="text_9">
      <!-- 14 -->
      <g transform="translate(433.492045 360.198437)scale(0.1 -0.1)">
       <use xlink:href="#DejaVuSans-31"/>
       <use xlink:href="#DejaVuSans-34" x="63.623047"/>
      </g>
     </g>
    </g>
   </g>
   <g id="matplotlib.axis_2">
    <g id="ytick_1">
     <g id="line2d_10">
      <defs>
       <path id="mdce0035131" d="M 0 0 
L -3.5 0 
" style="stroke: #000000; stroke-width: 0.8"/>
      </defs>
      <g>
       <use xlink:href="#mdce0035131" x="0" y="329.890909" style="stroke: #000000; stroke-width: 0.8"/>
      </g>
     </g>
     <g id="text_10">
      <!-- 0 -->
      <g transform="translate(-13.3625 333.690128)scale(0.1 -0.1)">
       <use xlink:href="#DejaVuSans-30"/>
      </g>
     </g>
    </g>
    <g id="ytick_2">
     <g id="line2d_11">
      <g>
       <use xlink:href="#mdce0035131" x="0" y="262.165551" style="stroke: #000000; stroke-width: 0.8"/>
      </g>
     </g>
     <g id="text_11">
      <!-- 1 -->
      <g transform="translate(-13.3625 265.96477)scale(0.1 -0.1)">
       <use xlink:href="#DejaVuSans-31"/>
      </g>
     </g>
    </g>
    <g id="ytick_3">
     <g id="line2d_12">
      <g>
       <use xlink:href="#mdce0035131" x="0" y="194.440193" style="stroke: #000000; stroke-width: 0.8"/>
      </g>
     </g>
     <g id="text_12">
      <!-- 2 -->
      <g transform="translate(-13.3625 198.239412)scale(0.1 -0.1)">
       <use xlink:href="#DejaVuSans-32"/>
      </g>
     </g>
    </g>
    <g id="ytick_4">
     <g id="line2d_13">
      <g>
       <use xlink:href="#mdce0035131" x="0" y="126.714835" style="stroke: #000000; stroke-width: 0.8"/>
      </g>
     </g>
     <g id="text_13">
      <!-- 3 -->
      <g transform="translate(-13.3625 130.514054)scale(0.1 -0.1)">
       <defs>
        <path id="DejaVuSans-33" d="M 2597 2516 
Q 3050 2419 3304 2112 
Q 3559 1806 3559 1356 
Q 3559 666 3084 287 
Q 2609 -91 1734 -91 
Q 1441 -91 1130 -33 
Q 819 25 488 141 
L 488 750 
Q 750 597 1062 519 
Q 1375 441 1716 441 
Q 2309 441 2620 675 
Q 2931 909 2931 1356 
Q 2931 1769 2642 2001 
Q 2353 2234 1838 2234 
L 1294 2234 
L 1294 2753 
L 1863 2753 
Q 2328 2753 2575 2939 
Q 2822 3125 2822 3475 
Q 2822 3834 2567 4026 
Q 2313 4219 1838 4219 
Q 1578 4219 1281 4162 
Q 984 4106 628 3988 
L 628 4550 
Q 988 4650 1302 4700 
Q 1616 4750 1894 4750 
Q 2613 4750 3031 4423 
Q 3450 4097 3450 3541 
Q 3450 3153 3228 2886 
Q 3006 2619 2597 2516 
z
" transform="scale(0.015625)"/>
       </defs>
       <use xlink:href="#DejaVuSans-33"/>
      </g>
     </g>
    </g>
    <g id="ytick_5">
     <g id="line2d_14">
      <g>
       <use xlink:href="#mdce0035131" x="0" y="58.989477" style="stroke: #000000; stroke-width: 0.8"/>
      </g>
     </g>
     <g id="text_14">
      <!-- 4 -->
      <g transform="translate(-13.3625 62.788696)scale(0.1 -0.1)">
       <use xlink:href="#DejaVuSans-34"/>
      </g>
     </g>
    </g>
   </g>
   <g id="line2d_15">
    <path d="M 47.127273 194.440193 
L 50.565289 186.084305 
L 54.003306 178.647054 
L 57.441322 171.94631 
L 60.879339 165.849257 
L 64.317355 160.256051 
L 67.755372 155.089736 
L 71.193388 150.289746 
L 74.631405 145.807553 
L 78.069421 141.603676 
L 81.507438 137.645562 
L 84.945455 133.906058 
L 88.383471 130.362273 
L 91.821488 126.994735 
L 95.259504 123.786742 
L 98.697521 120.723856 
L 102.135537 117.793516 
L 105.573554 114.984726 
L 109.01157 112.287801 
L 112.449587 109.694171 
L 115.887603 107.196215 
L 119.32562 104.787125 
L 122.763636 102.460794 
L 126.201653 100.211725 
L 129.639669 98.03495 
L 133.077686 95.925966 
L 136.515702 93.880678 
L 139.953719 91.895351 
L 143.391736 89.966568 
L 146.829752 88.091199 
L 150.267769 86.266364 
L 153.705785 84.489411 
L 157.143802 82.757891 
L 160.581818 81.06954 
L 164.019835 79.422256 
L 167.457851 77.81409 
L 170.895868 76.243227 
L 174.333884 74.707974 
L 177.771901 73.206754 
L 181.209917 71.738089 
L 184.647934 70.300599 
L 188.08595 68.892987 
L 191.523967 67.514037 
L 194.961983 66.162603 
L 198.4 64.83761 
L 201.838017 63.538043 
L 205.276033 62.262945 
L 208.71405 61.01141 
L 212.152066 59.782584 
L 215.590083 58.575657 
L 219.028099 57.389863 
L 222.466116 56.224474 
L 225.904132 55.0788 
L 229.342149 53.952184 
L 232.780165 52.844004 
L 236.218182 51.753665 
L 239.656198 50.680602 
L 243.094215 49.624277 
L 246.532231 48.584174 
L 249.970248 47.559803 
L 253.408264 46.550696 
L 256.846281 45.556404 
L 260.284298 44.576499 
L 263.722314 43.61057 
L 267.160331 42.658223 
L 270.598347 41.719083 
L 274.036364 40.792788 
L 277.47438 39.878992 
L 280.912397 38.977361 
L 284.350413 38.087576 
L 287.78843 37.209329 
L 291.226446 36.342326 
L 294.664463 35.486282 
L 298.102479 34.640923 
L 301.540496 33.805987 
L 304.978512 32.981218 
L 308.416529 32.166373 
L 311.854545 31.361215 
L 315.292562 30.565517 
L 318.730579 29.779059 
L 322.168595 29.001629 
L 325.606612 28.233022 
L 329.044628 27.473041 
L 332.482645 26.721493 
L 335.920661 25.978193 
L 339.358678 25.242963 
L 342.796694 24.515628 
L 346.234711 23.796022 
L 349.672727 23.083982 
L 353.110744 22.37935 
L 356.54876 21.681974 
L 359.986777 20.991706 
L 363.424793 20.308402 
L 366.86281 19.631923 
L 370.300826 18.962135 
L 373.738843 18.298905 
L 377.17686 17.642108 
L 380.614876 16.99162 
L 384.052893 16.347319 
L 387.490909 15.709091 
" clip-path="url(#p3ccedd3c29)" style="fill: none; stroke: #1f77b4; stroke-width: 1.5; stroke-linecap: square"/>
   </g>
   <g id="line2d_16">
    <path d="M 20.945455 329.890909 
L 23.082746 322.446241 
L 25.220037 315.001574 
L 27.357328 307.556906 
L 29.49462 300.112239 
L 31.631911 292.667571 
L 33.769202 285.222903 
L 35.906494 277.778236 
L 38.043785 270.333568 
L 40.181076 262.8889 
L 42.318367 255.444233 
L 44.455659 247.999565 
L 46.59295 240.554898 
L 48.730241 233.11023 
L 50.867532 225.665562 
L 53.004824 218.220895 
L 55.142115 210.776227 
L 57.279406 203.331559 
L 59.416698 195.886892 
L 61.553989 188.442224 
L 63.69128 180.997557 
L 65.828571 173.552889 
L 67.965863 166.108221 
L 70.103154 158.663554 
L 72.240445 151.218886 
L 74.377737 151.218886 
L 76.515028 158.663554 
L 78.652319 166.108221 
L 80.78961 173.552889 
L 82.926902 180.997557 
L 85.064193 188.442224 
L 87.201484 195.886892 
L 89.338776 203.331559 
L 91.476067 210.776227 
L 93.613358 218.220895 
L 95.750649 225.665562 
L 97.887941 233.11023 
L 100.025232 240.554898 
L 102.162523 247.999565 
L 104.299814 255.444233 
L 106.437106 262.8889 
L 108.574397 270.333568 
L 110.711688 277.778236 
L 112.84898 285.222903 
L 114.986271 292.667571 
L 117.123562 300.112239 
L 119.260853 307.556906 
L 121.398145 315.001574 
L 123.535436 322.446241 
L 125.672727 329.890909 
" clip-path="url(#p3ccedd3c29)" style="fill: none; stroke-dasharray: 9.6,2.4,1.5,2.4; stroke-dashoffset: 0; stroke: #008000; stroke-width: 1.5"/>
   </g>
   <g id="line2d_17">
    <path d="M 99.490909 329.890909 
L 101.6282 319.913339 
L 103.765492 309.935768 
L 105.902783 299.958198 
L 108.040074 289.980628 
L 110.177365 280.003057 
L 112.314657 270.025487 
L 114.451948 260.047916 
L 116.589239 250.070346 
L 118.726531 240.092776 
L 120.863822 230.115205 
L 123.001113 220.137635 
L 125.138404 210.160064 
L 127.275696 200.182494 
L 129.412987 190.204924 
L 131.550278 180.227353 
L 133.68757 170.249783 
L 135.824861 160.272212 
L 137.962152 150.294642 
L 140.099443 140.317072 
L 142.236735 130.339501 
L 144.374026 120.361931 
L 146.511317 110.38436 
L 148.648609 100.40679 
L 150.7859 90.42922 
L 152.923191 90.42922 
L 155.060482 100.40679 
L 157.197774 110.38436 
L 159.335065 120.361931 
L 161.472356 130.339501 
L 163.609647 140.317072 
L 165.746939 150.294642 
L 167.88423 160.272212 
L 170.021521 170.249783 
L 172.158813 180.227353 
L 174.296104 190.204924 
L 176.433395 200.182494 
L 178.570686 210.160064 
L 180.707978 220.137635 
L 182.845269 230.115205 
L 184.98256 240.092776 
L 187.119852 250.070346 
L 189.257143 260.047916 
L 191.394434 270.025487 
L 193.531725 280.003057 
L 195.669017 289.980628 
L 197.806308 299.958198 
L 199.943599 309.935768 
L 202.080891 319.913339 
L 204.218182 329.890909 
" clip-path="url(#p3ccedd3c29)" style="fill: none; stroke-dasharray: 9.6,2.4,1.5,2.4; stroke-dashoffset: 0; stroke: #008000; stroke-width: 1.5"/>
   </g>
   <g id="line2d_18">
    <path d="M 178.036364 329.890909 
L 180.173655 318.614108 
L 182.310946 307.337306 
L 184.448237 296.060504 
L 186.585529 284.783703 
L 188.72282 273.506901 
L 190.860111 262.2301 
L 192.997403 250.953298 
L 195.134694 239.676496 
L 197.271985 228.399695 
L 199.409276 217.122893 
L 201.546568 205.846092 
L 203.683859 194.56929 
L 205.82115 183.292489 
L 207.958442 172.015687 
L 210.095733 160.738885 
L 212.233024 149.462084 
L 214.370315 138.185282 
L 216.507607 126.908481 
L 218.644898 115.631679 
L 220.782189 104.354878 
L 222.919481 93.078076 
L 225.056772 81.801274 
L 227.194063 70.524473 
L 229.331354 59.247671 
L 231.468646 59.247671 
L 233.605937 70.524473 
L 235.743228 81.801274 
L 237.880519 93.078076 
L 240.017811 104.354878 
L 242.155102 115.631679 
L 244.292393 126.908481 
L 246.429685 138.185282 
L 248.566976 149.462084 
L 250.704267 160.738885 
L 252.841558 172.015687 
L 254.97885 183.292489 
L 257.116141 194.56929 
L 259.253432 205.846092 
L 261.390724 217.122893 
L 263.528015 228.399695 
L 265.665306 239.676496 
L 267.802597 250.953298 
L 269.939889 262.2301 
L 272.07718 273.506901 
L 274.214471 284.783703 
L 276.351763 296.060504 
L 278.489054 307.337306 
L 280.626345 318.614108 
L 282.763636 329.890909 
" clip-path="url(#p3ccedd3c29)" style="fill: none; stroke-dasharray: 9.6,2.4,1.5,2.4; stroke-dashoffset: 0; stroke: #008000; stroke-width: 1.5"/>
   </g>
   <g id="line2d_19">
    <path d="M 256.581818 329.890909 
L 258.719109 317.733806 
L 260.856401 305.576702 
L 262.993692 293.419599 
L 265.130983 281.262496 
L 267.268275 269.105392 
L 269.405566 256.948289 
L 271.542857 244.791186 
L 273.680148 232.634082 
L 275.81744 220.476979 
L 277.954731 208.319876 
L 280.092022 196.162772 
L 282.229314 184.005669 
L 284.366605 171.848566 
L 286.503896 159.691462 
L 288.641187 147.534359 
L 290.778479 135.377256 
L 292.91577 123.220152 
L 295.053061 111.063049 
L 297.190353 98.905946 
L 299.327644 86.748843 
L 301.464935 74.591739 
L 303.602226 62.434636 
L 305.739518 50.277533 
L 307.876809 38.120429 
L 310.0141 38.120429 
L 312.151391 50.277533 
L 314.288683 62.434636 
L 316.425974 74.591739 
L 318.563265 86.748843 
L 320.700557 98.905946 
L 322.837848 111.063049 
L 324.975139 123.220152 
L 327.11243 135.377256 
L 329.249722 147.534359 
L 331.387013 159.691462 
L 333.524304 171.848566 
L 335.661596 184.005669 
L 337.798887 196.162772 
L 339.936178 208.319876 
L 342.073469 220.476979 
L 344.210761 232.634082 
L 346.348052 244.791186 
L 348.485343 256.948289 
L 350.622635 269.105392 
L 352.759926 281.262496 
L 354.897217 293.419599 
L 357.034508 305.576702 
L 359.1718 317.733806 
L 361.309091 329.890909 
" clip-path="url(#p3ccedd3c29)" style="fill: none; stroke-dasharray: 9.6,2.4,1.5,2.4; stroke-dashoffset: 0; stroke: #008000; stroke-width: 1.5"/>
   </g>
   <g id="line2d_20">
    <path d="M 335.127273 329.890909 
L 337.264564 317.067161 
L 339.401855 304.243414 
L 341.539147 291.419666 
L 343.676438 278.595918 
L 345.813729 265.772171 
L 347.95102 252.948423 
L 350.088312 240.124675 
L 352.225603 227.300928 
L 354.362894 214.47718 
L 356.500186 201.653432 
L 358.637477 188.829685 
L 360.774768 176.005937 
L 362.912059 163.182189 
L 365.049351 150.358442 
L 367.186642 137.534694 
L 369.323933 124.710946 
L 371.461224 111.887199 
L 373.598516 99.063451 
L 375.735807 86.239703 
L 377.873098 73.415955 
L 380.01039 60.592208 
L 382.147681 47.76846 
L 384.284972 34.944712 
L 386.422263 22.120965 
L 388.559555 22.120965 
L 390.696846 34.944712 
L 392.834137 47.76846 
L 394.971429 60.592208 
L 397.10872 73.415955 
L 399.246011 86.239703 
L 401.383302 99.063451 
L 403.520594 111.887199 
L 405.657885 124.710946 
L 407.795176 137.534694 
L 409.932468 150.358442 
L 412.069759 163.182189 
L 414.20705 176.005937 
L 416.344341 188.829685 
L 418.481633 201.653432 
L 420.618924 214.47718 
L 422.756215 227.300928 
L 424.893506 240.124675 
L 427.030798 252.948423 
L 429.168089 265.772171 
L 431.30538 278.595918 
L 433.442672 291.419666 
L 435.579963 304.243414 
L 437.717254 317.067161 
L 439.854545 329.890909 
" clip-path="url(#p3ccedd3c29)" style="fill: none; stroke-dasharray: 9.6,2.4,1.5,2.4; stroke-dashoffset: 0; stroke: #008000; stroke-width: 1.5"/>
   </g>
   <g id="line2d_21">
    <path d="M 73.309091 147.496552 
L 151.854545 85.440434 
L 230.4 53.60927 
L 308.945455 32.041878 
L 387.490909 15.709091 
" clip-path="url(#p3ccedd3c29)" style="fill: none; stroke: #ff0000; stroke-width: 0.5; stroke-linecap: square"/>
   </g>
   <g id="patch_3">
    <path d="M 0 345.6 
L 0 0 
" style="fill: none; stroke: #000000; stroke-width: 0.8; stroke-linejoin: miter; stroke-linecap: square"/>
   </g>
   <g id="patch_4">
    <path d="M 460.8 345.6 
L 460.8 0 
" style="fill: none; stroke: #000000; stroke-width: 0.8; stroke-linejoin: miter; stroke-linecap: square"/>
   </g>
   <g id="patch_5">
    <path d="M 0 345.6 
L 460.8 345.6 
" style="fill: none; stroke: #000000; stroke-width: 0.8; stroke-linejoin: miter; stroke-linecap: square"/>
   </g>
   <g id="patch_6">
    <path d="M 0 0 
L 460.8 0 
" style="fill: none; stroke: #000000; stroke-width: 0.8; stroke-linejoin: miter; stroke-linecap: square"/>
   </g>
  </g>
 </g>
 <defs>
  <clipPath id="p3ccedd3c29">
   <rect x="0" y="0" width="460.8" height="345.6"/>
  </clipPath>
 </defs>
</svg>
